<svg width="128" height="128" viewBox="0 0 128 128" fill="none" xmlns="http://www.w3.org/2000/svg">
<path fill-rule="evenodd" clip-rule="evenodd" d="M82.0139 63.2046C81.9155 63.8422 81.6757 64.449 81.3125 64.9796C80.9493 65.5101 80.4721 65.9507 79.9167 66.2683C78.7981 66.9989 77.8194 67.3642 76.829 67.7295C74.7201 68.466 72.5005 69.2025 70.1528 70.0568C67.6769 70.9111 65.4573 71.7654 63.4765 72.384C61.0064 73.2383 58.6587 73.9748 56.4274 74.8291C54.7487 75.5556 53.1719 76.5025 51.7377 77.6454C50.4039 78.8676 49.2398 80.2669 48.2773 81.805C47.2869 83.5136 46.6635 85.7172 46.6635 88.286C46.6635 93.4295 47.8986 97.3417 50.3745 99.7868C52.8446 102.362 57.4236 103.581 64.2106 103.581C71.1315 103.581 75.827 102.238 78.3088 99.5452C80.773 96.8527 82.0081 93.0643 82.0081 88.1741V63.2046H82.0139ZM64.2164 9C76.3339 9 85.2297 11.3273 90.9098 16.0996C96.5957 20.7541 99.4386 26.7402 99.4386 33.834V94.2839C99.4386 96.729 98.9492 99.4215 98.087 102.356C97.2132 105.302 95.4888 107.988 92.7682 110.427C90.1757 112.884 86.5929 114.964 82.0197 116.555C77.4466 118.146 71.516 119 64.2222 119C56.9401 119 50.9979 118.146 46.4305 116.555C41.8632 114.964 38.2745 112.884 35.6821 110.427C33.2704 108.229 31.4435 105.454 30.369 102.356C29.4952 99.4274 29 96.7349 29 94.2898V84.6272C29 79.4837 30.3574 74.7113 33.078 70.5458C35.7986 66.2683 39.6261 63.3342 44.5721 61.496C47.0422 60.6417 49.8852 59.7874 53.0951 58.6856C56.3109 57.5779 59.2704 56.4762 62.2415 55.504C65.2126 54.5201 67.805 53.5362 70.0246 52.676C71.3641 52.1339 72.7245 51.6465 74.1026 51.2148L76.328 50.113C77.2019 49.624 78.0583 48.8875 78.9263 47.9095C79.7885 46.9373 80.5284 45.8356 81.1517 44.6101C81.8103 43.283 82.1497 41.8174 82.1421 40.3326V36.4146C82.1512 34.9786 81.8531 33.5576 81.2682 32.2491C80.7789 30.7761 79.7885 29.4328 78.4311 28.2132C77.0737 26.9877 75.2153 26.0096 72.9957 25.2673C70.7703 24.5426 67.8108 24.1714 64.4669 24.1714C57.546 24.1714 52.9728 25.5265 50.5027 28.331C48.4054 30.782 47.1704 33.8398 46.9257 37.263C46.9257 37.9995 46.3082 38.4885 45.5625 38.4885L30.4914 38.7359C30.1334 38.7375 29.7893 38.596 29.5339 38.3422C29.2786 38.0884 29.1328 37.7429 29.1282 37.3808V33.8457C29.1282 30.4108 29.7515 27.2292 31.1089 24.1714C32.4721 21.1077 34.5752 18.5447 37.4123 16.3353C40.2553 14.1377 43.9662 12.3053 48.4112 11.0798C52.7397 9.60686 58.0528 9 64.228 9H64.2164Z" fill="#469A9A"/>
</svg>
