<svg width="128" height="128" viewBox="0 0 128 128" fill="none" xmlns="http://www.w3.org/2000/svg">
<g clip-path="url(#clip0_410014_76)">
<path fill-rule="evenodd" clip-rule="evenodd" d="M64.553 1C29.4093 1 1 29.646 1 65.0846C1 93.412 19.2027 117.391 44.455 125.878C47.6121 126.517 48.7688 124.499 48.7688 122.803C48.7688 121.318 48.6648 116.225 48.6648 110.919C30.9863 114.739 27.305 103.28 27.305 103.28C24.4642 95.8532 20.2544 93.9439 20.2544 93.9439C14.4677 90.0182 20.6757 90.0182 20.6757 90.0182C27.0938 90.4429 30.462 96.5965 30.462 96.5965C36.1427 106.357 45.2976 103.599 48.98 101.902C49.5053 97.7635 51.1904 94.8985 52.9786 93.3078C38.8784 91.8223 24.0429 86.3049 24.0429 61.6898C24.0429 54.6868 26.5665 48.958 30.5651 44.5024C29.9336 42.9117 27.7242 36.3314 31.1975 27.5264C31.1975 27.5264 36.564 25.8285 48.6627 34.1046C53.8425 32.7018 59.1855 31.9881 64.552 31.982C69.9185 31.982 75.388 32.7253 80.4393 34.1046C92.5401 25.8285 97.9055 27.5264 97.9055 27.5264C101.379 36.3324 99.1673 42.9117 98.5369 44.5024C102.642 48.958 105.061 54.6868 105.061 61.6898C105.061 86.3059 90.2256 91.7151 76.0204 93.3078C78.3359 95.3233 80.3342 99.1428 80.3342 105.19C80.3342 113.784 80.2301 120.681 80.2301 122.802C80.2301 124.5 81.3879 126.517 84.5439 125.881C109.796 117.391 127.999 93.413 127.999 65.0856C128.104 29.646 99.5906 1 64.553 1Z" fill="white"/>
</g>
<defs>
<clipPath id="clip0_410014_76">
<rect width="127" height="125" fill="white" transform="translate(1 1)"/>
</clipPath>
</defs>
</svg>
