<svg width="336" height="304" viewBox="0 0 336 304" fill="none" xmlns="http://www.w3.org/2000/svg">
<g clip-path="url(#clip0_410025_413)">
<path d="M138.174 116.09H277.44C280.508 116.09 282.998 118.581 282.998 121.649V205.861H132.615V121.649C132.615 118.581 135.106 116.09 138.174 116.09Z" fill="white"/>
<path d="M282.997 206.086H132.614C132.489 206.086 132.389 205.985 132.389 205.861V121.649C132.389 118.46 134.984 115.866 138.173 115.866H277.439C280.628 115.866 283.222 118.461 283.222 121.649V205.861C283.222 205.986 283.122 206.086 282.997 206.086ZM132.84 205.636H282.773V121.649C282.773 118.708 280.38 116.315 277.439 116.315H138.173C135.231 116.315 132.839 118.708 132.839 121.649V205.636H132.84Z" fill="black"/>
<path d="M277.861 200.945H137.751C137.626 200.945 137.526 200.844 137.526 200.72V121.787C137.526 121.356 137.876 121.006 138.307 121.006H277.305C277.736 121.006 278.086 121.356 278.086 121.787V200.72C278.086 200.845 277.986 200.945 277.862 200.945H277.861ZM137.977 200.496H277.637V121.787C277.637 121.604 277.488 121.456 277.306 121.456H138.308C138.126 121.456 137.978 121.605 137.978 121.787V200.496H137.977Z" fill="black"/>
<path d="M282.997 205.861V207.617C282.997 210.263 280.855 212.407 278.211 212.407H137.401C134.758 212.407 132.614 210.263 132.614 207.617V205.861H282.997Z" fill="white"/>
<path d="M278.211 212.632H137.401C134.637 212.632 132.389 210.382 132.389 207.617V205.861C132.389 205.736 132.489 205.636 132.614 205.636H282.997C283.122 205.636 283.222 205.738 283.222 205.861V207.617C283.222 210.382 280.974 212.632 278.211 212.632ZM132.84 206.086V207.617C132.84 210.134 134.886 212.182 137.401 212.182H278.211C280.726 212.182 282.772 210.134 282.772 207.617V206.086H132.839H132.84Z" fill="black"/>
<path d="M180.356 212.407H235.256V222.239C235.256 224.839 233.145 226.95 230.545 226.95H185.068C182.468 226.95 180.357 224.839 180.357 222.239V212.407H180.356Z" fill="white"/>
<path d="M230.545 227.175H185.067C182.346 227.175 180.132 224.961 180.132 222.239V212.407C180.132 212.283 180.232 212.182 180.356 212.182H235.256C235.381 212.182 235.481 212.284 235.481 212.407V222.239C235.481 224.961 233.267 227.175 230.545 227.175ZM180.581 212.632V222.239C180.581 224.713 182.594 226.726 185.067 226.726H230.545C233.019 226.726 235.032 224.713 235.032 222.239V212.632H180.582H180.581Z" fill="black"/>
<path d="M233.211 216.048H182.401C182.276 216.048 182.176 215.947 182.176 215.823C182.176 215.7 182.276 215.598 182.401 215.598H233.211C233.335 215.598 233.435 215.7 233.435 215.823C233.435 215.947 233.335 216.048 233.211 216.048Z" fill="black"/>
<path d="M256.66 172.572H204.323V189.445H256.66V172.572Z" fill="white"/>
<path d="M256.659 189.669H204.322C204.198 189.669 204.098 189.567 204.098 189.444V172.571C204.098 172.447 204.198 172.347 204.322 172.347H256.659C256.784 172.347 256.884 172.448 256.884 172.571V189.444C256.884 189.568 256.784 189.669 256.659 189.669ZM204.548 189.219H256.434V172.797H204.548V189.219Z" fill="black"/>
<path d="M234.747 167.182C236.459 167.182 237.848 165.793 237.848 164.079C237.848 162.365 236.459 160.975 234.747 160.975C233.034 160.975 231.645 162.365 231.645 164.079C231.645 165.793 233.034 167.182 234.747 167.182Z" fill="#C6D7DC"/>
<path d="M243.796 167.182C245.509 167.182 246.897 165.793 246.897 164.079C246.897 162.365 245.509 160.975 243.796 160.975C242.083 160.975 240.694 162.365 240.694 164.079C240.694 165.793 242.083 167.182 243.796 167.182Z" fill="#C6D7DC"/>
<path d="M252.846 167.182C254.559 167.182 255.947 165.793 255.947 164.079C255.947 162.365 254.559 160.975 252.846 160.975C251.133 160.975 249.744 162.365 249.744 164.079C249.744 165.793 251.133 167.182 252.846 167.182Z" fill="#C6D7DC"/>
<path d="M198.061 179.505H184.562C184.437 179.505 184.337 179.404 184.337 179.281V147.88H168.176C168.052 147.88 167.951 147.779 167.951 147.655C167.951 147.532 168.052 147.431 168.176 147.431H184.562C184.686 147.431 184.786 147.532 184.786 147.655V179.056H198.061C198.186 179.056 198.286 179.157 198.286 179.281C198.286 179.404 198.186 179.505 198.061 179.505Z" fill="black"/>
<path d="M168.177 150.663C169.836 150.663 171.182 149.316 171.182 147.655C171.182 145.994 169.836 144.648 168.177 144.648C166.518 144.648 165.173 145.994 165.173 147.655C165.173 149.316 166.518 150.663 168.177 150.663Z" fill="white"/>
<path d="M168.177 150.888C166.396 150.888 164.948 149.437 164.948 147.655C164.948 145.873 166.397 144.423 168.177 144.423C169.957 144.423 171.406 145.873 171.406 147.655C171.406 149.437 169.957 150.888 168.177 150.888ZM168.177 144.873C166.644 144.873 165.397 146.121 165.397 147.655C165.397 149.19 166.644 150.437 168.177 150.437C169.71 150.437 170.957 149.189 170.957 147.655C170.957 146.122 169.71 144.873 168.177 144.873Z" fill="black"/>
<path d="M196.273 182.224C197.932 182.224 199.278 180.877 199.278 179.216C199.278 177.555 197.932 176.209 196.273 176.209C194.614 176.209 193.269 177.555 193.269 179.216C193.269 180.877 194.614 182.224 196.273 182.224Z" fill="white"/>
<path d="M196.273 182.448C194.492 182.448 193.044 180.998 193.044 179.216C193.044 177.434 194.493 175.984 196.273 175.984C198.053 175.984 199.502 177.434 199.502 179.216C199.502 180.998 198.053 182.448 196.273 182.448ZM196.273 176.435C194.74 176.435 193.493 177.682 193.493 179.217C193.493 180.752 194.74 181.999 196.273 181.999C197.806 181.999 199.053 180.751 199.053 179.217C199.053 177.683 197.806 176.435 196.273 176.435Z" fill="black"/>
<path d="M308 91.3962H218.953V148.728H308V91.3962Z" fill="#C6D7DC"/>
<path d="M276.52 147.466C276.52 147.466 250.73 147.377 251.319 139.115C251.342 138.787 251.315 138.459 251.243 138.139C249.699 131.288 247.68 122.564 252.484 111.686C252.689 111.22 252.993 110.805 253.377 110.471L254.164 109.786C255.036 109.029 256.148 108.603 257.303 108.591C260.339 108.557 266.48 108.661 270.13 109.901C270.813 110.133 271.397 110.588 271.806 111.183C272.497 112.192 273.515 113.907 273.593 115.359C273.711 117.572 276.52 147.465 276.52 147.465V147.466Z" fill="#469A9A"/>
<path d="M303.706 151.608C303.591 144.074 299.765 134.457 296.393 127.41C293.325 120.998 287.495 116.344 280.562 114.799C272.411 112.982 262.791 112.756 255.377 111.349C240.115 108.451 234.255 117.497 234.255 117.497L226.126 107.407L215.042 116.298L226.978 144.708L257.898 145.102C257.898 145.102 274.017 156.718 283.6 162.845C293.183 168.972 303.911 165.143 303.706 151.608Z" fill="#469A9A"/>
<path d="M282.933 141.279C282.834 141.279 282.743 141.213 282.717 141.112C281.974 138.36 280.921 135.688 279.588 133.167C279.529 133.057 279.571 132.921 279.681 132.863C279.792 132.805 279.928 132.847 279.986 132.957C281.335 135.507 282.4 138.211 283.152 140.995C283.184 141.115 283.113 141.238 282.993 141.271C282.974 141.276 282.954 141.279 282.934 141.279H282.933Z" fill="white"/>
<path d="M293.341 147.692C293.299 147.692 293.257 147.68 293.219 147.655C286.225 143.085 278.793 139.086 271.128 135.767C271.013 135.718 270.961 135.586 271.01 135.471C271.059 135.358 271.191 135.305 271.306 135.354C278.995 138.682 286.45 142.694 293.465 147.278C293.569 147.345 293.599 147.485 293.53 147.589C293.487 147.655 293.415 147.691 293.342 147.691L293.341 147.692Z" fill="white"/>
<path d="M237.032 146.103C237.032 146.103 242.818 132.333 248.967 130.489C253.746 129.055 269.849 135.049 269.849 135.049C269.849 135.049 269.632 140.905 262.831 148.315C262.831 148.315 236.8 148.648 237.031 146.103H237.032Z" fill="white"/>
<path d="M242.818 143.948C242.787 143.948 242.754 143.941 242.722 143.927C242.61 143.874 242.562 143.74 242.615 143.628C243.857 140.99 245.698 138.608 247.939 136.743C248.034 136.663 248.176 136.676 248.255 136.771C248.335 136.866 248.322 137.008 248.227 137.088C246.036 138.912 244.237 141.239 243.023 143.819C242.985 143.9 242.903 143.947 242.819 143.947L242.818 143.948Z" fill="black"/>
<path d="M248.044 145.244C248.015 145.244 247.988 145.239 247.96 145.228C247.845 145.182 247.79 145.05 247.836 144.936C248.744 142.681 250.113 140.561 251.793 138.804C251.879 138.715 252.021 138.712 252.11 138.797C252.2 138.883 252.203 139.025 252.118 139.115C250.476 140.831 249.141 142.902 248.253 145.104C248.218 145.192 248.134 145.245 248.045 145.245L248.044 145.244Z" fill="black"/>
<path d="M197.51 101.814C197.51 101.814 196.657 100.907 196.927 100.076C197.196 99.2443 198.002 99.1249 199.299 99.7356C199.299 99.7356 198.565 98.5877 199.889 98.2895C201.214 97.9913 202.983 99.7856 205.835 100.376C208.686 100.967 209.688 101.158 209.688 101.158C209.688 101.158 209.092 99.9766 207.436 98.9513C205.78 97.9259 206.003 96.5064 206.783 95.9775C207.448 95.5271 208.652 96.0234 209.688 96.8261C211.049 97.881 214.447 98.7491 217.196 99.9898C219.287 100.933 222.871 104.461 226.127 107.989C224.806 110.568 221.935 114.12 215.771 116.296C215.018 114.895 214.388 113.626 213.911 112.586C213.911 112.586 212.605 111.438 209.358 110.986C206.111 110.534 201.836 110.204 199.359 108.206C196.883 106.207 196.635 104.662 197.398 103.732C197.398 103.732 196.507 102.755 197.511 101.812L197.51 101.814Z" fill="white"/>
<path d="M215.77 116.522C215.691 116.522 215.613 116.48 215.572 116.404C214.886 115.128 214.249 113.859 213.727 112.73C213.504 112.557 212.174 111.607 209.325 111.211C208.942 111.158 208.544 111.106 208.137 111.053C205.002 110.645 201.45 110.185 199.216 108.382C197.718 107.174 196.906 106.042 196.801 105.016C196.753 104.549 196.861 104.11 197.113 103.738C196.814 103.311 196.568 102.534 197.207 101.803C196.956 101.48 196.476 100.735 196.712 100.006C196.835 99.6283 197.056 99.3679 197.371 99.2321C197.755 99.0656 198.267 99.0973 198.898 99.325C198.859 99.1361 198.854 98.9186 198.939 98.7102C199.071 98.3906 199.373 98.1751 199.839 98.071C200.602 97.8984 201.434 98.3181 202.487 98.8481C203.445 99.3301 204.531 99.8775 205.88 100.156C207.596 100.512 208.646 100.724 209.208 100.835C208.894 100.416 208.296 99.7488 207.318 99.1432C206.161 98.4263 205.974 97.5971 205.964 97.1672C205.953 96.6086 206.212 96.0949 206.657 95.7926C207.345 95.3259 208.53 95.6466 209.825 96.6504C210.618 97.2652 212.196 97.8391 213.865 98.4457C215.008 98.8614 216.19 99.2913 217.288 99.7866C219.077 100.594 222.106 103.304 226.292 107.839C226.376 107.93 226.371 108.073 226.279 108.157C226.188 108.24 226.046 108.235 225.961 108.144C221.875 103.717 218.811 100.969 217.102 100.197C216.02 99.709 214.846 99.2811 213.71 98.8685C211.933 98.2221 210.399 97.6635 209.549 97.0058C208.466 96.1664 207.405 95.8283 206.908 96.1653C206.589 96.3808 206.405 96.7526 206.413 97.158C206.425 97.7442 206.829 98.313 207.553 98.7613C209.244 99.8091 209.862 101.008 209.888 101.058C209.927 101.135 209.919 101.227 209.867 101.295C209.814 101.363 209.729 101.396 209.645 101.381C209.635 101.379 208.608 101.183 205.788 100.597C204.381 100.305 203.218 99.7202 202.284 99.2505C201.311 98.7613 200.543 98.3743 199.937 98.5101C199.624 98.5805 199.428 98.7062 199.355 98.8818C199.226 99.1933 199.485 99.612 199.488 99.6161C199.542 99.7008 199.534 99.8101 199.467 99.8857C199.401 99.9612 199.293 99.9827 199.203 99.9408C198.473 99.5967 197.901 99.4945 197.551 99.6467C197.357 99.7304 197.223 99.8938 197.141 100.147C196.916 100.841 197.667 101.654 197.674 101.662C197.759 101.752 197.755 101.894 197.664 101.979C196.832 102.762 197.533 103.551 197.564 103.584C197.639 103.666 197.642 103.792 197.572 103.878C197.316 104.19 197.206 104.559 197.249 104.972C197.313 105.592 197.755 106.626 199.5 108.034C201.634 109.756 205.121 110.209 208.197 110.609C208.605 110.662 209.005 110.714 209.39 110.767C212.666 111.222 214.005 112.371 214.06 112.42C214.083 112.441 214.103 112.466 214.116 112.495C214.638 113.627 215.279 114.906 215.97 116.192C216.03 116.301 215.988 116.438 215.878 116.496C215.845 116.514 215.808 116.522 215.772 116.522H215.77Z" fill="black"/>
<path d="M206.313 106.679C204.431 106.679 202.548 106.169 200.928 105.208C200.732 105.092 200.539 104.968 200.346 104.846C200.023 104.639 199.689 104.426 199.346 104.253C198.737 103.946 198.176 103.815 197.678 103.863C197.557 103.876 197.444 103.785 197.433 103.661C197.421 103.538 197.512 103.427 197.635 103.415C198.217 103.358 198.863 103.505 199.549 103.851C199.912 104.034 200.256 104.253 200.588 104.466C200.776 104.586 200.964 104.707 201.156 104.82C202.965 105.892 205.113 106.378 207.205 106.188C207.33 106.178 207.438 106.267 207.449 106.391C207.46 106.514 207.37 106.624 207.246 106.635C206.936 106.664 206.623 106.677 206.312 106.677L206.313 106.679Z" fill="black"/>
<path d="M207.483 104.725C207.477 104.725 207.47 104.725 207.464 104.725C205.562 104.563 203.729 104.055 202.014 103.217C201.793 103.109 201.574 102.995 201.356 102.881C200.889 102.639 200.406 102.388 199.913 102.202C199.099 101.895 198.367 101.816 197.735 101.966C197.613 101.993 197.493 101.92 197.465 101.799C197.436 101.679 197.511 101.557 197.631 101.529C198.352 101.358 199.172 101.443 200.071 101.782C200.59 101.978 201.084 102.234 201.563 102.483C201.778 102.595 201.994 102.706 202.212 102.814C203.877 103.627 205.656 104.121 207.501 104.278C207.625 104.288 207.717 104.397 207.707 104.521C207.696 104.638 207.598 104.726 207.483 104.726V104.725Z" fill="black"/>
<path d="M207.806 103.377C207.793 103.377 207.781 103.377 207.769 103.374C204.831 102.895 201.959 101.785 199.461 100.164C199.357 100.097 199.327 99.9572 199.395 99.853C199.462 99.7488 199.601 99.7192 199.706 99.7866C202.151 101.375 204.965 102.461 207.841 102.93C207.964 102.95 208.047 103.066 208.027 103.188C208.009 103.299 207.914 103.377 207.806 103.377Z" fill="black"/>
<path d="M239.282 125.195C239.209 125.195 239.139 125.16 239.095 125.096C238.567 124.315 238.058 123.502 237.566 122.715C236.665 121.275 235.733 119.785 234.606 118.359C234.529 118.262 234.545 118.12 234.642 118.043C234.74 117.966 234.881 117.983 234.958 118.08C236.102 119.526 237.039 121.026 237.947 122.476C238.437 123.259 238.944 124.069 239.467 124.843C239.536 124.946 239.51 125.086 239.406 125.156C239.368 125.181 239.324 125.195 239.281 125.195H239.282Z" fill="white"/>
<path d="M210.17 148.949H259.994V147.447C259.994 146.126 258.924 145.055 257.605 145.055H206.667L207.076 146.576C207.452 147.976 208.721 148.949 210.17 148.949Z" fill="black"/>
<path d="M208.749 147.186H238.809C240.093 147.186 241.035 145.98 240.727 144.733L235.046 121.795C234.827 120.913 234.036 120.294 233.128 120.294H203.068C201.785 120.294 200.842 121.5 201.15 122.747L206.831 145.684C207.05 146.567 207.841 147.186 208.749 147.186Z" fill="black"/>
<path d="M266.139 99.9653L267.686 111.24L258.108 116.397L256.565 103.296L266.139 99.9653Z" fill="white"/>
<path d="M267.379 109.225C267.268 109.225 267.171 109.143 267.156 109.031L265.953 100.269L256.809 103.449L257.384 108.329C257.398 108.453 257.311 108.564 257.187 108.578C257.061 108.594 256.952 108.505 256.938 108.381L256.341 103.322C256.329 103.217 256.391 103.118 256.49 103.083L266.064 99.7529C266.128 99.7304 266.198 99.7386 266.255 99.7733C266.313 99.8091 266.351 99.8673 266.361 99.9347L267.6 108.968C267.618 109.091 267.531 109.204 267.408 109.222C267.398 109.223 267.388 109.224 267.378 109.224L267.379 109.225Z" fill="black"/>
<path d="M255.392 118.085C255.312 118.085 255.234 118.042 255.194 117.966C255.134 117.857 255.176 117.72 255.285 117.662L267.581 111.042C267.69 110.982 267.827 111.023 267.885 111.132C267.944 111.242 267.903 111.379 267.793 111.437L255.498 118.057C255.464 118.076 255.427 118.084 255.392 118.084V118.085Z" fill="white"/>
<path d="M253.538 88.2325C255.22 85.8898 258.046 84.5755 260.892 84.119C262.947 83.7902 265.172 83.8913 266.938 84.9932C268.704 86.0951 269.822 88.4 269.074 90.3434C270.596 89.6551 272.604 90.3954 273.315 91.9079C274.026 93.4203 273.315 95.4413 271.816 96.1756C272.525 97.8626 271.874 99.8949 270.614 101.221C268.376 103.576 264.606 103.907 261.544 102.823C258.502 101.745 255.04 99.2413 253.156 96.5861C251.513 94.271 251.959 90.4292 253.537 88.2325H253.538Z" fill="black"/>
<path d="M256.331 93.7144C257.454 93.3825 258.473 92.7657 259.589 92.4144C260.705 92.0631 262.029 92.0233 262.94 92.7565C263.58 93.2722 263.913 94.0943 264.006 94.9113C264.099 95.7283 263.978 96.5524 263.859 97.3663C264.866 97.689 264.739 97.4511 265.43 96.8486C265.906 96.4339 266.549 96.2215 267.174 96.3808C268.084 96.6127 268.74 97.5287 268.772 98.4692C268.803 99.4088 268.269 100.322 267.492 100.851C266.715 101.38 265.726 101.548 264.795 101.426C263.839 103.938 262.921 107.136 260.093 107.024C258.47 106.96 255.299 107.076 254.034 106.054C252.118 104.502 253.035 95.1615 253.001 93.26C253.874 94.0402 255.207 94.0473 256.329 93.7154L256.331 93.7144Z" fill="white"/>
<path d="M260.242 107.251C260.19 107.251 260.139 107.25 260.086 107.248C259.84 107.238 259.558 107.232 259.253 107.226C257.469 107.19 255.026 107.142 253.896 106.227C252.395 105.013 252.501 99.8652 252.717 95.1349C252.755 94.2955 252.785 93.6327 252.779 93.263C252.777 93.1732 252.829 93.0915 252.91 93.0547C252.992 93.0179 253.087 93.0312 253.153 93.0915C253.854 93.7165 255.018 93.8686 256.268 93.4989C256.834 93.3315 257.389 93.0823 257.925 92.8423C258.439 92.6125 258.97 92.3736 259.522 92.1999C260.932 91.7567 262.23 91.8956 263.082 92.5809C263.712 93.0874 264.119 93.9054 264.23 94.8858C264.32 95.6721 264.221 96.4513 264.11 97.209C264.596 97.3551 264.644 97.3061 264.92 97.0262C265.013 96.9313 265.129 96.8138 265.284 96.679C265.847 96.1888 266.574 95.9958 267.231 96.1633C268.218 96.4156 268.962 97.3816 268.998 98.4621C269.031 99.4343 268.491 100.444 267.621 101.037C266.881 101.54 265.939 101.762 264.945 101.669C264.885 101.83 264.825 101.992 264.763 102.158C263.878 104.549 262.876 107.253 260.242 107.253V107.251ZM253.225 93.7001C253.215 94.079 253.192 94.5753 253.165 95.1554C253.023 98.2548 252.729 104.705 254.178 105.878C255.189 106.696 257.64 106.745 259.262 106.777C259.57 106.783 259.855 106.788 260.105 106.798C262.52 106.891 263.451 104.406 264.342 102C264.424 101.778 264.505 101.558 264.587 101.344C264.623 101.246 264.725 101.188 264.826 101.201C265.759 101.325 266.685 101.127 267.368 100.664C268.113 100.156 268.577 99.2974 268.549 98.4764C268.519 97.6063 267.905 96.7985 267.119 96.5984C266.606 96.4666 266.031 96.6249 265.578 97.0181C265.436 97.1416 265.332 97.2479 265.239 97.3418C264.82 97.7687 264.621 97.8473 263.79 97.5808C263.685 97.5471 263.621 97.4429 263.636 97.3336C263.752 96.5452 263.873 95.7313 263.782 94.9368C263.684 94.0759 263.335 93.3631 262.799 92.9322C261.757 92.0937 260.254 92.441 259.655 92.6299C259.128 92.7953 258.61 93.0282 258.108 93.2528C257.558 93.4989 256.989 93.7542 256.394 93.9309C255.189 94.2873 254.041 94.1975 253.224 93.7011L253.225 93.7001Z" fill="black"/>
<path d="M264.952 100.236C264.916 100.236 264.879 100.227 264.844 100.208C264.736 100.148 264.696 100.011 264.756 99.903C265.156 99.18 265.826 98.5969 266.597 98.3028C266.713 98.2589 266.844 98.3161 266.888 98.4325C266.931 98.5489 266.873 98.6786 266.758 98.7225C266.085 98.9798 265.499 99.4894 265.15 100.121C265.11 100.195 265.033 100.237 264.953 100.237L264.952 100.236Z" fill="black"/>
<path d="M258.805 100.592C258.773 100.592 258.742 100.592 258.711 100.59C257.504 100.534 256.571 99.3955 256.633 98.0516C256.663 97.4051 256.916 96.8067 257.345 96.3665C257.781 95.9192 258.346 95.6884 258.936 95.715C259.527 95.7426 260.068 96.0244 260.461 96.5105C260.847 96.9885 261.044 97.6073 261.013 98.2538C260.984 98.9002 260.731 99.4976 260.302 99.9388C259.889 100.363 259.36 100.592 258.805 100.592ZM257.083 98.072C257.032 99.1688 257.772 100.096 258.731 100.141C259.193 100.161 259.635 99.9786 259.979 99.6253C260.331 99.2637 260.539 98.7695 260.563 98.2333C260.588 97.6972 260.427 97.1856 260.11 96.7934C259.799 96.4094 259.374 96.1858 258.915 96.1643C258.452 96.1429 258.012 96.3257 257.667 96.6801C257.315 97.0416 257.107 97.5358 257.083 98.072Z" fill="black"/>
<path d="M253.178 100.332C253.147 100.332 253.116 100.332 253.086 100.33C252.495 100.302 251.954 100.02 251.561 99.5344C251.175 99.0564 250.978 98.4376 251.009 97.7911C251.038 97.1447 251.291 96.5473 251.72 96.1061C252.156 95.6588 252.723 95.4291 253.311 95.4546C254.518 95.5108 255.451 96.6494 255.389 97.9933C255.327 99.3026 254.345 100.331 253.178 100.332ZM253.218 95.9029C252.784 95.9029 252.369 96.0847 252.042 96.4207C251.69 96.7822 251.482 97.2764 251.458 97.8126C251.433 98.3487 251.594 98.8604 251.911 99.2525C252.222 99.6365 252.647 99.8601 253.106 99.8816C254.069 99.9245 254.888 99.0707 254.939 97.9739C254.99 96.8782 254.25 95.9499 253.291 95.9049C253.266 95.9039 253.243 95.9029 253.218 95.9029Z" fill="black"/>
<path d="M256.858 98.2864C256.805 98.2864 256.753 98.2681 256.71 98.2303C256.678 98.2027 255.942 97.5746 255.315 98.1486C255.224 98.2323 255.081 98.2262 254.997 98.1343C254.914 98.0424 254.92 97.9004 255.012 97.8167C255.753 97.1376 256.642 97.5695 257.007 97.8922C257.1 97.975 257.109 98.1169 257.027 98.2098C256.983 98.2599 256.92 98.2854 256.858 98.2854V98.2864Z" fill="black"/>
<path d="M260.789 98.4692C260.686 98.4692 260.593 98.3978 260.569 98.2936C260.542 98.1721 260.618 98.0526 260.74 98.025L264.903 97.0906C265.024 97.063 265.145 97.1396 265.172 97.2611C265.199 97.3827 265.123 97.5022 265.001 97.5297L260.838 98.4641C260.821 98.4682 260.805 98.4692 260.789 98.4692Z" fill="black"/>
<path d="M83.4463 138.939C83.4463 138.939 56.0244 128.324 38.6942 144.97C21.3641 161.616 19.9783 237.386 78.5771 240.836C100.204 242.109 165.232 240.836 165.232 240.836L83.4463 138.94V138.939Z" fill="white"/>
<path d="M110.598 241.622C97.7516 241.622 85.7328 241.481 78.5648 241.06C66.7288 240.363 56.6371 236.675 48.5684 230.101C41.52 224.357 36.1432 216.555 32.5883 206.912C28.5341 195.915 27.1003 183.017 28.5525 170.594C29.8872 159.171 33.6208 149.53 38.539 144.806C47.5503 136.151 59.3086 134.961 67.5836 135.487C76.5367 136.055 83.4585 138.701 83.528 138.728C83.5647 138.742 83.5974 138.766 83.6219 138.797L165.408 240.693C165.461 240.759 165.472 240.851 165.436 240.929C165.399 241.006 165.323 241.057 165.237 241.059C164.805 241.067 136.082 241.62 110.598 241.62V241.622ZM64.2902 135.832C56.4686 135.832 46.6179 137.67 38.8495 145.131C34.0038 149.785 30.3212 159.324 28.9977 170.646C27.5537 183 28.9783 195.825 33.0091 206.756C38.3685 221.291 50.6262 238.964 78.5893 240.61C99.0087 241.812 158.912 240.729 164.769 240.618L83.3084 139.127C82.6354 138.876 76.0036 136.471 67.5407 135.935C66.5083 135.87 65.4186 135.831 64.2891 135.831L64.2902 135.832Z" fill="black"/>
<path d="M54.2423 183.669C54.1933 183.669 54.1443 183.653 54.1024 183.62C49.7152 180.132 46.9906 174.482 46.9906 168.874C46.9906 168.75 47.0907 168.65 47.2153 168.65C47.3399 168.65 47.4399 168.751 47.4399 168.874C47.4399 174.349 50.1002 179.865 54.3812 183.269C54.4782 183.346 54.4945 183.487 54.4169 183.584C54.372 183.64 54.3066 183.669 54.2403 183.669H54.2423Z" fill="black"/>
<path d="M80.3857 118.534L89.5164 119.024L93.0315 120.805L90.8359 124.844L86.1188 121.28L82.9786 124.963L74.9467 119.698L80.3857 118.534Z" fill="white"/>
<path d="M100.721 98.4641C99.9421 94.898 96.5925 92.2214 92.8896 91.2604C89.1866 90.2995 85.0231 93.3407 81.5479 95.0175C72.1097 99.5732 71.2672 107.11 58.844 109.249C53.743 110.128 51.3524 113.025 50.4527 116.607C47.6371 127.819 56.3666 135.72 58.4672 136.752C63.8777 139.407 70.8107 138.03 75.8525 134.635C80.8943 131.24 84.3603 126.147 87.2718 120.984C89.6268 116.807 91.5599 111.017 95.2588 107.727C98.2428 105.072 101.711 102.997 100.72 98.4652L100.721 98.4641Z" fill="black"/>
<path d="M84.2 108.371L80.2162 118.528L89.7401 118.895L92.0225 112.358L84.2 108.371Z" fill="white"/>
<path d="M89.7401 119.12C89.7156 119.12 89.6901 119.116 89.6655 119.108C89.5481 119.067 89.4868 118.939 89.5277 118.822L91.7458 112.47L84.3194 108.685L80.4255 118.611C80.3806 118.726 80.2499 118.783 80.1345 118.738C80.0191 118.694 79.9619 118.563 80.0078 118.447L83.9916 108.29C84.0151 108.231 84.0621 108.185 84.1213 108.163C84.1806 108.14 84.2469 108.144 84.3031 108.173L92.1246 112.16C92.2247 112.211 92.2717 112.328 92.2349 112.434L89.9525 118.971C89.9198 119.064 89.833 119.122 89.7401 119.122V119.12Z" fill="black"/>
<path d="M98.0866 107.379C97.9079 109.249 97.386 111.123 96.3025 112.657C95.219 114.191 93.5248 115.351 91.6549 115.517C90.0343 115.661 88.3993 115.051 87.1258 114.036C85.8523 113.022 84.9189 111.629 84.2562 110.141C82.5579 110.251 80.8606 109.078 80.3622 107.449C80.0753 106.509 80.1937 105.402 80.8535 104.674C81.5121 103.946 82.758 103.752 83.4974 104.398C83.9192 104.767 84.1316 105.335 84.5676 105.685C85.0537 106.076 85.7523 106.125 86.3456 105.932C86.9389 105.739 87.4403 105.334 87.8754 104.887C89.2459 103.478 90.0792 101.559 90.1742 99.5957C90.165 99.7815 91.0146 100.306 91.1637 100.409C91.5385 100.667 91.9358 100.892 92.3483 101.082C93.1633 101.456 94.0395 101.695 94.932 101.789C95.3844 101.837 95.8409 101.847 96.2944 101.818C96.6548 101.794 97.1675 101.605 97.5178 101.7C98.249 101.9 98.0886 103.292 98.1193 103.857C98.1816 105.03 98.1979 106.208 98.0866 107.378V107.379Z" fill="white"/>
<path d="M91.1872 115.762C89.7452 115.762 88.2389 115.21 86.9859 114.211C85.8237 113.285 84.8587 111.994 84.1142 110.372C82.3781 110.4 80.6574 109.179 80.1478 107.514C79.8108 106.41 80.0171 105.263 80.687 104.522C81.4621 103.665 82.8448 103.528 83.6455 104.228C83.8691 104.424 84.0345 104.662 84.1939 104.893C84.3552 105.127 84.5074 105.347 84.7085 105.509C85.1017 105.824 85.7012 105.904 86.2761 105.717C86.752 105.562 87.2095 105.247 87.715 104.728C89.0436 103.363 89.8586 101.488 89.9505 99.5844C89.9566 99.4598 90.072 99.3659 90.1864 99.37C90.2936 99.3751 90.3794 99.4547 90.3968 99.5558C90.4437 99.6253 90.6245 99.7846 91.1882 100.154C91.2342 100.185 91.2709 100.208 91.2924 100.224C91.6518 100.472 92.0389 100.691 92.4433 100.877C93.2368 101.243 94.0824 101.474 94.9565 101.566C95.3987 101.613 95.845 101.622 96.2811 101.593C96.3924 101.586 96.5292 101.559 96.6732 101.531C96.9663 101.474 97.2992 101.408 97.577 101.484C98.348 101.693 98.3429 102.78 98.3398 103.499C98.3398 103.632 98.3388 103.751 98.3439 103.845C98.4185 105.247 98.4083 106.377 98.3102 107.4C98.105 109.551 97.4912 111.362 96.4853 112.786C95.2935 114.474 93.4952 115.578 91.6743 115.74C91.513 115.754 91.3506 115.762 91.1862 115.762H91.1872ZM84.2561 109.916C84.344 109.916 84.4257 109.968 84.4614 110.05C85.1834 111.672 86.127 112.953 87.2657 113.86C88.5718 114.901 90.166 115.423 91.6345 115.292C93.3246 115.142 95.0015 114.107 96.1177 112.526C97.0776 111.168 97.6638 109.429 97.8619 107.357C97.9579 106.356 97.9681 105.247 97.8936 103.868C97.8885 103.766 97.8885 103.639 97.8895 103.496C97.8915 102.949 97.8956 102.035 97.4585 101.917C97.2819 101.869 97.0041 101.923 96.759 101.972C96.5997 102.004 96.4496 102.033 96.3086 102.041C95.847 102.071 95.3752 102.061 94.9075 102.012C93.9853 101.915 93.0918 101.67 92.2533 101.285C91.8255 101.088 91.4159 100.855 91.035 100.592C91.0146 100.579 90.9819 100.557 90.9401 100.529C90.6929 100.368 90.5019 100.235 90.3559 100.124C90.1486 101.955 89.3184 103.722 88.0357 105.042C87.4771 105.616 86.9624 105.966 86.414 106.145C85.6981 106.379 84.9353 106.269 84.4257 105.86C84.1734 105.658 83.9947 105.399 83.8221 105.149C83.671 104.932 83.529 104.725 83.3473 104.567C82.7345 104.032 81.6255 104.153 81.0189 104.824C80.4633 105.439 80.2897 106.444 80.5767 107.382C81.0424 108.906 82.6477 110.02 84.2408 109.916C84.2459 109.916 84.25 109.916 84.2551 109.916H84.2561Z" fill="black"/>
<path d="M82.468 106.523C83.3401 106.724 84.056 107.488 84.2 108.372L82.468 106.523Z" fill="white"/>
<path d="M84.2 108.596C84.0917 108.596 83.9968 108.517 83.9784 108.407C83.8477 107.607 83.2063 106.923 82.418 106.74C82.2975 106.713 82.2219 106.591 82.2495 106.471C82.278 106.35 82.3986 106.274 82.5191 106.302C83.481 106.524 84.2633 107.36 84.4226 108.334C84.443 108.457 84.3593 108.572 84.2368 108.593C84.2245 108.595 84.2122 108.596 84.2 108.596Z" fill="black"/>
<path d="M112.955 158.511C112.955 158.511 106.458 121.012 99.1956 121.361L102.891 160.299L112.955 158.511Z" fill="white"/>
<path d="M102.89 160.525C102.841 160.525 102.793 160.509 102.755 160.479C102.705 160.441 102.673 160.384 102.667 160.322L98.972 121.383C98.9659 121.322 98.9853 121.262 99.0261 121.215C99.066 121.169 99.1242 121.14 99.1854 121.137C106.562 120.795 112.91 156.935 113.176 158.474C113.198 158.596 113.116 158.712 112.994 158.734L102.931 160.522C102.918 160.524 102.905 160.525 102.892 160.525H102.89ZM99.4428 121.589L103.092 160.036L112.694 158.329C112.432 156.859 110.868 148.291 108.581 139.861C105.389 128.102 102.236 121.801 99.4428 121.589Z" fill="black"/>
<path d="M58.0782 166.917L71.494 120.15C71.494 120.15 80.9914 119.957 89.3286 120.347C93.2399 120.53 96.8949 120.841 99.1947 121.362C99.1947 121.362 103.584 152.925 103.954 160.111L58.0771 166.917H58.0782Z" fill="white"/>
<path d="M140.968 158.511L86.655 160.299V156.835C86.655 155.362 87.8478 154.168 89.3204 154.168H140.968V158.511Z" fill="black"/>
<path d="M143.807 156.545H110.283C108.851 156.545 107.799 155.2 108.145 153.809L114.48 128.228C114.724 127.244 115.607 126.553 116.619 126.553H150.142C151.574 126.553 152.626 127.898 152.281 129.289L145.945 154.87C145.701 155.854 144.819 156.545 143.807 156.545Z" fill="black"/>
<path d="M57.5583 166.413C57.493 166.413 57.4297 166.385 57.3868 166.334C57.3378 166.275 57.3214 166.196 57.3429 166.123L71.2785 120.083C71.3071 119.991 71.3918 119.926 71.4889 119.924C71.5215 119.924 74.8334 119.85 79.4513 119.883C79.5759 119.883 79.676 119.985 79.675 120.11C79.675 120.234 79.5739 120.334 79.4503 120.334H79.4483C75.4144 120.305 72.3804 120.357 71.6614 120.371L57.8739 165.921L103.718 159.915C103.298 152.712 99.3223 123.923 98.9935 121.546C98.6656 121.47 98.3858 121.404 98.1336 121.343C96.7233 121.004 96.1953 120.877 92.9744 120.726C92.9437 120.725 92.9131 120.717 92.8855 120.702L89.6391 119.096C89.5277 119.041 89.4818 118.906 89.5369 118.795C89.5921 118.683 89.7269 118.637 89.8382 118.693L93.0418 120.278C96.2637 120.431 96.8448 120.57 98.2378 120.904C98.5268 120.974 98.8515 121.052 99.2437 121.14C99.3345 121.161 99.404 121.236 99.4162 121.328C99.4602 121.644 103.811 152.983 104.177 160.097C104.183 160.214 104.099 160.317 103.982 160.332L57.5859 166.41C57.5767 166.411 57.5665 166.412 57.5563 166.412L57.5583 166.413Z" fill="black"/>
<path d="M93.6187 150.007L87.1523 124.003L87.6282 122.352L85.9738 120.502L84.7484 122.659L85.9932 124.211L88.6035 150.7L91.9327 154.42L93.6187 150.007Z" fill="#469A9A"/>
<path d="M93.1541 120.641L90.7624 125.068L86.0014 120.677L82.8867 125.174L75.6942 120.102L80.2989 118.528L89.7851 118.845L93.1541 120.641Z" fill="white"/>
<path d="M82.8958 125.293C82.8529 125.293 82.809 125.28 82.7712 125.255L75.4317 120.336C75.3613 120.289 75.3235 120.205 75.3337 120.12C75.3449 120.035 75.4021 119.965 75.4828 119.936L80.1426 118.315C80.1896 118.298 80.2417 118.298 80.2897 118.315L85.9656 120.261L89.6523 118.688C89.7125 118.663 89.7809 118.665 89.8402 118.694L93.2551 120.377C93.3103 120.403 93.3511 120.452 93.3695 120.51C93.3879 120.569 93.3818 120.632 93.3532 120.686L90.9706 125.07C90.938 125.129 90.8818 125.171 90.8154 125.183C90.7501 125.197 90.6806 125.178 90.6296 125.135L87.668 122.671C87.572 122.592 87.5598 122.45 87.6394 122.355C87.7181 122.26 87.861 122.246 87.956 122.326L90.7062 124.616L92.8456 120.678L89.7329 119.144L86.0616 120.71C86.0106 120.732 85.9534 120.734 85.9003 120.717L80.2161 118.768L76.0557 120.216L82.8468 124.768L84.4328 122.731C84.5094 122.633 84.6503 122.616 84.7483 122.693C84.8464 122.769 84.8637 122.91 84.7871 123.008L83.0725 125.21C83.0286 125.266 82.9622 125.297 82.8948 125.297L82.8958 125.293Z" fill="black"/>
<path d="M169.334 178.266C169.334 178.266 184.461 211.858 185.379 212.771C185.98 213.369 189.665 216.138 192.135 217.978C193.01 218.629 192.704 220.01 191.636 220.231L156.997 227.405L148.184 187.968L169.333 178.266H169.334Z" fill="white"/>
<path d="M156.997 227.629C156.894 227.629 156.801 227.558 156.777 227.454L147.964 188.017C147.941 187.914 147.994 187.808 148.09 187.764L169.239 178.061C169.293 178.036 169.356 178.034 169.412 178.055C169.468 178.077 169.513 178.119 169.537 178.174C175.598 191.633 184.861 211.912 185.536 212.611C185.983 213.056 188.374 214.898 192.269 217.797C192.746 218.153 192.962 218.734 192.834 219.314C192.705 219.895 192.264 220.33 191.682 220.45L157.043 227.624C157.028 227.627 157.012 227.629 156.997 227.629ZM148.443 188.097L157.168 227.14L191.591 220.011C191.997 219.927 192.306 219.623 192.396 219.218C192.485 218.812 192.334 218.407 192.001 218.159C189.235 216.098 185.812 213.518 185.22 212.931C184.316 212.031 171.155 182.858 169.222 178.566L148.443 188.098V188.097Z" fill="black"/>
<path d="M156.511 220.32C156.413 220.32 156.322 220.254 156.294 220.155C156.261 220.036 156.331 219.911 156.451 219.878L182.164 212.721C182.283 212.688 182.407 212.757 182.441 212.877C182.474 212.996 182.404 213.121 182.284 213.154L156.571 220.311C156.551 220.316 156.53 220.32 156.511 220.32Z" fill="black"/>
<path d="M125.24 213.939L129.779 241.062C130.179 243.447 132.241 245.196 134.659 245.196H168.022C169.149 245.196 169.715 243.833 168.921 243.033L161.163 235.229L154.608 202.17L125.24 213.939Z" fill="white"/>
<path d="M168.023 245.42H134.66C132.123 245.42 129.977 243.602 129.559 241.098L125.019 213.976C125.002 213.872 125.059 213.769 125.157 213.73L154.526 201.961C154.588 201.937 154.657 201.94 154.716 201.972C154.776 202.004 154.817 202.06 154.83 202.126L161.372 235.119L169.082 242.874C169.515 243.31 169.638 243.933 169.402 244.501C169.166 245.068 168.638 245.42 168.024 245.42H168.023ZM125.492 214.08L130.002 241.024C130.385 243.31 132.344 244.97 134.66 244.97H168.023C168.536 244.97 168.856 244.638 168.985 244.327C169.115 244.017 169.124 243.554 168.761 243.191L161.003 235.388C160.971 235.356 160.951 235.316 160.942 235.273L154.44 202.48L125.491 214.081L125.492 214.08Z" fill="black"/>
<path d="M130.563 238.281C130.44 238.281 130.339 238.182 130.338 238.059C130.336 237.935 130.436 237.834 130.559 237.832C139.876 237.717 149.246 236.8 158.407 235.105C158.529 235.082 158.646 235.163 158.67 235.285C158.692 235.407 158.611 235.524 158.489 235.547C149.303 237.246 139.908 238.166 130.566 238.282H130.563V238.281Z" fill="black"/>
<path d="M62.3867 166.864C62.3867 166.864 61.7259 185.176 77.9818 190.387C94.2376 195.598 120.872 188.693 120.872 188.693L125.355 216.722L185.5 200.452C185.5 200.452 170.522 175.995 159.298 159.968C153.443 151.609 143.072 147.69 133.157 150.091C111.156 155.42 65.6689 165.195 62.3867 166.865V166.864Z" fill="#469A9A"/>
<path d="M162.412 206.921C162.309 206.921 162.216 206.85 162.193 206.745C162.109 206.372 153.676 169.3 143.268 164.338C131.154 158.562 113.71 174.619 108.652 179.677C99.5582 188.772 95.0515 191.487 95.0066 191.514C94.9004 191.577 94.7615 191.542 94.6992 191.435C94.6359 191.329 94.6706 191.19 94.7778 191.127C94.8217 191.1 99.2916 188.403 108.335 179.358C111.561 176.131 118.053 170.143 125.28 166.285C132.517 162.421 138.634 161.63 143.462 163.931C147.925 166.059 152.51 173.902 157.087 187.241C160.485 197.145 162.611 206.551 162.632 206.645C162.66 206.767 162.583 206.886 162.461 206.914C162.445 206.918 162.429 206.919 162.412 206.919V206.921Z" fill="black"/>
<path d="M83.4871 146.783C75.1305 149.887 63.2189 157.341 63.2189 157.341C63.2189 157.341 74.2165 127.442 71.4949 120.149C71.4949 120.149 57.0896 124.478 50.4261 146.031C44.936 163.79 50.7171 171.887 56.8669 174.258C58.1802 174.765 59.5109 175.01 60.7527 175.032C66.0988 175.128 77.5559 164.444 83.9978 159.277C86.0514 157.63 87.5955 156.543 88.2695 156.544L97.9599 154.167C97.9599 154.167 91.8428 143.679 83.4871 146.781V146.783Z" fill="white"/>
<path d="M60.577 175.071C57.2754 175.071 55.3085 173.792 55.2054 173.723C51.7353 171.783 44.2712 165.176 50.2116 145.964C53.6695 134.779 59.2443 128.301 63.3129 124.836C67.7327 121.073 71.2805 119.978 71.4296 119.933C71.5429 119.899 71.6634 119.959 71.7053 120.07C74.242 126.866 65.241 152.406 63.6519 156.81C66.0978 155.312 76.1476 149.269 83.4095 146.572C91.8459 143.44 98.0927 153.948 98.155 154.054C98.1907 154.116 98.1958 154.19 98.1672 154.256C98.1397 154.321 98.0825 154.369 98.014 154.386L88.3237 156.764C88.3063 156.768 88.2889 156.771 88.2695 156.77C87.8253 156.795 84.8627 158.95 80.8983 162.13C80.8013 162.208 80.6604 162.193 80.5818 162.096C80.5042 161.999 80.5195 161.858 80.6165 161.779C83.671 159.329 87.4444 156.417 88.2338 156.322L97.6066 154.023C96.5945 152.444 90.9165 144.263 83.5658 146.993C75.3276 150.052 63.4579 157.456 63.3384 157.531C63.2567 157.582 63.1526 157.576 63.078 157.514C63.0035 157.454 62.9759 157.352 63.0086 157.262C63.1168 156.967 73.7457 127.909 71.356 120.432C70.535 120.723 67.3447 121.988 63.5855 125.195C59.5691 128.621 54.0637 135.027 50.6426 146.096C44.8002 164.994 52.0529 171.444 55.4423 173.339C55.4873 173.368 58.5509 175.351 63.3762 174.315C63.4987 174.289 63.6172 174.367 63.6427 174.488C63.6693 174.61 63.5917 174.729 63.4702 174.755C62.4203 174.979 61.4522 175.069 60.5791 175.069L60.577 175.071Z" fill="black"/>
<path d="M90.4478 155.265C90.3549 155.265 90.2681 155.206 90.2354 155.113C89.6972 153.564 88.4799 152.245 86.9797 151.585C86.8664 151.535 86.8143 151.402 86.8643 151.289C86.9144 151.176 87.0461 151.124 87.1605 151.174C88.773 151.883 90.0822 153.301 90.6602 154.966C90.7011 155.084 90.6388 155.211 90.5213 155.252C90.4968 155.261 90.4723 155.265 90.4478 155.265Z" fill="black"/>
<path d="M93.4941 154.653C93.3971 154.653 93.3072 154.59 93.2787 154.493C92.7129 152.598 91.3087 150.965 89.5206 150.124C89.4082 150.071 89.3602 149.937 89.4123 149.825C89.4654 149.712 89.5992 149.664 89.7115 149.717C91.613 150.612 93.1071 152.349 93.7086 154.364C93.7443 154.483 93.6769 154.608 93.5575 154.644C93.536 154.65 93.5146 154.653 93.4931 154.653H93.4941Z" fill="black"/>
<path d="M86.655 158.511V156.835C86.655 155.362 87.8478 154.168 89.3204 154.168H100.365L86.655 158.511Z" fill="black"/>
<path d="M67.1168 188.184C67.1168 188.184 104.454 183.566 120.871 188.692L121.728 194.83L67.1168 199.057V188.185V188.184Z" fill="white"/>
<path d="M65.968 189.203C65.8812 189.203 65.7995 189.153 65.7617 189.068C65.7117 188.955 65.7638 188.822 65.8771 188.772C65.9649 188.733 68.0595 187.825 71.886 187.443C72.0116 187.432 72.1199 187.521 72.1321 187.644C72.1444 187.768 72.0545 187.878 71.9309 187.891C68.1749 188.265 66.0793 189.173 66.0579 189.182C66.0283 189.196 65.9976 189.202 65.967 189.202L65.968 189.203Z" fill="black"/>
<path d="M110.875 64.8128H67.4579C61.2366 64.8128 56.1938 69.4032 56.1938 75.0669C56.1938 76.5947 56.5635 78.0438 57.2222 79.3469L51.8925 89.0495L62.7103 84.3662C64.1533 84.9779 65.7607 85.321 67.4569 85.321H110.874C117.096 85.321 122.138 80.7306 122.138 75.0669C122.138 69.4032 117.096 64.8128 110.874 64.8128H110.875Z" fill="white"/>
<path d="M51.8935 89.2731C51.8312 89.2731 51.771 89.2476 51.7271 89.1996C51.6627 89.1281 51.6505 89.024 51.6964 88.9402L56.969 79.3407C56.3052 77.9896 55.9692 76.5518 55.9692 75.0659C55.9692 69.2878 61.1233 64.5871 67.458 64.5871H110.875C117.21 64.5871 122.364 69.2878 122.364 75.0659C122.364 80.844 117.21 85.5447 110.875 85.5447H67.458C65.8056 85.5447 64.2105 85.2301 62.7124 84.6092L51.9824 89.2548C51.9538 89.267 51.9231 89.2731 51.8925 89.2731H51.8935ZM67.458 65.0375C61.3715 65.0375 56.4186 69.536 56.4186 75.0659C56.4186 76.5201 56.7566 77.9253 57.4224 79.2437C57.4561 79.3101 57.4541 79.3887 57.4194 79.4531L52.4062 88.5797L62.6215 84.1568C62.6776 84.1323 62.742 84.1323 62.7981 84.1568C64.2656 84.7787 65.8332 85.0943 67.458 85.0943H110.875C116.962 85.0943 121.915 80.5958 121.915 75.0659C121.915 69.536 116.963 65.0375 110.875 65.0375H67.458Z" fill="black"/>
<path d="M87.2646 72.4893C87.6221 71.0014 88.9742 69.9026 90.5765 69.9373C92.3217 69.9761 93.7576 71.3905 93.8229 73.1378C93.8812 74.6993 92.8671 76.034 91.4598 76.4599C90.8849 76.6335 90.4978 77.1737 90.4968 77.7762V78.92L87.2646 72.4893Z" fill="white"/>
<path d="M90.4968 79.1446C90.3722 79.1446 90.2721 79.0435 90.2721 78.92V77.7762C90.2721 77.0746 90.7347 76.4445 91.3955 76.2454C92.7455 75.8369 93.6524 74.5624 93.5993 73.147C93.538 71.509 92.2084 70.1987 90.5724 70.163C89.1192 70.1252 87.8222 71.1321 87.4842 72.5424C87.4546 72.6629 87.332 72.7375 87.2125 72.7089C87.092 72.6803 87.0175 72.5588 87.0461 72.4383C87.4341 70.8227 88.9231 69.6738 90.5816 69.7137C92.4555 69.7545 93.9781 71.2557 94.0476 73.1307C94.1078 74.7503 93.0703 76.2086 91.5241 76.6763C91.0513 76.8193 90.7215 77.2717 90.7215 77.7772V78.921C90.7215 79.0456 90.6204 79.1457 90.4958 79.1457L90.4968 79.1446Z" fill="black"/>
<path d="M90.4958 79.3111C90.6194 79.3111 90.7205 79.4122 90.7205 79.5358V80.3865C90.7205 80.511 90.6194 80.6111 90.4958 80.6111C90.3722 80.6111 90.2711 80.51 90.2711 80.3865V79.5358C90.2711 79.4112 90.3722 79.3111 90.4958 79.3111Z" fill="black"/>
<path d="M99.0383 72.4893C99.3958 71.0014 100.748 69.9026 102.35 69.9373C104.095 69.9761 105.531 71.3905 105.597 73.1378C105.655 74.6993 104.641 76.034 103.234 76.4599C102.659 76.6335 102.272 77.1737 102.271 77.7762V78.92L99.0383 72.4893Z" fill="white"/>
<path d="M102.27 79.1446C102.145 79.1446 102.045 79.0435 102.045 78.92V77.7762C102.045 77.0746 102.507 76.4445 103.168 76.2454C104.518 75.8369 105.425 74.5624 105.372 73.147C105.311 71.509 103.981 70.1987 102.345 70.163C100.897 70.1252 99.5959 71.1321 99.2569 72.5424C99.2283 72.6629 99.1058 72.7375 98.9853 72.7089C98.8647 72.6803 98.7902 72.5588 98.8188 72.4383C99.2069 70.8227 100.693 69.6738 102.354 69.7137C104.228 69.7545 105.751 71.2557 105.82 73.1307C105.881 74.7503 104.843 76.2086 103.297 76.6763C102.824 76.8193 102.494 77.2717 102.494 77.7772V78.921C102.494 79.0456 102.393 79.1457 102.268 79.1457L102.27 79.1446Z" fill="black"/>
<path d="M102.27 79.3111C102.393 79.3111 102.494 79.4122 102.494 79.5358V80.3865C102.494 80.511 102.393 80.6111 102.27 80.6111C102.146 80.6111 102.045 80.51 102.045 80.3865V79.5358C102.045 79.4112 102.146 79.3111 102.27 79.3111Z" fill="black"/>
<path d="M75.4919 72.4893C75.8494 71.0014 77.2015 69.9026 78.8038 69.9373C80.549 69.9761 81.9849 71.3905 82.0502 73.1378C82.1085 74.6993 81.0944 76.034 79.6871 76.4599C79.1122 76.6335 78.7251 77.1737 78.7241 77.7762V78.92L75.4919 72.4893Z" fill="white"/>
<path d="M78.7242 79.1446C78.5996 79.1446 78.4995 79.0435 78.4995 78.92V77.7762C78.4995 77.0746 78.9621 76.4445 79.6228 76.2454C80.9729 75.8369 81.8797 74.5624 81.8266 73.147C81.7654 71.509 80.4357 70.1987 78.7997 70.163C77.3557 70.1252 76.0506 71.1321 75.7115 72.5424C75.6819 72.6629 75.5604 72.7375 75.4399 72.7089C75.3194 72.6803 75.2448 72.5588 75.2734 72.4383C75.6615 70.8227 77.1525 69.6738 78.8089 69.7137C80.6829 69.7545 82.2055 71.2557 82.2749 73.1307C82.3352 74.7503 81.2976 76.2086 79.7525 76.6763C79.2797 76.8193 78.9498 77.2717 78.9498 77.7772V78.921C78.9498 79.0456 78.8487 79.1457 78.7242 79.1457V79.1446Z" fill="black"/>
<path d="M78.7231 79.3111C78.8467 79.3111 78.9478 79.4122 78.9478 79.5358V80.3865C78.9478 80.511 78.8467 80.6111 78.7231 80.6111C78.5995 80.6111 78.4984 80.51 78.4984 80.3865V79.5358C78.4984 79.4112 78.5995 79.3111 78.7231 79.3111Z" fill="black"/>
<path d="M151.517 81.5231H188.862C190.197 81.5231 191.279 80.4409 191.279 79.1059V71.5161C191.279 70.1811 190.197 69.0989 188.862 69.0989H151.517C150.182 69.0989 149.1 70.1811 149.1 71.5161V79.1059C149.1 80.4409 150.182 81.5231 151.517 81.5231Z" fill="white"/>
<path d="M188.861 81.7478H151.517C150.06 81.7478 148.875 80.5621 148.875 79.1059V71.5171C148.875 70.0599 150.061 68.8752 151.517 68.8752H188.861C190.318 68.8752 191.503 70.0609 191.503 71.5171V79.1059C191.503 80.5631 190.317 81.7478 188.861 81.7478ZM151.517 69.3236C150.308 69.3236 149.324 70.307 149.324 71.5161V79.1048C149.324 80.314 150.308 81.2974 151.517 81.2974H188.861C190.07 81.2974 191.054 80.314 191.054 79.1048V71.5161C191.054 70.307 190.07 69.3236 188.861 69.3236H151.517Z" fill="black"/>
<path d="M184.839 77.2278C185.897 77.2278 186.754 76.3696 186.754 75.311C186.754 74.2524 185.897 73.3942 184.839 73.3942C183.782 73.3942 182.925 74.2524 182.925 75.311C182.925 76.3696 183.782 77.2278 184.839 77.2278Z" fill="#469A9A"/>
<path d="M155.539 77.2268H178.114C179.172 77.2268 180.028 76.369 180.028 75.31C180.028 74.251 179.172 73.3931 178.114 73.3931H155.539C154.481 73.3931 153.624 74.251 153.624 75.31C153.624 76.369 154.481 77.2268 155.539 77.2268Z" fill="white"/>
<path d="M178.114 77.4525H155.539C154.359 77.4525 153.399 76.4915 153.399 75.311C153.399 74.1305 154.359 73.1695 155.539 73.1695H178.114C179.293 73.1695 180.253 74.1305 180.253 75.311C180.253 76.4915 179.293 77.4525 178.114 77.4525ZM155.539 73.6188C154.606 73.6188 153.848 74.3776 153.848 75.31C153.848 76.2424 154.606 77.0011 155.539 77.0011H178.114C179.046 77.0011 179.804 76.2424 179.804 75.31C179.804 74.3776 179.046 73.6188 178.114 73.6188H155.539Z" fill="black"/>
<path d="M151.517 95.6415H188.862C190.197 95.6415 191.279 94.5593 191.279 93.2243V85.6345C191.279 84.2995 190.197 83.2173 188.862 83.2173H151.517C150.182 83.2173 149.1 84.2995 149.1 85.6345V93.2243C149.1 94.5593 150.182 95.6415 151.517 95.6415Z" fill="white"/>
<path d="M188.861 95.8662H151.517C150.06 95.8662 148.875 94.6805 148.875 93.2243V85.6345C148.875 84.1772 150.061 82.9926 151.517 82.9926H188.861C190.318 82.9926 191.503 84.1783 191.503 85.6345V93.2243C191.503 94.6815 190.317 95.8662 188.861 95.8662ZM151.517 83.442C150.308 83.442 149.324 84.4254 149.324 85.6345V93.2243C149.324 94.4334 150.308 95.4168 151.517 95.4168H188.861C190.07 95.4168 191.054 94.4334 191.054 93.2243V85.6345C191.054 84.4254 190.07 83.442 188.861 83.442H151.517Z" fill="black"/>
<path d="M184.839 91.3462C185.897 91.3462 186.754 90.488 186.754 89.4294C186.754 88.3708 185.897 87.5126 184.839 87.5126C183.782 87.5126 182.925 88.3708 182.925 89.4294C182.925 90.488 183.782 91.3462 184.839 91.3462Z" fill="#469A9A"/>
<path d="M155.539 91.3462H178.114C179.172 91.3462 180.028 90.4884 180.028 89.4294C180.028 88.3704 179.172 87.5126 178.114 87.5126H155.539C154.481 87.5126 153.624 88.3704 153.624 89.4294C153.624 90.4884 154.481 91.3462 155.539 91.3462Z" fill="white"/>
<path d="M178.114 91.5709H155.539C154.359 91.5709 153.399 90.6099 153.399 89.4294C153.399 88.2489 154.359 87.2879 155.539 87.2879H178.114C179.293 87.2879 180.253 88.2489 180.253 89.4294C180.253 90.6099 179.293 91.5709 178.114 91.5709ZM155.539 87.7382C154.606 87.7382 153.848 88.497 153.848 89.4294C153.848 90.3618 154.606 91.1205 155.539 91.1205H178.114C179.046 91.1205 179.804 90.3618 179.804 89.4294C179.804 88.497 179.046 87.7382 178.114 87.7382H155.539Z" fill="black"/>
<path d="M151.517 109.812H188.862C190.197 109.812 191.279 108.73 191.279 107.395V99.805C191.279 98.47 190.197 97.3878 188.862 97.3878H151.517C150.182 97.3878 149.1 98.47 149.1 99.805V107.395C149.1 108.73 150.182 109.812 151.517 109.812Z" fill="white"/>
<path d="M188.861 110.037H151.517C150.06 110.037 148.875 108.851 148.875 107.395V99.8061C148.875 98.3488 150.061 97.1642 151.517 97.1642H188.861C190.318 97.1642 191.503 98.3498 191.503 99.8061V107.395C191.503 108.852 190.317 110.037 188.861 110.037ZM151.517 97.6125C150.308 97.6125 149.324 98.5959 149.324 99.805V107.394C149.324 108.603 150.308 109.586 151.517 109.586H188.861C190.07 109.586 191.054 108.603 191.054 107.394V99.805C191.054 98.5959 190.07 97.6125 188.861 97.6125H151.517Z" fill="black"/>
<path d="M184.839 105.517C185.897 105.517 186.754 104.659 186.754 103.6C186.754 102.541 185.897 101.683 184.839 101.683C183.782 101.683 182.925 102.541 182.925 103.6C182.925 104.659 183.782 105.517 184.839 105.517Z" fill="#469A9A"/>
<path d="M155.539 105.517H178.114C179.172 105.517 180.028 104.659 180.028 103.6C180.028 102.541 179.172 101.683 178.114 101.683H155.539C154.481 101.683 153.624 102.541 153.624 103.6C153.624 104.659 154.481 105.517 155.539 105.517Z" fill="white"/>
<path d="M178.114 105.741H155.539C154.359 105.741 153.399 104.78 153.399 103.6C153.399 102.419 154.359 101.458 155.539 101.458H178.114C179.293 101.458 180.253 102.419 180.253 103.6C180.253 104.78 179.293 105.741 178.114 105.741ZM155.539 101.909C154.606 101.909 153.848 102.668 153.848 103.6C153.848 104.532 154.606 105.291 155.539 105.291H178.114C179.046 105.291 179.804 104.532 179.804 103.6C179.804 102.668 179.046 101.909 178.114 101.909H155.539Z" fill="black"/>
<path d="M205.563 90.1157H193.743C193.619 90.1157 193.519 90.0146 193.519 89.891C193.519 89.7674 193.619 89.6663 193.743 89.6663H205.338V67.0646C205.338 66.94 205.439 66.8399 205.563 66.8399H213.884C214.009 66.8399 214.109 66.941 214.109 67.0646C214.109 67.1882 214.009 67.2893 213.884 67.2893H205.789V89.891C205.789 90.0156 205.689 90.1157 205.564 90.1157H205.563Z" fill="black"/>
<path d="M254.332 79.403L249.894 71.3251C250.443 70.2406 250.75 69.0345 250.75 67.7621C250.75 63.0471 246.552 59.2257 241.372 59.2257H224.678C219.499 59.2257 215.3 63.0481 215.3 67.7621C215.3 72.4761 219.499 76.2985 224.678 76.2985H241.372C242.785 76.2985 244.123 76.0126 245.324 75.503L254.331 79.402L254.332 79.403Z" fill="white"/>
<path d="M254.332 79.6277C254.302 79.6277 254.271 79.6216 254.242 79.6093L245.323 75.7481C244.077 76.2628 242.748 76.5232 241.372 76.5232H224.678C219.383 76.5232 215.076 72.5925 215.076 67.7621C215.076 62.9317 219.384 59 224.679 59H241.373C246.668 59 250.976 62.9307 250.976 67.7611C250.976 68.9978 250.697 70.1936 250.149 71.319L254.53 79.2937C254.576 79.3775 254.563 79.4827 254.499 79.5531C254.455 79.6011 254.395 79.6267 254.333 79.6267L254.332 79.6277ZM245.325 75.2783C245.356 75.2783 245.387 75.2844 245.415 75.2967L253.819 78.9353L249.698 71.4334C249.663 71.368 249.662 71.2894 249.695 71.224C250.248 70.1313 250.528 68.9671 250.528 67.7621C250.528 63.1788 246.421 59.4504 241.374 59.4504H224.68C219.634 59.4504 215.527 63.1788 215.527 67.7621C215.527 72.3453 219.634 76.0738 224.68 76.0738H241.374C242.721 76.0738 244.021 75.8124 245.239 75.2967C245.266 75.2844 245.297 75.2793 245.326 75.2793L245.325 75.2783Z" fill="black"/>
<path d="M239.064 63.665H226.585C226.399 63.665 226.248 63.5138 226.248 63.328C226.248 63.1421 226.399 62.991 226.585 62.991H239.064C239.25 62.991 239.401 63.1421 239.401 63.328C239.401 63.5138 239.25 63.665 239.064 63.665Z" fill="#C6D7DC"/>
<path d="M244.192 67.4016H222.093C221.907 67.4016 221.756 67.2505 221.756 67.0646C221.756 66.8788 221.907 66.7276 222.093 66.7276H244.192C244.378 66.7276 244.529 66.8788 244.529 67.0646C244.529 67.2505 244.378 67.4016 244.192 67.4016Z" fill="#C6D7DC"/>
<path d="M244.192 71.1383H222.093C221.907 71.1383 221.756 70.9871 221.756 70.8013C221.756 70.6154 221.907 70.4643 222.093 70.4643H244.192C244.378 70.4643 244.529 70.6154 244.529 70.8013C244.529 70.9871 244.378 71.1383 244.192 71.1383Z" fill="#C6D7DC"/>
<path d="M298.439 212.749C299.079 212.041 299.725 211.29 299.997 210.374C300.268 209.458 300.065 208.33 299.274 207.797C298.713 207.419 297.962 207.395 297.424 206.986C296.69 206.43 296.596 205.316 296.94 204.461C297.284 203.606 297.963 202.939 298.593 202.267C300.305 200.441 301.801 198.338 302.479 195.928C303.157 193.518 302.921 190.763 301.433 188.753C299.945 186.741 297.082 185.708 294.79 186.709C293.098 187.448 291.989 189.071 290.973 190.613C288.41 194.503 285.836 198.411 283.892 202.644C281.948 206.877 280.642 211.483 280.76 216.141C280.803 217.836 281.048 219.569 281.861 221.056C282.674 222.543 284.139 223.753 285.826 223.901C288.555 224.141 289.601 221.275 291.335 219.755C293.837 217.56 296.21 215.219 298.439 212.747V212.749Z" fill="white"/>
<path d="M286.149 224.142C286.038 224.142 285.923 224.137 285.807 224.127C284.171 223.983 282.584 222.848 281.664 221.165C280.948 219.855 280.589 218.26 280.535 216.148C280.428 211.914 281.488 207.339 283.688 202.551C285.643 198.293 288.258 194.326 290.785 190.491C291.724 189.066 292.891 187.294 294.7 186.504C297.004 185.498 299.977 186.407 301.614 188.62C303.046 190.555 303.45 193.31 302.696 195.99C302.092 198.136 300.803 200.239 298.757 202.423L298.574 202.617C298.018 203.205 297.443 203.813 297.147 204.547C296.848 205.289 296.894 206.305 297.559 206.809C297.809 206.999 298.121 207.099 298.45 207.204C298.771 207.307 299.103 207.413 299.398 207.611C300.346 208.25 300.484 209.524 300.211 210.439C299.931 211.379 299.292 212.14 298.605 212.901C296.37 215.378 293.973 217.742 291.482 219.927C290.981 220.367 290.525 220.939 290.083 221.495C289.045 222.798 287.974 224.144 286.148 224.144L286.149 224.142ZM296.677 186.555C296.053 186.555 295.44 186.671 294.88 186.915C293.193 187.652 292.067 189.363 291.161 190.738C288.643 194.56 286.039 198.512 284.097 202.739C281.927 207.463 280.88 211.971 280.986 216.137C281.038 218.175 281.379 219.705 282.059 220.95C282.907 222.502 284.359 223.548 285.847 223.678C287.648 223.837 288.658 222.562 289.733 221.212C290.187 220.642 290.656 220.052 291.188 219.587C293.667 217.413 296.051 215.062 298.274 212.599C298.925 211.877 299.53 211.159 299.783 210.311C300.017 209.524 299.874 208.472 299.149 207.984C298.907 207.822 298.62 207.73 298.316 207.632C297.964 207.52 297.601 207.403 297.289 207.166C296.445 206.526 296.37 205.279 296.733 204.377C297.06 203.564 297.665 202.925 298.249 202.306L298.431 202.113C300.427 199.985 301.681 197.941 302.265 195.866C302.982 193.319 302.604 190.709 301.255 188.885C300.165 187.413 298.376 186.554 296.679 186.554L296.677 186.555Z" fill="black"/>
<path d="M268.574 214.98C266.373 211.61 266.185 206.649 269.084 203.86C270.27 202.72 272.035 201.65 271.836 200.015C271.759 199.376 271.369 198.822 270.948 198.337C269.44 196.601 267.412 195.403 265.752 193.812C264.091 192.221 262.756 189.948 263.264 187.705C263.701 185.773 265.479 184.327 267.412 183.9C269.346 183.473 271.386 183.932 273.18 184.769C278.569 187.28 281.923 192.992 283.054 198.832C284.186 204.672 283.416 210.699 282.514 216.579C282.312 217.899 282.084 219.268 281.329 220.369C278.259 224.842 270.449 217.85 268.575 214.98H268.574Z" fill="white"/>
<path d="M278.566 222.049C278.549 222.049 278.531 222.049 278.514 222.049C274.867 222.008 269.91 217.438 268.385 215.102C266.24 211.817 265.856 206.653 268.928 203.698C269.171 203.464 269.443 203.229 269.704 203.003C270.713 202.13 271.757 201.228 271.612 200.041C271.537 199.427 271.126 198.886 270.776 198.484C269.913 197.491 268.852 196.656 267.825 195.849C267.074 195.259 266.297 194.648 265.594 193.974C264.61 193.03 262.391 190.527 263.042 187.655C263.473 185.752 265.208 184.155 267.36 183.68C269.611 183.183 271.817 183.887 273.272 184.564C278.259 186.888 281.996 192.205 283.272 198.789C284.404 204.628 283.663 210.553 282.734 216.614C282.549 217.819 282.319 219.319 281.511 220.496C280.804 221.528 279.812 222.051 278.564 222.051L278.566 222.049ZM268.761 214.856C270.299 217.212 275.173 221.561 278.519 221.6C278.535 221.6 278.55 221.6 278.564 221.6C279.656 221.6 280.523 221.143 281.142 220.241C281.891 219.148 282.104 217.765 282.291 216.545C283.214 210.525 283.949 204.644 282.832 198.875C281.584 192.433 277.939 187.235 273.083 184.972C271.691 184.323 269.586 183.648 267.459 184.119C265.473 184.557 263.875 186.019 263.482 187.754C262.882 190.402 264.977 192.759 265.906 193.649C266.593 194.308 267.361 194.912 268.104 195.496C269.147 196.316 270.226 197.164 271.116 198.19C271.509 198.64 271.969 199.253 272.059 199.987C272.233 201.411 271.097 202.393 269.999 203.343C269.73 203.576 269.475 203.796 269.24 204.022C266.337 206.816 266.717 211.724 268.761 214.856Z" fill="black"/>
<path d="M276.738 218.29C276.684 218.29 276.63 218.271 276.587 218.232C273.643 215.555 273.687 211.002 273.975 208.526C274.103 207.42 274.302 206.303 274.494 205.222C274.889 202.994 275.297 200.692 275.1 198.425C274.815 195.154 272.787 191.615 269.461 191.181C269.338 191.165 269.251 191.052 269.267 190.929C269.282 190.805 269.394 190.717 269.519 190.735C273.081 191.199 275.248 194.935 275.549 198.386C275.751 200.712 275.337 203.045 274.937 205.3C274.747 206.375 274.55 207.486 274.422 208.579C274.144 210.968 274.095 215.357 276.89 217.9C276.982 217.984 276.989 218.126 276.906 218.218C276.862 218.267 276.801 218.291 276.739 218.291L276.738 218.29Z" fill="black"/>
<path d="M278.252 205.805C279.1 203.856 280.373 201.977 280.37 199.852C280.365 196.775 277.768 194.444 275.934 191.974C272.646 187.548 271.585 181.362 273.86 176.339C276.136 171.316 281.961 167.956 287.343 169.136C289.294 169.564 291.215 170.63 292.137 172.404C293.198 174.444 292.736 176.927 292.049 179.122C291.363 181.318 290.465 183.553 290.734 185.838C291.212 189.89 295.169 192.775 295.997 196.77C296.858 200.919 294.146 204.916 291.329 208.08C289.743 209.862 288.067 211.603 286.768 213.616C285.279 215.923 285.104 217.983 284.584 220.579C284.031 223.342 282.174 223.661 280.365 221.678C278.651 219.8 277.676 217.125 277.253 214.656C276.744 211.69 277.047 208.572 278.252 205.806V205.805Z" fill="white"/>
<path d="M282.593 223.173C281.835 223.173 281.003 222.709 280.199 221.829C278.116 219.546 277.32 216.379 277.031 214.693C276.504 211.615 276.864 208.426 278.045 205.715C278.257 205.23 278.498 204.743 278.73 204.271C279.426 202.86 280.147 201.4 280.144 199.852C280.141 197.517 278.551 195.575 277.014 193.698C276.589 193.18 276.149 192.642 275.752 192.107C272.249 187.391 271.426 181.165 273.654 176.245C276.043 170.97 282.077 167.751 287.39 168.915C289.675 169.416 291.479 170.649 292.336 172.299C293.488 174.515 292.903 177.144 292.264 179.188C292.165 179.504 292.062 179.821 291.959 180.138C291.356 181.989 290.733 183.903 290.958 185.81C291.202 187.879 292.361 189.612 293.587 191.448C294.682 193.086 295.815 194.779 296.218 196.723C297.153 201.232 293.972 205.448 291.498 208.228C291.228 208.531 290.957 208.832 290.684 209.134C289.377 210.582 288.025 212.08 286.957 213.737C285.734 215.632 285.411 217.374 285.039 219.392C284.965 219.791 284.89 220.199 284.805 220.622C284.53 221.99 283.913 222.874 283.066 223.108C282.913 223.151 282.754 223.172 282.592 223.172L282.593 223.173ZM278.458 205.895C277.311 208.526 276.962 211.625 277.475 214.617C277.755 216.254 278.525 219.328 280.531 221.526C281.386 222.462 282.243 222.872 282.946 222.677C283.621 222.489 284.126 221.728 284.365 220.535C284.449 220.114 284.524 219.708 284.598 219.312C284.979 217.247 285.309 215.464 286.581 213.495C287.669 211.808 289.033 210.296 290.352 208.835C290.624 208.534 290.895 208.233 291.164 207.931C293.574 205.224 296.675 201.127 295.78 196.817C295.394 194.958 294.287 193.302 293.216 191.701C292.014 189.902 290.77 188.044 290.514 185.867C290.278 183.861 290.916 181.9 291.534 180.003C291.637 179.687 291.739 179.372 291.838 179.057C292.452 177.095 293.018 174.579 291.941 172.509C291.146 170.978 289.452 169.829 287.298 169.357C282.183 168.237 276.373 171.345 274.068 176.432C271.906 181.206 272.711 187.254 276.116 191.842C276.507 192.369 276.943 192.901 277.365 193.415C278.952 195.354 280.593 197.357 280.597 199.853C280.6 201.507 279.856 203.014 279.136 204.472C278.906 204.939 278.668 205.421 278.461 205.897L278.458 205.895Z" fill="black"/>
<path d="M282.658 220.577C282.596 220.577 282.533 220.55 282.489 220.499C280.309 217.989 280.538 214.233 281.48 211.555C282.144 209.668 283.167 207.919 284.156 206.227C284.697 205.303 285.254 204.35 285.746 203.387C287.449 200.049 287.916 197.13 287.131 194.708C286.617 193.119 285.605 191.814 284.533 190.432C283.841 189.539 283.124 188.616 282.564 187.616C280.431 183.809 280.754 178.699 283.349 175.19C283.422 175.09 283.563 175.068 283.663 175.143C283.763 175.216 283.784 175.357 283.71 175.457C281.217 178.828 280.907 183.738 282.956 187.396C283.501 188.368 284.206 189.277 284.889 190.157C285.936 191.509 287.021 192.906 287.559 194.569C288.381 197.108 287.906 200.144 286.148 203.591C285.65 204.565 285.089 205.525 284.545 206.453C283.566 208.127 282.554 209.858 281.905 211.705C281.006 214.264 280.776 217.84 282.829 220.204C282.911 220.298 282.9 220.44 282.806 220.522C282.764 220.559 282.711 220.577 282.659 220.577H282.658Z" fill="black"/>
<path d="M300.577 219.707H266.662L268.973 245.659H298.267L300.577 219.707Z" fill="white"/>
<path d="M298.267 245.884H268.973C268.856 245.884 268.759 245.795 268.749 245.679L266.438 219.726C266.433 219.663 266.454 219.601 266.496 219.555C266.539 219.508 266.6 219.481 266.663 219.481H300.578C300.641 219.481 300.701 219.508 300.744 219.555C300.786 219.602 300.807 219.664 300.802 219.726L298.491 245.679C298.481 245.795 298.384 245.884 298.268 245.884H298.267ZM269.178 245.434H298.06L300.331 219.931H266.907L269.177 245.434H269.178Z" fill="black"/>
</g>
<defs>
<clipPath id="clip0_410025_413">
<rect width="280" height="186.884" fill="white" transform="translate(28 59)"/>
</clipPath>
</defs>
</svg>
