<svg width="336" height="304" viewBox="0 0 336 304" fill="none" xmlns="http://www.w3.org/2000/svg">
<g clip-path="url(#clip0_410002_5703)">
<path d="M100.304 146.139C100.304 146.139 79.7218 164.073 33.726 165.815C29.2719 165.983 26.9437 171.178 29.8001 174.595C38.5193 185.022 51.2196 204.028 52.324 227.245C52.5211 231.392 57.1877 233.736 60.6478 231.433C71.7289 224.055 93.7155 213.281 128.44 212.423L100.304 146.14V146.139Z" fill="white"/>
<path d="M57.6852 232.565C56.8271 232.565 55.9638 232.363 55.1558 231.955C53.3384 231.039 52.1952 229.282 52.0992 227.255C50.9734 203.599 37.5365 184.198 29.6274 174.738C28.2534 173.095 27.9418 170.859 28.8122 168.904C29.6866 166.941 31.5664 165.672 33.7168 165.591C57.4288 164.693 74.2298 159.405 84.1494 155.127C94.8964 150.493 100.103 146.013 100.155 145.969C100.209 145.921 100.283 145.903 100.353 145.919C100.423 145.936 100.481 145.985 100.509 146.051L128.645 212.334C128.674 212.402 128.668 212.481 128.627 212.543C128.586 212.605 128.518 212.644 128.443 212.646C93.0412 213.522 70.8483 224.91 60.7704 231.62C59.8275 232.248 58.7589 232.565 57.6832 232.565H57.6852ZM100.215 146.505C99.0808 147.424 93.8769 151.42 84.3527 155.53C74.3942 159.827 57.5299 165.139 33.7342 166.039C31.7553 166.115 30.0268 167.282 29.2228 169.086C28.4097 170.911 28.6896 172.917 29.9717 174.45C35.6741 181.27 40.4337 188.528 44.1186 196.023C49.2204 206.401 52.0563 216.903 52.5477 227.233C52.6365 229.095 53.6867 230.711 55.358 231.553C57.0334 232.398 58.9642 232.283 60.5232 231.244C67.7825 226.411 76.2219 222.382 85.6061 219.268C98.5088 214.988 112.805 212.611 128.103 212.204L100.214 146.503L100.215 146.505Z" fill="black"/>
<path d="M93.7707 121.274C109.107 121.274 121.539 108.859 121.539 93.5445C121.539 78.2298 109.107 65.8148 93.7707 65.8148C78.4344 65.8148 66.002 78.2298 66.002 93.5445C66.002 108.859 78.4344 121.274 93.7707 121.274Z" fill="white"/>
<path d="M93.7278 121.511C88.9499 121.511 84.2291 120.278 79.9609 117.86C73.4565 114.177 68.7787 108.184 66.7876 100.987C62.6788 86.1289 71.4399 70.7029 86.3182 66.5993C93.5265 64.6112 101.077 65.5456 107.582 69.2289C114.086 72.9123 118.764 78.905 120.755 86.1024C124.864 100.96 116.103 116.386 101.224 120.49C98.7479 121.173 96.2297 121.511 93.7288 121.511H93.7278ZM93.8136 66.027C91.3516 66.027 88.8753 66.3595 86.4388 67.0317C71.7995 71.0691 63.1783 86.2472 67.2218 100.866C69.1801 107.948 73.7834 113.844 80.1826 117.468C86.5818 121.093 94.0118 122.012 101.104 120.056C115.743 116.019 124.364 100.841 120.321 86.2217C118.362 79.1396 113.759 73.2438 107.36 69.6196C103.16 67.2409 98.5149 66.027 93.8136 66.027Z" fill="black"/>
<path d="M30.6357 121.598H30.6214C29.7357 121.598 29.0451 121.5 28.569 121.305C28.4546 121.258 28.3984 121.127 28.4454 121.012C28.4924 120.897 28.6242 120.842 28.7386 120.889C29.1605 121.06 29.7939 121.148 30.6214 121.148C30.7031 121.148 30.7838 121.148 30.8676 121.146H30.8717C30.9943 121.146 31.0944 121.244 31.0964 121.366C31.0985 121.49 31.0004 121.592 30.8758 121.595C30.7941 121.597 30.7134 121.597 30.6357 121.597V121.598ZM33.1131 121.415C33.0017 121.415 32.9047 121.332 32.8904 121.218C32.875 121.095 32.9619 120.983 33.0855 120.967C33.7556 120.883 34.4993 120.766 35.2962 120.622C35.4188 120.599 35.5352 120.682 35.5577 120.803C35.5802 120.925 35.4985 121.042 35.3769 121.064C34.5719 121.21 33.82 121.327 33.1417 121.413C33.1325 121.414 33.1223 121.415 33.1131 121.415ZM37.5426 120.628C37.4395 120.628 37.3455 120.556 37.323 120.45C37.2964 120.329 37.3741 120.209 37.4957 120.183C38.1914 120.033 38.9269 119.864 39.6839 119.681C39.8044 119.652 39.926 119.726 39.9556 119.846C39.9853 119.967 39.9107 120.088 39.7901 120.118C39.0301 120.301 38.2904 120.47 37.5917 120.621C37.5753 120.624 37.56 120.627 37.5437 120.627L37.5426 120.628ZM41.9181 119.576C41.818 119.576 41.7271 119.51 41.7005 119.409C41.6688 119.288 41.7414 119.166 41.8609 119.134C42.5586 118.952 43.2891 118.756 44.0307 118.551C44.1492 118.518 44.2739 118.587 44.3076 118.707C44.3403 118.826 44.2708 118.951 44.1513 118.983C43.4076 119.189 42.6751 119.386 41.9753 119.569C41.9559 119.574 41.9375 119.576 41.9181 119.576ZM28.2248 119.487C28.186 119.487 28.1471 119.477 28.1114 119.457C28.0041 119.393 27.9684 119.256 28.0317 119.15C28.328 118.647 28.8316 118.058 29.5283 117.401C29.6192 117.316 29.7612 117.321 29.846 117.41C29.9308 117.5 29.9267 117.643 29.8368 117.728C29.1708 118.355 28.6937 118.91 28.4189 119.376C28.377 119.447 28.3014 119.487 28.2248 119.487ZM46.2557 118.378C46.1577 118.378 46.0678 118.314 46.0402 118.216C46.0055 118.097 46.0739 117.972 46.1934 117.938C46.8953 117.735 47.6145 117.522 48.3479 117.301C48.4685 117.265 48.5921 117.333 48.6279 117.451C48.6636 117.569 48.5962 117.695 48.4777 117.731C47.7411 117.952 47.0219 118.165 46.3181 118.369C46.2976 118.375 46.2762 118.378 46.2557 118.378ZM50.5648 117.083C50.4688 117.083 50.3799 117.021 50.3503 116.925C50.3135 116.806 50.3799 116.681 50.4984 116.643C51.2002 116.425 51.9153 116.2 52.6427 115.967C52.7622 115.929 52.8879 115.995 52.9257 116.113C52.9635 116.231 52.8981 116.358 52.7796 116.395C52.0512 116.628 51.3351 116.854 50.6322 117.073C50.6097 117.08 50.5873 117.083 50.5648 117.083ZM31.3958 116.334C31.3294 116.334 31.263 116.305 31.218 116.249C31.1414 116.151 31.1588 116.01 31.2558 115.933C31.7983 115.508 32.4082 115.055 33.0702 114.587C33.1713 114.515 33.3123 114.539 33.3838 114.64C33.4553 114.741 33.4318 114.882 33.3307 114.953C32.6748 115.417 32.07 115.866 31.5337 116.286C31.4928 116.319 31.4438 116.334 31.3948 116.334H31.3958ZM54.8503 115.713C54.7553 115.713 54.6675 115.653 54.6368 115.558C54.598 115.44 54.6624 115.313 54.7809 115.274C55.4817 115.045 56.1927 114.809 56.915 114.568C57.0324 114.528 57.1601 114.591 57.2 114.709C57.2398 114.827 57.1765 114.954 57.058 114.994C56.3357 115.236 55.6227 115.472 54.9208 115.702C54.8973 115.71 54.8738 115.713 54.8503 115.713ZM59.1165 114.284C59.0225 114.284 58.9357 114.225 58.904 114.132C58.8641 114.015 58.9265 113.887 59.0439 113.846C59.7437 113.608 60.4527 113.363 61.1688 113.113C61.2863 113.072 61.414 113.134 61.4549 113.251C61.4957 113.368 61.4334 113.495 61.317 113.536C60.5988 113.786 59.8898 114.031 59.189 114.27C59.1645 114.278 59.14 114.282 59.1165 114.282V114.284ZM35.0571 113.725C34.9846 113.725 34.9131 113.689 34.8692 113.625C34.8007 113.522 34.8283 113.382 34.9325 113.314C35.526 112.921 36.1625 112.51 36.8265 112.092C36.9317 112.026 37.0707 112.057 37.1371 112.162C37.2035 112.267 37.1718 112.406 37.0666 112.472C36.4056 112.889 35.7712 113.298 35.1818 113.688C35.144 113.714 35.1 113.726 35.0582 113.726L35.0571 113.725ZM63.3652 112.806C63.2723 112.806 63.1865 112.749 63.1538 112.656C63.1119 112.539 63.1732 112.411 63.2907 112.369C63.9894 112.122 64.6953 111.871 65.4084 111.615C65.5259 111.573 65.6546 111.633 65.6965 111.75C65.7384 111.866 65.6781 111.996 65.5616 112.038C64.8476 112.294 64.1416 112.547 63.4419 112.794C63.4173 112.803 63.3918 112.807 63.3663 112.807L63.3652 112.806ZM38.8615 111.325C38.7859 111.325 38.7113 111.286 38.6695 111.217C38.6051 111.111 38.6388 110.973 38.7451 110.909C39.3692 110.53 40.02 110.143 40.6799 109.756C40.7872 109.694 40.9251 109.728 40.9874 109.836C41.0497 109.943 41.014 110.08 40.9077 110.143C40.2498 110.528 39.6001 110.916 38.978 111.292C38.9412 111.315 38.9014 111.325 38.8615 111.325ZM67.5987 111.284C67.5067 111.284 67.4209 111.228 67.3872 111.136C67.3443 111.02 67.4046 110.89 67.521 110.848C68.2188 110.594 68.9216 110.335 69.6316 110.073C69.7491 110.03 69.8778 110.09 69.9208 110.206C69.9637 110.322 69.9044 110.452 69.7879 110.495C69.0779 110.757 68.3741 111.016 67.6753 111.27C67.6498 111.279 67.6242 111.283 67.5987 111.283V111.284ZM71.8178 109.724C71.7269 109.724 71.6411 109.668 71.6074 109.579C71.5635 109.462 71.6227 109.333 71.7392 109.29C72.4359 109.029 73.1367 108.765 73.8426 108.496C73.9591 108.453 74.0888 108.511 74.1327 108.627C74.1767 108.743 74.1184 108.873 74.003 108.917C73.2961 109.185 72.5942 109.449 71.8975 109.71C71.871 109.72 71.8444 109.724 71.8189 109.724H71.8178ZM42.7394 109.048C42.6618 109.048 42.5852 109.007 42.5443 108.935C42.483 108.828 42.5198 108.69 42.6281 108.629C43.2645 108.266 43.9184 107.896 44.5885 107.523C44.6968 107.463 44.8337 107.502 44.894 107.61C44.9542 107.718 44.9154 107.855 44.8071 107.915C44.138 108.288 43.4852 108.656 42.8498 109.019C42.815 109.039 42.7762 109.048 42.7384 109.048H42.7394ZM76.0247 108.129C75.9348 108.129 75.849 108.074 75.8143 107.985C75.7693 107.869 75.8276 107.739 75.944 107.695C76.6387 107.428 77.3385 107.158 78.0413 106.885C78.1568 106.84 78.2875 106.897 78.3325 107.012C78.3774 107.127 78.3202 107.258 78.2048 107.303C77.5009 107.576 76.8011 107.846 76.1054 108.113C76.0789 108.123 76.0513 108.128 76.0247 108.128V108.129ZM46.6685 106.857C46.5888 106.857 46.5122 106.815 46.4713 106.74C46.412 106.631 46.4519 106.495 46.5612 106.435C47.2079 106.082 47.8678 105.725 48.541 105.365C48.6503 105.307 48.7872 105.347 48.8455 105.457C48.9047 105.566 48.8628 105.702 48.7535 105.761C48.0813 106.121 47.4224 106.478 46.7768 106.83C46.742 106.848 46.7052 106.857 46.6695 106.857H46.6685ZM80.2183 106.502C80.1284 106.502 80.0436 106.448 80.0089 106.359C79.9629 106.244 80.0201 106.113 80.1356 106.069C80.8292 105.796 81.526 105.522 82.2268 105.243C82.3422 105.197 82.473 105.254 82.5189 105.369C82.5649 105.484 82.5087 105.615 82.3933 105.661C81.6925 105.939 80.9947 106.213 80.3001 106.486C80.2735 106.496 80.2449 106.501 80.2173 106.501L80.2183 106.502ZM84.3997 104.843C84.3108 104.843 84.226 104.79 84.1913 104.703C84.1453 104.587 84.2005 104.457 84.3159 104.411C85.0075 104.134 85.7032 103.854 86.401 103.572C86.5154 103.525 86.6472 103.581 86.6942 103.695C86.7411 103.81 86.685 103.941 86.5705 103.988C85.8718 104.27 85.1761 104.551 84.4834 104.828C84.4559 104.839 84.4273 104.845 84.3997 104.845V104.843ZM50.6322 104.732C50.5515 104.732 50.4739 104.688 50.433 104.613C50.3748 104.504 50.4177 104.367 50.527 104.31C51.1808 103.965 51.8459 103.618 52.5211 103.268C52.6315 103.21 52.7673 103.253 52.8245 103.363C52.8817 103.474 52.8388 103.609 52.7285 103.666C52.0532 104.016 51.3892 104.363 50.7364 104.707C50.7027 104.724 50.6669 104.732 50.6312 104.732H50.6322ZM88.5698 103.156C88.4809 103.156 88.3971 103.104 88.3614 103.017C88.3144 102.901 88.3696 102.771 88.484 102.724C89.1746 102.441 89.8682 102.157 90.5639 101.87C90.6783 101.823 90.8101 101.877 90.8571 101.991C90.9041 102.106 90.85 102.237 90.7355 102.285C90.0388 102.573 89.3452 102.857 88.6546 103.14C88.627 103.151 88.5984 103.156 88.5698 103.156ZM54.6256 102.662C54.5439 102.662 54.4652 102.617 54.4254 102.539C54.3692 102.429 54.4131 102.293 54.5234 102.237C55.1824 101.901 55.8515 101.561 56.5298 101.219C56.6402 101.163 56.776 101.208 56.8322 101.318C56.8884 101.428 56.8434 101.564 56.7331 101.62C56.0558 101.962 55.3877 102.301 54.7288 102.637C54.6961 102.653 54.6613 102.662 54.6266 102.662H54.6256ZM92.7276 101.442C92.6398 101.442 92.556 101.39 92.5203 101.303C92.4722 101.189 92.5264 101.057 92.6408 101.009C93.3304 100.723 94.021 100.433 94.7156 100.141C94.8301 100.093 94.9618 100.146 95.0099 100.261C95.0579 100.376 95.0037 100.507 94.8893 100.555C94.1946 100.847 93.503 101.137 92.8134 101.423C92.7848 101.436 92.7562 101.441 92.7266 101.441L92.7276 101.442ZM58.6414 100.637C58.5587 100.637 58.479 100.591 58.4402 100.512C58.385 100.401 58.43 100.267 58.5413 100.212C59.2054 99.881 59.8776 99.5485 60.5589 99.2139C60.6703 99.1588 60.8052 99.2047 60.8603 99.3159C60.9155 99.4271 60.8695 99.5618 60.7582 99.6168C60.0788 99.9504 59.4066 100.283 58.7426 100.613C58.7099 100.63 58.6762 100.637 58.6425 100.637H58.6414ZM96.8753 99.6995C96.7874 99.6995 96.7047 99.6485 96.6679 99.5628C96.6188 99.4485 96.673 99.3169 96.7864 99.268L97.0551 99.1537C97.6578 98.8987 98.2575 98.6427 98.8551 98.3867C98.9685 98.3377 99.1013 98.3908 99.1503 98.505C99.1994 98.6192 99.1462 98.7508 99.0318 98.7998C98.4342 99.0558 97.8335 99.3118 97.2308 99.5669L96.9621 99.6811C96.9335 99.6933 96.9039 99.6995 96.8742 99.6995H96.8753ZM62.6787 98.6539C62.595 98.6539 62.5153 98.608 62.4765 98.5274C62.4223 98.4163 62.4683 98.2816 62.5807 98.2275C63.2488 97.9032 63.924 97.5768 64.6065 97.2493C64.7188 97.1953 64.8527 97.2422 64.9068 97.3544C64.961 97.4666 64.9129 97.6002 64.8016 97.6543C64.1202 97.9817 63.4449 98.3071 62.7778 98.6315C62.7462 98.6468 62.7125 98.6539 62.6798 98.6539H62.6787ZM101.01 97.9307C100.923 97.9307 100.84 97.8797 100.803 97.795C100.754 97.6808 100.806 97.5492 100.921 97.5003C101.611 97.2024 102.299 96.9046 102.983 96.6057C103.098 96.5567 103.23 96.6077 103.28 96.722C103.33 96.8352 103.278 96.9678 103.163 97.0178C102.479 97.3156 101.79 97.6145 101.1 97.9124C101.071 97.9246 101.04 97.9307 101.011 97.9307H101.01ZM105.135 96.1354C105.048 96.1354 104.965 96.0855 104.928 96.0008C104.878 95.8876 104.93 95.755 105.044 95.705C105.733 95.402 106.419 95.0991 107.1 94.7972C107.214 94.7462 107.347 94.7972 107.398 94.9114C107.448 95.0246 107.398 95.1572 107.283 95.2082C106.601 95.5112 105.915 95.8131 105.225 96.1171C105.195 96.1304 105.164 96.1365 105.135 96.1365V96.1354ZM109.247 94.3116C109.161 94.3116 109.079 94.2627 109.041 94.179C108.99 94.0658 109.041 93.9332 109.155 93.8822C109.842 93.5741 110.527 93.2671 111.205 92.9601C111.318 92.9091 111.451 92.9601 111.502 93.0723C111.553 93.1855 111.502 93.3181 111.39 93.3691C110.711 93.6761 110.026 93.9842 109.338 94.2912C109.308 94.3045 109.276 94.3106 109.246 94.3106L109.247 94.3116ZM113.345 92.4603C113.259 92.4603 113.179 92.4113 113.141 92.3287C113.089 92.2154 113.139 92.0828 113.252 92.0308C113.938 91.7177 114.62 91.4055 115.296 91.0944C115.41 91.0424 115.543 91.0924 115.595 91.2046C115.647 91.3178 115.598 91.4504 115.484 91.5024C114.807 91.8146 114.126 92.1267 113.439 92.4399C113.409 92.4541 113.377 92.4603 113.346 92.4603H113.345ZM117.432 90.5783C117.347 90.5783 117.265 90.5303 117.227 90.4487C117.175 90.3365 117.223 90.2029 117.337 90.1499C118.021 89.8316 118.699 89.5144 119.374 89.1982C119.486 89.1451 119.62 89.1931 119.673 89.3053C119.726 89.4175 119.678 89.5511 119.565 89.6042C118.89 89.9204 118.211 90.2386 117.527 90.5569C117.496 90.5712 117.463 90.5783 117.432 90.5783ZM121.504 88.6657C121.42 88.6657 121.339 88.6188 121.3 88.5372C121.247 88.425 121.295 88.2914 121.407 88.2383C122.089 87.914 122.766 87.5916 123.435 87.2703C123.548 87.2163 123.682 87.2642 123.736 87.3754C123.79 87.4876 123.742 87.6212 123.631 87.6753C122.96 87.9966 122.283 88.3199 121.6 88.6443C121.568 88.6596 121.535 88.6657 121.504 88.6657ZM125.558 86.7195C125.475 86.7195 125.395 86.6726 125.356 86.593C125.302 86.4818 125.348 86.3472 125.46 86.2931C126.141 85.9626 126.815 85.6342 127.481 85.3067C127.593 85.2517 127.727 85.2986 127.782 85.4087C127.837 85.5199 127.791 85.6546 127.68 85.7097C127.013 86.0371 126.339 86.3655 125.658 86.6971C125.627 86.7124 125.593 86.7195 125.56 86.7195H125.558ZM129.597 84.7365C129.514 84.7365 129.434 84.6906 129.395 84.6121C129.34 84.5009 129.385 84.3663 129.497 84.3112C130.176 83.9736 130.845 83.639 131.507 83.3054C131.618 83.2493 131.753 83.2942 131.809 83.4044C131.866 83.5156 131.821 83.6502 131.71 83.7063C131.048 84.0399 130.377 84.3754 129.698 84.7131C129.666 84.7294 129.631 84.7365 129.598 84.7365H129.597ZM133.615 82.7138C133.533 82.7138 133.454 82.6689 133.414 82.5914C133.358 82.4812 133.402 82.3456 133.512 82.2895C134.189 81.9447 134.856 81.602 135.512 81.2623C135.621 81.2052 135.758 81.248 135.815 81.3582C135.872 81.4683 135.829 81.604 135.719 81.6611C135.062 82.0018 134.395 82.3446 133.717 82.6904C133.684 82.7067 133.649 82.7148 133.615 82.7148V82.7138ZM137.609 80.6442C137.528 80.6442 137.45 80.6003 137.41 80.5248C137.351 80.4146 137.394 80.279 137.504 80.2219C138.178 79.8669 138.84 79.516 139.49 79.1682C139.599 79.109 139.736 79.1508 139.794 79.26C139.852 79.3691 139.811 79.5058 139.702 79.5639C139.051 79.9118 138.388 80.2637 137.713 80.6187C137.679 80.636 137.644 80.6442 137.609 80.6442ZM141.576 78.5215C141.496 78.5215 141.419 78.4796 141.379 78.4042C141.319 78.295 141.359 78.1593 141.468 78.0992C142.14 77.733 142.797 77.3719 143.437 77.0149C143.545 76.9547 143.682 76.9934 143.743 77.1016C143.803 77.2097 143.764 77.3464 143.656 77.4066C143.013 77.7636 142.356 78.1257 141.683 78.4929C141.648 78.5113 141.611 78.5204 141.576 78.5204V78.5215ZM145.506 76.3335C145.427 76.3335 145.351 76.2927 145.311 76.2203C145.249 76.1121 145.286 75.9755 145.394 75.9142C146.063 75.5338 146.711 75.1594 147.341 74.7912C147.448 74.7279 147.586 74.7647 147.648 74.8718C147.71 74.9789 147.675 75.1166 147.568 75.1788C146.938 75.5481 146.287 75.9234 145.618 76.3049C145.582 76.3253 145.545 76.3345 145.507 76.3345L145.506 76.3335ZM116.73 75.5164C116.639 75.5164 116.553 75.4603 116.519 75.3706C116.475 75.2543 116.535 75.1247 116.651 75.0819C117.36 74.8167 118.063 74.5556 118.761 74.2975C118.877 74.2546 119.007 74.3138 119.05 74.4301C119.093 74.5464 119.033 74.6759 118.917 74.7188C118.22 74.9758 117.517 75.2369 116.809 75.5022C116.784 75.5113 116.757 75.5164 116.731 75.5164H116.73ZM149.388 74.0588C149.311 74.0588 149.238 74.02 149.195 73.9507C149.13 73.8446 149.164 73.7069 149.27 73.6426C149.932 73.2428 150.575 72.847 151.183 72.4655C151.288 72.3992 151.427 72.4308 151.493 72.5359C151.56 72.641 151.528 72.7797 151.423 72.846C150.813 73.2285 150.167 73.6263 149.504 74.0272C149.467 74.0496 149.428 74.0598 149.388 74.0598V74.0588ZM120.949 73.9578C120.857 73.9578 120.771 73.9017 120.737 73.8099C120.695 73.6936 120.755 73.5641 120.871 73.5223C121.583 73.2632 122.288 73.0082 122.987 72.7572C123.103 72.7144 123.232 72.7756 123.275 72.8929C123.317 73.0092 123.257 73.1387 123.139 73.1806C122.441 73.4315 121.737 73.6865 121.026 73.9456C121 73.9548 120.974 73.9588 120.949 73.9588V73.9578ZM125.182 72.438C125.089 72.438 125.003 72.3808 124.971 72.288C124.929 72.1707 124.99 72.0432 125.108 72.0014C125.823 71.7484 126.532 71.5006 127.232 71.2568C127.349 71.216 127.477 71.2782 127.518 71.3955C127.559 71.5128 127.496 71.6403 127.38 71.6811C126.68 71.9239 125.973 72.1717 125.258 72.4247C125.233 72.4339 125.208 72.438 125.182 72.438ZM153.196 71.6627C153.123 71.6627 153.051 71.627 153.008 71.5618C152.94 71.4587 152.968 71.319 153.073 71.2506C153.728 70.8181 154.353 70.3938 154.927 69.9889C155.028 69.9175 155.168 69.9419 155.24 70.0429C155.312 70.1439 155.287 70.2847 155.186 70.3561C154.608 70.7641 153.98 71.1905 153.321 71.625C153.283 71.6505 153.24 71.6617 153.197 71.6617L153.196 71.6627ZM129.432 70.962C129.338 70.962 129.251 70.9028 129.22 70.81C129.18 70.6927 129.242 70.5652 129.36 70.5254C130.08 70.2796 130.79 70.0399 131.492 69.8053C131.609 69.7665 131.737 69.8297 131.777 69.947C131.817 70.0643 131.752 70.1918 131.635 70.2316C130.934 70.4662 130.224 70.7059 129.505 70.9508C129.48 70.9589 129.456 70.963 129.432 70.963V70.962ZM133.698 69.5349C133.603 69.5349 133.515 69.4748 133.485 69.3799C133.446 69.2626 133.51 69.1351 133.629 69.0963C134.354 68.8587 135.068 68.6281 135.77 68.4037C135.889 68.366 136.015 68.4313 136.053 68.5496C136.091 68.6679 136.025 68.7944 135.907 68.8321C135.206 69.0555 134.492 69.2861 133.769 69.5237C133.745 69.5319 133.722 69.5349 133.698 69.5349ZM156.867 69.0637C156.799 69.0637 156.733 69.0341 156.689 68.977C156.612 68.8791 156.631 68.7383 156.728 68.6618C157.385 68.1518 157.959 67.6703 158.435 67.2297C158.526 67.145 158.668 67.1501 158.753 67.2419C158.837 67.3327 158.831 67.4745 158.74 67.5591C158.254 68.009 157.67 68.4996 157.004 69.0168C156.963 69.0484 156.914 69.0637 156.866 69.0637H156.867ZM137.984 68.1681C137.888 68.1681 137.799 68.1059 137.769 68.01C137.733 67.8917 137.799 67.7662 137.917 67.7285C138.65 67.501 139.367 67.2827 140.071 67.0716C140.19 67.0359 140.315 67.1032 140.351 67.2215C140.387 67.3398 140.319 67.4653 140.201 67.501C139.499 67.7121 138.783 67.9304 138.051 68.1569C138.029 68.164 138.006 68.1671 137.985 68.1671L137.984 68.1681ZM142.293 66.8757C142.196 66.8757 142.106 66.8114 142.077 66.7135C142.043 66.5942 142.112 66.4697 142.231 66.4351C142.972 66.2208 143.694 66.0168 144.398 65.823C144.517 65.7914 144.641 65.8598 144.675 65.9801C144.708 66.0995 144.638 66.2229 144.518 66.2565C143.816 66.4504 143.095 66.6533 142.355 66.8665C142.335 66.8726 142.313 66.8757 142.293 66.8757ZM160.078 65.9465C160.036 65.9465 159.994 65.9352 159.956 65.9108C159.852 65.8434 159.821 65.7047 159.889 65.6007C160.123 65.2365 160.241 64.9244 160.241 64.6724C160.241 64.5786 160.225 64.496 160.192 64.4174C160.126 64.2624 159.987 64.1298 159.779 64.0247C159.669 63.9686 159.625 63.8329 159.681 63.7228C159.737 63.6126 159.874 63.5687 159.984 63.6249C160.288 63.7799 160.498 63.988 160.606 64.242C160.662 64.3746 160.691 64.5194 160.691 64.6724C160.691 65.0172 160.552 65.3997 160.267 65.8434C160.224 65.9097 160.151 65.9465 160.077 65.9465H160.078ZM146.63 65.6833C146.529 65.6833 146.438 65.616 146.412 65.515C146.38 65.3946 146.453 65.2722 146.573 65.2416C147.324 65.0468 148.06 64.8632 148.76 64.6949C148.88 64.6653 149.002 64.7398 149.031 64.8611C149.06 64.9815 148.985 65.1029 148.865 65.1314C148.167 65.2987 147.435 65.4823 146.687 65.6761C146.667 65.6812 146.649 65.6833 146.63 65.6833ZM151.006 64.6388C150.902 64.6388 150.809 64.5663 150.786 64.4613C150.76 64.3399 150.837 64.2206 150.959 64.1951C151.74 64.0278 152.485 63.8809 153.174 63.7585C153.296 63.736 153.413 63.8187 153.434 63.94C153.456 64.0624 153.375 64.1787 153.252 64.2002C152.569 64.3215 151.829 64.4674 151.054 64.6337C151.038 64.6367 151.022 64.6388 151.007 64.6388H151.006ZM155.436 63.8656C155.323 63.8656 155.226 63.7819 155.213 63.6677C155.198 63.5443 155.285 63.4331 155.409 63.4178C156.267 63.3137 157.03 63.2587 157.677 63.2546H157.678C157.802 63.2546 157.902 63.3545 157.903 63.478C157.903 63.6024 157.804 63.7034 157.679 63.7044C157.05 63.7085 156.304 63.7626 155.462 63.8646C155.453 63.8656 155.444 63.8666 155.435 63.8666L155.436 63.8656Z" fill="#469A9A"/>
<path d="M38.128 116.57C38.128 116.57 38.1178 116.57 38.1127 116.57C37.0349 116.499 36.4067 116.219 36.1911 115.713C36.1431 115.601 36.1176 115.479 36.1155 115.351C36.1135 115.227 36.2115 115.124 36.3362 115.122H36.3403C36.4628 115.122 36.563 115.22 36.565 115.343C36.566 115.414 36.5793 115.478 36.6048 115.538C36.7438 115.864 37.275 116.066 38.1423 116.122C38.2659 116.13 38.3599 116.237 38.3518 116.361C38.3436 116.48 38.2455 116.571 38.127 116.571L38.128 116.57ZM40.3725 116.484C40.2591 116.484 40.161 116.398 40.1487 116.283C40.1354 116.16 40.2243 116.05 40.3479 116.036C41.0038 115.966 41.7475 115.858 42.5586 115.714C42.6823 115.693 42.7977 115.774 42.8191 115.896C42.8406 116.018 42.7599 116.134 42.6373 116.156C41.816 116.301 41.062 116.411 40.3959 116.482C40.3878 116.482 40.3796 116.483 40.3714 116.483L40.3725 116.484ZM44.8051 115.72C44.7019 115.72 44.609 115.649 44.5855 115.544C44.5589 115.422 44.6355 115.303 44.7571 115.276C45.4456 115.126 46.1812 114.955 46.9433 114.768C47.0638 114.74 47.1854 114.812 47.215 114.933C47.2447 115.053 47.1711 115.174 47.0506 115.204C46.2844 115.393 45.5447 115.564 44.8531 115.715C44.8368 115.718 44.8204 115.72 44.8051 115.72ZM49.1765 114.651C49.0774 114.651 48.9865 114.585 48.9599 114.485C48.9282 114.366 48.9987 114.242 49.1193 114.209C49.8129 114.025 50.5413 113.824 51.285 113.613C51.4045 113.579 51.5292 113.648 51.5629 113.768C51.5966 113.887 51.5271 114.012 51.4076 114.045C50.6619 114.256 49.9304 114.458 49.2347 114.644C49.2153 114.649 49.1959 114.652 49.1765 114.652V114.651ZM37.4579 113.688C37.4017 113.688 37.3455 113.667 37.3016 113.625C37.2117 113.539 37.2096 113.396 37.2954 113.308C37.7357 112.853 38.3068 112.344 38.9943 111.794C39.0914 111.716 39.2334 111.733 39.31 111.829C39.3876 111.926 39.3723 112.066 39.2753 112.144C38.6031 112.681 38.0453 113.177 37.6193 113.619C37.5754 113.665 37.5161 113.687 37.4579 113.687V113.688ZM53.5059 113.425C53.4089 113.425 53.319 113.362 53.2904 113.265C53.2546 113.146 53.3231 113.021 53.4416 112.985C54.1414 112.777 54.8585 112.56 55.592 112.333C55.7115 112.295 55.8372 112.362 55.873 112.48C55.9097 112.599 55.8433 112.724 55.7248 112.761C54.9893 112.988 54.2711 113.207 53.5693 113.415C53.5478 113.421 53.5264 113.424 53.5049 113.424L53.5059 113.425ZM57.8058 112.097C57.7108 112.097 57.6219 112.036 57.5913 111.941C57.5535 111.823 57.6188 111.696 57.7373 111.658C58.4371 111.435 59.1502 111.203 59.8755 110.965C59.993 110.926 60.1207 110.99 60.1595 111.108C60.1983 111.225 60.134 111.352 60.0165 111.391C59.2902 111.63 58.575 111.861 57.8753 112.086C57.8528 112.093 57.8293 112.097 57.8068 112.097H57.8058ZM40.9364 110.847C40.8659 110.847 40.7964 110.815 40.7525 110.753C40.681 110.652 40.7045 110.511 40.8056 110.439C41.3756 110.035 42.0029 109.609 42.672 109.17C42.7752 109.103 42.9152 109.132 42.9836 109.235C43.0521 109.339 43.0224 109.478 42.9193 109.546C42.2552 109.981 41.6321 110.405 41.0661 110.806C41.0273 110.833 40.9813 110.847 40.9364 110.847ZM62.0801 110.693C61.9861 110.693 61.8983 110.634 61.8666 110.54C61.8268 110.423 61.8901 110.296 62.0076 110.256C62.7063 110.02 63.4163 109.778 64.1355 109.531C64.253 109.491 64.3807 109.552 64.4216 109.669C64.4624 109.787 64.4001 109.914 64.2826 109.955C63.5624 110.203 62.8524 110.446 62.1516 110.681C62.1281 110.689 62.1036 110.693 62.0801 110.693ZM66.334 109.228C66.241 109.228 66.1542 109.169 66.1215 109.078C66.0806 108.96 66.1419 108.833 66.2594 108.791C66.9571 108.546 67.6631 108.295 68.3782 108.039C68.4957 107.997 68.6244 108.058 68.6663 108.175C68.7081 108.291 68.6479 108.42 68.5304 108.463C67.8153 108.719 67.1083 108.97 66.4096 109.215C66.3851 109.224 66.3595 109.229 66.335 109.229L66.334 109.228ZM44.6907 108.374C44.6151 108.374 44.5426 108.336 44.4997 108.268C44.4343 108.163 44.4659 108.024 44.5722 107.959C45.1831 107.578 45.8308 107.184 46.4969 106.788C46.6031 106.723 46.742 106.759 46.8054 106.865C46.8687 106.971 46.834 107.11 46.7277 107.173C46.0637 107.569 45.4191 107.962 44.8102 108.34C44.7734 108.363 44.7326 108.374 44.6917 108.374H44.6907ZM70.5695 107.712C70.4775 107.712 70.3917 107.656 70.358 107.564C70.3151 107.448 70.3754 107.318 70.4918 107.276C71.1886 107.022 71.8924 106.764 72.6024 106.502C72.7199 106.459 72.8486 106.518 72.8915 106.635C72.9344 106.751 72.8752 106.88 72.7587 106.923C72.0477 107.187 71.3438 107.445 70.6461 107.699C70.6206 107.708 70.595 107.712 70.5695 107.712ZM74.7886 106.151C74.6977 106.151 74.6119 106.095 74.5782 106.005C74.5342 105.889 74.5935 105.759 74.71 105.716C75.4046 105.454 76.1065 105.189 76.8134 104.92C76.9288 104.876 77.0596 104.934 77.1035 105.05C77.1475 105.166 77.0892 105.295 76.9738 105.339C76.2668 105.609 75.565 105.874 74.8683 106.135C74.8428 106.145 74.8152 106.149 74.7896 106.149L74.7886 106.151ZM48.5523 106.068C48.4746 106.068 48.399 106.028 48.3572 105.955C48.2948 105.848 48.3316 105.711 48.4399 105.648C49.0712 105.284 49.724 104.913 50.3973 104.536C50.5056 104.476 50.6424 104.514 50.7037 104.622C50.765 104.73 50.7262 104.867 50.6179 104.928C49.9467 105.305 49.295 105.675 48.6657 106.038C48.6299 106.058 48.5921 106.068 48.5533 106.068H48.5523ZM78.9924 104.551C78.9025 104.551 78.8167 104.496 78.783 104.407C78.7381 104.292 78.7953 104.161 78.9117 104.116C79.6054 103.849 80.3042 103.578 81.008 103.302C81.1235 103.257 81.2542 103.314 81.2992 103.43C81.3441 103.545 81.2869 103.676 81.1715 103.72C80.4676 103.996 79.7678 104.267 79.0742 104.535C79.0476 104.546 79.02 104.551 78.9935 104.551H78.9924ZM52.4752 103.868C52.3955 103.868 52.3189 103.827 52.278 103.752C52.2187 103.643 52.2586 103.507 52.3669 103.447C53.0115 103.095 53.6714 102.738 54.3467 102.376C54.456 102.317 54.5929 102.359 54.6511 102.468C54.7094 102.577 54.6685 102.714 54.5592 102.772C53.885 103.133 53.226 103.489 52.5824 103.841C52.5477 103.859 52.5109 103.868 52.4741 103.868H52.4752ZM83.182 102.914C83.0921 102.914 83.0083 102.86 82.9725 102.772C82.9266 102.657 82.9838 102.526 83.0992 102.48C83.7918 102.207 84.4875 101.929 85.1883 101.649C85.3038 101.603 85.4345 101.659 85.4805 101.773C85.5265 101.888 85.4713 102.019 85.3559 102.065C84.6551 102.345 83.9584 102.623 83.2647 102.897C83.2371 102.908 83.2095 102.914 83.182 102.914ZM56.441 101.746C56.3603 101.746 56.2816 101.702 56.2417 101.625C56.1835 101.515 56.2264 101.379 56.3357 101.322C56.9885 100.98 57.6546 100.634 58.3319 100.284C58.4422 100.227 58.5781 100.271 58.6353 100.381C58.6925 100.491 58.6486 100.627 58.5383 100.684C57.861 101.033 57.1959 101.378 56.5441 101.72C56.5104 101.737 56.4747 101.746 56.4399 101.746H56.441ZM87.3582 101.242C87.2693 101.242 87.1855 101.189 87.1498 101.102C87.1028 100.987 87.159 100.856 87.2734 100.809C87.964 100.53 88.6587 100.247 89.3554 99.9616C89.4708 99.9147 89.6016 99.9697 89.6486 100.084C89.6956 100.198 89.6404 100.33 89.526 100.377C88.8283 100.662 88.1336 100.946 87.442 101.225C87.4144 101.237 87.3858 101.242 87.3572 101.242H87.3582ZM60.4384 99.6841C60.3567 99.6841 60.277 99.6393 60.2372 99.5617C60.181 99.4516 60.2249 99.3159 60.3363 99.2598C60.9962 98.9252 61.6664 98.5876 62.3467 98.2479C62.4581 98.1928 62.5929 98.2377 62.6481 98.3479C62.7033 98.4591 62.6583 98.5937 62.548 98.6488C61.8686 98.9885 61.1995 99.3251 60.5406 99.6586C60.5079 99.675 60.4732 99.6831 60.4384 99.6831V99.6841ZM91.5211 99.5362C91.4333 99.5362 91.3495 99.4842 91.3138 99.3975C91.2658 99.2833 91.3209 99.1517 91.4353 99.1037C92.1239 98.8181 92.8165 98.5305 93.5112 98.2398C93.6266 98.1918 93.7574 98.2459 93.8054 98.3601C93.8534 98.4744 93.7993 98.606 93.6849 98.6539C92.9902 98.9446 92.2965 99.2333 91.608 99.5179C91.5794 99.5291 91.5508 99.5352 91.5222 99.5352L91.5211 99.5362ZM95.6708 97.8001C95.583 97.8001 95.5002 97.7481 95.4634 97.6634C95.4154 97.5492 95.4686 97.4176 95.583 97.3687L96.3369 97.0494C96.7762 96.8627 97.2144 96.6761 97.6517 96.4894C97.7661 96.4404 97.8979 96.4935 97.9469 96.6077C97.996 96.722 97.9428 96.8535 97.8284 96.9025C97.3912 97.0892 96.9529 97.2758 96.5126 97.4625L95.7577 97.7818C95.7291 97.794 95.6994 97.8001 95.6698 97.8001H95.6708ZM64.4614 97.6737C64.3787 97.6737 64.299 97.6277 64.2591 97.5482C64.204 97.437 64.2499 97.3024 64.3613 97.2473L64.6392 97.1106C64.7515 97.0555 64.8854 97.1014 64.9405 97.2126C64.9957 97.3238 64.9497 97.4584 64.8384 97.5135L64.5605 97.6502C64.5288 97.6655 64.4941 97.6737 64.4614 97.6737ZM99.8072 96.0334C99.7204 96.0334 99.6376 95.9824 99.6009 95.8978C99.5518 95.7835 99.6039 95.6519 99.7183 95.603C100.41 95.3041 101.097 95.0063 101.781 94.7084C101.895 94.6594 102.027 94.7104 102.077 94.8247C102.127 94.9379 102.075 95.0705 101.961 95.1205C101.277 95.4183 100.589 95.7172 99.8971 96.0161C99.8685 96.0283 99.8379 96.0345 99.8082 96.0345L99.8072 96.0334ZM103.93 94.2361C103.844 94.2361 103.762 94.1861 103.724 94.1025C103.674 93.9893 103.725 93.8567 103.839 93.8067C104.529 93.5027 105.214 93.1987 105.895 92.8958C106.008 92.8448 106.141 92.8958 106.192 93.009C106.243 93.1222 106.192 93.2549 106.079 93.3059C105.397 93.6088 104.712 93.9128 104.021 94.2178C103.992 94.231 103.961 94.2371 103.93 94.2371V94.2361ZM108.039 92.4062C107.953 92.4062 107.872 92.3572 107.834 92.2736C107.783 92.1604 107.834 92.0277 107.946 91.9767C108.635 91.6667 109.317 91.3576 109.994 91.0495C110.108 90.9985 110.241 91.0475 110.293 91.1607C110.344 91.2739 110.295 91.4065 110.181 91.4586C109.503 91.7666 108.82 92.0767 108.131 92.3868C108.101 92.4001 108.07 92.4072 108.039 92.4072V92.4062ZM112.134 90.5426C112.049 90.5426 111.967 90.4936 111.929 90.412C111.877 90.2998 111.926 90.1662 112.04 90.1142C112.726 89.7979 113.407 89.4838 114.08 89.1696C114.193 89.1166 114.326 89.1655 114.379 89.2787C114.431 89.391 114.383 89.5246 114.271 89.5776C113.597 89.8918 112.915 90.207 112.229 90.5232C112.198 90.5375 112.166 90.5436 112.135 90.5436L112.134 90.5426ZM116.212 88.6443C116.127 88.6443 116.046 88.5963 116.009 88.5158C115.955 88.4036 116.003 88.2699 116.116 88.2169C116.8 87.8946 117.478 87.5732 118.148 87.254C118.259 87.1999 118.394 87.2479 118.447 87.3601C118.5 87.4723 118.453 87.6059 118.341 87.6589C117.67 87.9792 116.992 88.2995 116.307 88.6229C116.276 88.6371 116.243 88.6443 116.211 88.6443H116.212ZM120.273 86.7083C120.189 86.7083 120.109 86.6613 120.07 86.5818C120.016 86.4706 120.063 86.3359 120.175 86.2819C120.857 85.9524 121.531 85.625 122.196 85.2996C122.308 85.2445 122.442 85.2914 122.498 85.4026C122.552 85.5138 122.506 85.6484 122.394 85.7035C121.728 86.0299 121.053 86.3574 120.37 86.6868C120.338 86.7021 120.304 86.7093 120.272 86.7093L120.273 86.7083ZM124.314 84.7314C124.231 84.7314 124.152 84.6855 124.113 84.607C124.058 84.4958 124.103 84.3612 124.214 84.3061C124.894 83.9684 125.564 83.6339 126.224 83.3013C126.336 83.2452 126.471 83.2901 126.527 83.4003C126.583 83.5115 126.538 83.6461 126.428 83.7022C125.767 84.0347 125.096 84.3703 124.414 84.708C124.382 84.7243 124.348 84.7314 124.314 84.7314ZM128.332 82.7087C128.25 82.7087 128.172 82.6638 128.132 82.5863C128.075 82.4761 128.118 82.3405 128.229 82.2844C128.907 81.9375 129.573 81.5938 130.227 81.2541C130.337 81.196 130.473 81.2398 130.53 81.35C130.588 81.4602 130.545 81.5958 130.434 81.653C129.779 81.9936 129.112 82.3374 128.434 82.6852C128.401 82.7016 128.367 82.7097 128.332 82.7097V82.7087ZM132.322 80.6319C132.242 80.6319 132.164 80.5891 132.123 80.5126C132.065 80.4034 132.107 80.2667 132.216 80.2086C132.891 79.8506 133.552 79.4966 134.197 79.1477C134.306 79.0886 134.443 79.1294 134.501 79.2385C134.561 79.3477 134.52 79.4844 134.41 79.5435C133.764 79.8934 133.102 80.2473 132.425 80.6064C132.392 80.6237 132.356 80.6329 132.32 80.6329L132.322 80.6319ZM136.28 78.4898C136.201 78.4898 136.124 78.448 136.083 78.3746C136.022 78.2664 136.062 78.1298 136.171 78.0696C136.843 77.6973 137.497 77.3311 138.13 76.97C138.237 76.9088 138.375 76.9465 138.436 77.0536C138.498 77.1617 138.46 77.2984 138.353 77.3596C137.717 77.7207 137.062 78.0879 136.388 78.4613C136.353 78.4806 136.316 78.4898 136.279 78.4898H136.28ZM140.189 76.2651C140.113 76.2651 140.037 76.2253 139.995 76.1539C139.933 76.0468 139.969 75.9091 140.075 75.8469C140.739 75.4573 141.388 75.0696 142.004 74.6953C142.109 74.631 142.248 74.6637 142.312 74.7698C142.377 74.8758 142.344 75.0135 142.238 75.0788C141.621 75.4542 140.97 75.8428 140.303 76.2335C140.267 76.2549 140.228 76.2641 140.189 76.2641V76.2651ZM116.068 75.6103C115.976 75.6103 115.89 75.5542 115.856 75.4634C115.813 75.3471 115.874 75.2175 115.99 75.1747C116.702 74.9136 117.407 74.6565 118.105 74.4046C118.221 74.3628 118.35 74.4229 118.393 74.5392C118.435 74.6555 118.375 74.7851 118.258 74.8269C117.561 75.0788 116.857 75.3349 116.146 75.596C116.121 75.6052 116.094 75.6103 116.069 75.6103H116.068ZM120.298 74.0822C120.205 74.0822 120.119 74.0251 120.087 73.9323C120.045 73.815 120.106 73.6875 120.224 73.6457C120.94 73.3917 121.648 73.1428 122.346 72.899C122.463 72.8582 122.593 72.9204 122.632 73.0367C122.673 73.154 122.611 73.2815 122.495 73.3223C121.797 73.5651 121.09 73.814 120.374 74.068C120.349 74.0771 120.324 74.0812 120.298 74.0812V74.0822ZM144.031 73.9231C143.956 73.9231 143.883 73.8864 143.841 73.8191C143.774 73.715 143.805 73.5753 143.909 73.509C144.572 73.0857 145.202 72.6715 145.783 72.2758C145.886 72.2054 146.025 72.2329 146.095 72.3349C146.166 72.4379 146.139 72.5767 146.036 72.6471C145.452 73.0449 144.817 73.461 144.151 73.8874C144.113 73.9109 144.071 73.9231 144.031 73.9231ZM124.547 72.6032C124.453 72.6032 124.366 72.544 124.334 72.4512C124.295 72.3339 124.357 72.2064 124.474 72.1666C125.196 71.9208 125.908 71.6811 126.607 71.4475C126.725 71.4087 126.853 71.472 126.891 71.5893C126.93 71.7066 126.867 71.8341 126.749 71.8739C126.051 72.1064 125.341 72.3461 124.619 72.592C124.595 72.6001 124.57 72.6042 124.547 72.6042V72.6032ZM147.744 71.3832C147.676 71.3832 147.608 71.3526 147.564 71.2935C147.49 71.1945 147.51 71.0538 147.609 70.9793C148.277 70.4795 148.862 70.0082 149.345 69.5798C149.438 69.4972 149.58 69.5053 149.663 69.5982C149.745 69.691 149.736 69.8328 149.644 69.9154C149.152 70.352 148.558 70.8314 147.88 71.3383C147.839 71.369 147.792 71.3832 147.745 71.3832H147.744ZM128.814 71.1823C128.719 71.1823 128.631 71.1221 128.601 71.0272C128.562 70.9089 128.627 70.7824 128.745 70.7447C129.473 70.508 130.188 70.2796 130.889 70.0592C131.008 70.0215 131.134 70.0878 131.171 70.2061C131.209 70.3244 131.142 70.4499 131.024 70.4876C130.324 70.708 129.611 70.9354 128.884 71.1721C128.86 71.1792 128.838 71.1833 128.814 71.1833V71.1823ZM133.106 69.8338C133.01 69.8338 132.92 69.7716 132.89 69.6747C132.854 69.5563 132.921 69.4309 133.04 69.3942C133.778 69.1698 134.498 68.9555 135.198 68.7515C135.319 68.7158 135.442 68.7852 135.477 68.9045C135.512 69.0239 135.443 69.1483 135.324 69.183C134.624 69.387 133.907 69.6002 133.17 69.8236C133.149 69.8307 133.126 69.8338 133.105 69.8338H133.106ZM137.425 68.5781C137.326 68.5781 137.236 68.5128 137.208 68.4129C137.176 68.2935 137.245 68.1691 137.365 68.1365C138.109 67.9314 138.842 67.7356 139.542 67.555C139.662 67.5244 139.785 67.5958 139.816 67.7162C139.846 67.8366 139.774 67.959 139.654 67.9896C138.956 68.1691 138.227 68.3639 137.485 68.5689C137.465 68.5741 137.445 68.5771 137.425 68.5771V68.5781ZM151.018 68.3313C150.975 68.3313 150.932 68.319 150.895 68.2935C150.791 68.2252 150.763 68.0855 150.831 67.9824C151.051 67.6519 151.162 67.3714 151.162 67.147C151.162 67.0695 151.149 67.0012 151.122 66.9379C151.05 66.7676 150.869 66.6299 150.585 66.5299C150.468 66.4881 150.406 66.3596 150.448 66.2433C150.49 66.127 150.618 66.0648 150.735 66.1066C151.143 66.2504 151.413 66.4718 151.536 66.7625C151.586 66.8818 151.613 67.0114 151.613 67.148C151.613 67.4663 151.48 67.8202 151.206 68.2313C151.163 68.2966 151.092 68.3313 151.018 68.3313ZM141.782 67.4602C141.68 67.4602 141.588 67.3908 141.563 67.2868C141.535 67.1664 141.61 67.045 141.731 67.0175C142.505 66.8369 143.247 66.6747 143.936 66.537C144.057 66.5136 144.176 66.5911 144.2 66.7135C144.225 66.8349 144.146 66.9532 144.023 66.9777C143.34 67.1144 142.602 67.2755 141.833 67.4551C141.816 67.4592 141.798 67.4612 141.782 67.4612V67.4602ZM146.195 66.5901C146.086 66.5901 145.99 66.5105 145.973 66.3983C145.954 66.2759 146.039 66.1617 146.162 66.1433C147.012 66.0168 147.772 65.9362 148.42 65.9046C148.538 65.8995 148.65 65.9944 148.656 66.1178C148.662 66.2412 148.566 66.3473 148.443 66.3534C147.809 66.384 147.065 66.4636 146.229 66.588C146.218 66.5901 146.207 66.5901 146.195 66.5901Z" fill="#469A9A"/>
<path d="M215.424 132.946C212.559 135.572 208.744 137.177 204.549 137.177C198.042 137.177 192.44 133.318 189.903 127.77C186.548 130.853 182.07 132.738 177.151 132.738C166.748 132.738 158.315 124.318 158.315 113.931C158.315 104.803 164.83 97.1952 173.468 95.4857C173.414 95.0328 173.384 94.5727 173.384 94.1055C173.384 87.6844 178.597 82.4792 185.028 82.4792C188.772 82.4792 192.101 84.2459 194.231 86.9867C197.745 81.4041 203.965 77.6911 211.057 77.6911C212.002 77.6911 212.93 77.7615 213.839 77.889C216.508 67.1694 226.209 59.2254 237.769 59.2254C250.827 59.2254 261.513 69.3605 262.37 82.1813C265.529 79.7934 269.463 78.3745 273.729 78.3745C284.132 78.3745 292.565 86.7949 292.565 97.182C292.565 98.252 292.471 99.2996 292.298 100.322C292.724 100.283 293.155 100.26 293.591 100.26C301.346 100.26 307.633 106.538 307.633 114.281C307.633 122.024 301.346 128.301 293.591 128.301C291.217 128.301 288.983 127.711 287.023 126.672C284.157 133.646 277.292 138.56 269.276 138.56C264.509 138.56 260.152 136.82 256.797 133.946C256.981 140.72 252.858 145.379 245.432 144.021C239.727 152.639 226.815 146.788 227.194 140.016C227.194 140.016 216.102 143.189 215.422 132.949L215.424 132.946Z" fill="white"/>
<path d="M237.47 148.55C236.187 148.55 234.935 148.326 233.81 147.953C229.796 146.625 226.971 143.446 226.963 140.307C225.78 140.592 221.371 141.445 218.261 139.263C216.519 138.04 215.504 136.074 215.237 133.415C212.268 135.989 208.491 137.402 204.548 137.402C198.279 137.402 192.534 133.777 189.827 128.141C186.331 131.253 181.841 132.964 177.15 132.964C166.64 132.964 158.09 124.426 158.09 113.931C158.09 104.943 164.442 97.1432 173.222 95.3062C173.18 94.8961 173.159 94.4922 173.159 94.1046C173.159 87.5702 178.483 82.2538 185.028 82.2538C188.615 82.2538 191.944 83.8338 194.211 86.6012C197.94 80.8747 204.212 77.4667 211.056 77.4667C211.911 77.4667 212.789 77.5249 213.67 77.6401C216.498 66.6533 226.378 59 237.769 59C250.684 59 261.496 68.9637 262.564 81.758C265.828 79.3966 269.679 78.1502 273.729 78.1502C284.239 78.1502 292.791 86.6879 292.791 97.182C292.791 98.1337 292.715 99.1058 292.567 100.074C292.921 100.047 293.26 100.035 293.593 100.035C301.459 100.035 307.859 106.426 307.859 114.28C307.859 122.134 301.459 128.525 293.593 128.525C291.353 128.525 289.126 127.992 287.137 126.983C284.084 134.16 277.1 138.783 269.277 138.783C264.814 138.783 260.484 137.241 257.029 134.43C257.017 137.859 255.885 140.702 253.815 142.473C251.761 144.23 248.901 144.848 245.537 144.266C243.395 147.415 240.351 148.549 237.469 148.549L237.47 148.55ZM227.196 139.79C227.246 139.79 227.296 139.807 227.336 139.839C227.393 139.884 227.424 139.954 227.419 140.027C227.249 143.063 229.996 146.217 233.951 147.526C237.478 148.693 242.296 148.351 245.245 143.896C245.294 143.82 245.383 143.782 245.473 143.799C248.76 144.399 251.544 143.824 253.522 142.132C255.585 140.367 256.668 137.462 256.572 133.95C256.57 133.862 256.62 133.78 256.701 133.741C256.781 133.702 256.877 133.716 256.944 133.774C260.377 136.715 264.756 138.333 269.276 138.333C276.998 138.333 283.882 133.722 286.815 126.586C286.839 126.526 286.887 126.482 286.947 126.459C287.006 126.438 287.073 126.442 287.129 126.472C289.109 127.521 291.343 128.075 293.593 128.075C301.212 128.075 307.41 121.886 307.41 114.279C307.41 106.671 301.212 100.483 293.593 100.483C293.184 100.483 292.768 100.502 292.32 100.544C292.251 100.549 292.182 100.524 292.135 100.473C292.088 100.422 292.066 100.351 292.078 100.283C292.252 99.2455 292.341 98.202 292.341 97.181C292.341 86.9337 283.992 78.598 273.73 78.598C269.642 78.598 265.761 79.8985 262.507 82.3588C262.44 82.4088 262.353 82.418 262.278 82.3843C262.202 82.3497 262.152 82.2772 262.147 82.1946C261.294 69.4391 250.586 59.4478 237.77 59.4478C226.519 59.4478 216.769 67.0522 214.059 77.9411C214.032 78.0522 213.925 78.1257 213.81 78.1094C212.882 77.9798 211.957 77.9135 211.058 77.9135C204.265 77.9135 198.046 81.349 194.423 87.104C194.384 87.1663 194.317 87.205 194.243 87.2091C194.177 87.2122 194.099 87.1805 194.054 87.1224C191.871 84.3132 188.582 82.7016 185.029 82.7016C178.732 82.7016 173.61 87.816 173.61 94.1035C173.61 94.5381 173.637 94.994 173.692 95.4581C173.707 95.5744 173.628 95.6826 173.512 95.705C164.837 97.4227 158.54 105.087 158.54 113.93C158.54 124.177 166.889 132.513 177.151 132.513C181.832 132.513 186.307 130.77 189.752 127.604C189.804 127.555 189.876 127.534 189.949 127.548C190.019 127.563 190.078 127.61 190.109 127.675C192.686 133.31 198.354 136.95 204.55 136.95C208.531 136.95 212.339 135.469 215.274 132.779C215.338 132.721 215.429 132.704 215.51 132.736C215.589 132.769 215.645 132.844 215.651 132.93C215.834 135.678 216.799 137.684 218.521 138.893C221.892 141.259 227.083 139.812 227.135 139.798C227.156 139.792 227.176 139.79 227.198 139.79H227.196Z" fill="black"/>
<path d="M305.25 234.146L281.326 245.039C279.157 246.027 276.596 245.071 275.608 242.904L226.522 135.325C225.535 133.16 226.491 130.604 228.66 129.617L252.583 118.724C254.753 117.737 257.313 118.692 258.302 120.859L307.387 228.438C308.375 230.604 307.419 233.159 305.25 234.146Z" fill="white"/>
<path d="M279.538 245.654C279.001 245.654 278.463 245.559 277.945 245.365C276.809 244.94 275.906 244.1 275.402 242.997L226.317 135.418C225.279 133.143 226.287 130.449 228.566 129.413L252.489 118.52C253.593 118.017 254.826 117.974 255.963 118.399C257.101 118.823 258.003 119.664 258.506 120.766L307.591 228.345C308.629 230.62 307.621 233.314 305.343 234.35L281.419 245.242C280.819 245.516 280.179 245.653 279.538 245.653V245.654ZM254.373 118.558C253.795 118.558 253.218 118.681 252.677 118.928L228.754 129.821C226.701 130.755 225.793 133.182 226.728 135.231L275.813 242.811C276.266 243.804 277.08 244.561 278.103 244.943C279.128 245.326 280.238 245.286 281.233 244.834L305.157 233.942C307.209 233.008 308.117 230.581 307.183 228.532L258.098 120.953C257.644 119.959 256.831 119.203 255.807 118.82C255.34 118.646 254.856 118.559 254.373 118.559V118.558Z" fill="black"/>
<path d="M278.535 197.251L270.972 200.694C270.008 201.133 268.871 200.709 268.432 199.747L240.16 137.783C239.721 136.821 240.145 135.686 241.109 135.248L248.672 131.804C249.636 131.365 250.773 131.79 251.212 132.752L279.484 194.716C279.923 195.678 279.499 196.812 278.535 197.251Z" fill="white"/>
<path d="M270.178 201.093C269.924 201.093 269.671 201.048 269.427 200.956C268.891 200.757 268.466 200.36 268.228 199.839L239.956 137.875C239.467 136.803 239.942 135.532 241.017 135.044L248.579 131.6C249.1 131.363 249.683 131.343 250.218 131.543C250.754 131.743 251.179 132.14 251.417 132.66L279.69 194.624C280.179 195.697 279.704 196.967 278.629 197.456L271.066 200.899C270.783 201.029 270.48 201.093 270.178 201.093ZM249.467 131.856C249.228 131.856 248.99 131.907 248.766 132.009L241.204 135.453C240.355 135.839 239.979 136.843 240.366 137.69L268.637 199.654C268.824 200.065 269.161 200.378 269.584 200.536C270.007 200.694 270.468 200.678 270.879 200.491L278.442 197.048C279.291 196.661 279.667 195.657 279.28 194.811L251.008 132.847C250.821 132.435 250.484 132.122 250.061 131.964C249.868 131.892 249.667 131.856 249.467 131.856Z" fill="black"/>
<path d="M293.473 227.983L284.393 232.117C283.849 232.365 283.206 232.126 282.958 231.582L274.314 212.639C274.066 212.095 274.306 211.454 274.851 211.206L283.93 207.072C284.475 206.824 285.117 207.063 285.366 207.607L294.009 226.55C294.258 227.094 294.017 227.735 293.473 227.983Z" fill="white"/>
<path d="M283.945 232.441C283.79 232.441 283.635 232.413 283.486 232.357C283.159 232.235 282.899 231.993 282.754 231.675L274.11 212.732C273.811 212.077 274.102 211.301 274.758 211.002L283.837 206.868C284.155 206.723 284.511 206.71 284.839 206.832C285.167 206.954 285.426 207.196 285.571 207.514L294.215 226.457C294.514 227.112 294.223 227.888 293.567 228.187L284.487 232.322C284.313 232.4 284.13 232.44 283.945 232.44V232.441ZM284.38 207.198C284.258 207.198 284.138 207.224 284.024 207.276L274.945 211.41C274.514 211.606 274.323 212.116 274.52 212.545L283.163 231.488C283.258 231.696 283.429 231.855 283.643 231.936C283.858 232.017 284.092 232.008 284.3 231.912L293.38 227.778C293.811 227.582 294.001 227.072 293.805 226.643L285.161 207.7C285.066 207.492 284.896 207.333 284.681 207.252C284.583 207.215 284.482 207.197 284.38 207.197V207.198Z" fill="black"/>
<path d="M251.251 240.303L231.626 245.32C229.559 245.848 227.454 244.603 226.925 242.538L197.363 127.127C196.835 125.064 198.081 122.962 200.148 122.434L219.773 117.417C221.84 116.889 223.945 118.135 224.474 120.199L254.036 235.61C254.564 237.674 253.318 239.775 251.251 240.303Z" fill="white"/>
<path d="M230.661 245.667C229.937 245.667 229.224 245.473 228.584 245.094C227.644 244.538 226.978 243.65 226.707 242.594L197.146 127.183C196.587 125.003 197.909 122.775 200.093 122.217L219.718 117.2C220.776 116.929 221.875 117.087 222.816 117.643C223.756 118.199 224.422 119.087 224.693 120.144L254.254 235.555C254.813 237.735 253.491 239.964 251.307 240.522L231.683 245.538C231.344 245.625 231.002 245.668 230.662 245.668L230.661 245.667ZM220.738 117.521C220.436 117.521 220.13 117.558 219.829 117.636L200.204 122.652C198.261 123.149 197.084 125.132 197.582 127.072L227.144 242.483C227.385 243.424 227.978 244.214 228.814 244.709C229.651 245.204 230.628 245.343 231.571 245.103L251.196 240.086C253.139 239.589 254.316 237.606 253.818 235.666L224.257 120.255C224.016 119.315 223.422 118.524 222.586 118.029C222.017 117.693 221.382 117.521 220.738 117.521Z" fill="black"/>
<path d="M234.388 198.536L226.336 200.594C225.31 200.856 224.266 200.238 224.003 199.214L207.105 133.244C206.843 132.22 207.462 131.179 208.486 130.917L216.539 128.858C217.564 128.596 218.608 129.214 218.871 130.238L235.769 196.208C236.031 197.232 235.412 198.274 234.388 198.536Z" fill="white"/>
<path d="M225.856 200.88C225.477 200.88 225.103 200.779 224.768 200.58C224.276 200.288 223.927 199.823 223.786 199.27L206.888 133.299C206.595 132.157 207.287 130.99 208.431 130.698L216.483 128.64C217.038 128.498 217.614 128.581 218.107 128.871C218.599 129.163 218.947 129.628 219.089 130.181L235.987 196.152C236.28 197.294 235.587 198.461 234.444 198.753L226.392 200.812C226.215 200.856 226.035 200.879 225.857 200.879L225.856 200.88ZM217.018 129.021C216.877 129.021 216.735 129.039 216.595 129.074L208.543 131.133C207.64 131.363 207.092 132.285 207.323 133.188L224.221 199.159C224.333 199.597 224.609 199.964 224.997 200.193C225.386 200.424 225.842 200.488 226.279 200.377L234.331 198.319C235.235 198.088 235.782 197.166 235.551 196.263L218.653 130.292C218.541 129.855 218.265 129.488 217.877 129.258C217.612 129.102 217.317 129.021 217.018 129.021Z" fill="black"/>
<path d="M237.962 209.154L228.296 211.625C227.716 211.773 227.367 212.363 227.515 212.942L232.686 233.109C232.834 233.688 233.425 234.037 234.005 233.889L243.671 231.418C244.251 231.269 244.6 230.68 244.452 230.101L239.281 209.934C239.133 209.355 238.542 209.006 237.962 209.154Z" fill="white"/>
<path d="M233.732 234.148C233.5 234.148 233.272 234.085 233.067 233.965C232.766 233.787 232.553 233.503 232.466 233.165L227.3 212.997C227.121 212.299 227.544 211.586 228.243 211.408L237.91 208.936C238.249 208.85 238.601 208.901 238.901 209.078C239.202 209.256 239.415 209.54 239.502 209.878L244.668 230.046C244.847 230.744 244.424 231.457 243.725 231.635L234.058 234.107C233.95 234.134 233.84 234.149 233.731 234.149L233.732 234.148ZM238.236 209.343C238.165 209.343 238.093 209.352 238.022 209.371L228.354 211.842C227.896 211.96 227.618 212.427 227.735 212.885L232.901 233.053C232.959 233.274 233.099 233.461 233.296 233.578C233.494 233.695 233.725 233.727 233.947 233.671L243.614 231.2C244.073 231.082 244.349 230.615 244.233 230.157L239.067 209.989C239.01 209.768 238.87 209.581 238.672 209.464C238.539 209.384 238.388 209.343 238.236 209.343Z" fill="black"/>
<path d="M108.718 147.695C108.718 147.695 137.269 132.038 135.902 129.252C134.535 126.466 126.411 128.741 135.014 122.027C143.617 115.313 141.059 109.953 139.166 106.673C136.845 102.65 128.517 96.4904 116.362 105.21C106.967 111.949 107.807 114.855 91.4016 112.531C63.9669 108.646 64.162 170.231 108.718 147.695Z" fill="black"/>
<path d="M129.947 120.485L125.567 130.429L134.693 132.204C134.693 132.204 129.852 136.877 120.775 135.744C107.368 134.072 106.807 128.817 106.807 128.817L116.179 129.384L121.993 118.307L129.947 120.485Z" fill="white"/>
<path d="M134.869 115.005C135.224 117.272 134.677 119.806 132.938 121.308C131.683 122.392 129.919 122.819 128.277 122.571C126.634 122.323 125.12 121.439 123.982 120.232C123.099 121.004 121.771 121.282 120.695 120.813C119.62 120.344 118.911 119.09 119.178 117.95C119.447 116.81 120.75 115.988 121.87 116.34C122.167 116.433 122.445 116.596 122.755 116.625C123.354 116.68 123.881 116.218 124.202 115.712C124.845 114.697 124.972 113.374 124.531 112.255C126.017 112.177 127.547 112.157 128.93 111.611C131.589 110.562 132.319 108.936 132.319 108.936C132.319 108.936 134.564 113.063 134.869 115.005Z" fill="white"/>
<path d="M129.196 122.864C128.879 122.864 128.561 122.841 128.243 122.793C126.685 122.558 125.173 121.76 123.965 120.538C122.992 121.287 121.668 121.483 120.606 121.019C119.395 120.491 118.673 119.12 118.96 117.899C119.109 117.264 119.544 116.702 120.154 116.356C120.722 116.032 121.372 115.949 121.938 116.126C122.046 116.16 122.151 116.203 122.257 116.245C122.437 116.318 122.606 116.386 122.776 116.403C123.411 116.459 123.883 115.798 124.013 115.593C124.618 114.638 124.738 113.39 124.323 112.339C124.297 112.271 124.305 112.196 124.344 112.135C124.382 112.073 124.449 112.036 124.52 112.032L124.977 112.009C126.287 111.946 127.641 111.88 128.848 111.403C131.376 110.405 132.107 108.859 132.114 108.844C132.149 108.767 132.225 108.716 132.311 108.712C132.394 108.712 132.475 108.754 132.516 108.83C132.609 109 134.784 113.014 135.091 114.971C135.497 117.565 134.728 120.059 133.084 121.479C132.048 122.374 130.644 122.865 129.195 122.865L129.196 122.864ZM123.982 120.007C124.042 120.007 124.101 120.031 124.145 120.078C125.309 121.313 126.788 122.119 128.309 122.348C129.95 122.596 131.626 122.143 132.79 121.138C134.616 119.561 134.946 116.953 134.646 115.039C134.403 113.484 132.851 110.43 132.308 109.395C131.927 109.957 130.983 111.041 129.013 111.819C127.737 112.323 126.345 112.391 124.998 112.456L124.843 112.464C125.182 113.581 125.019 114.845 124.393 115.831C123.953 116.524 123.328 116.904 122.735 116.848C122.499 116.827 122.29 116.742 122.089 116.661C121.995 116.623 121.9 116.584 121.803 116.553C121.355 116.413 120.835 116.483 120.377 116.744C119.882 117.026 119.517 117.495 119.398 118C119.163 119.001 119.785 120.17 120.786 120.606C121.755 121.029 122.98 120.81 123.835 120.061C123.878 120.024 123.931 120.005 123.983 120.005L123.982 120.007Z" fill="black"/>
<path d="M123.179 119.196C123.119 119.196 123.059 119.173 123.016 119.126C122.557 118.638 121.813 118.428 121.165 118.604C121.045 118.635 120.922 118.565 120.89 118.446C120.857 118.326 120.927 118.203 121.048 118.17C121.851 117.953 122.773 118.213 123.343 118.819C123.428 118.91 123.424 119.052 123.333 119.136C123.289 119.177 123.234 119.197 123.179 119.197V119.196Z" fill="black"/>
<path d="M75.0572 209.675C117.899 180.533 139.655 203.069 139.655 203.069V125.547C139.655 125.547 114.361 103.012 64.5513 132.153L75.0583 209.675H75.0572Z" fill="#469A9A"/>
<path d="M139.698 195.549C139.698 183.461 150.94 162.48 200.923 174.567V104.998C150.94 92.9091 139.698 113.891 139.698 125.98V195.55V195.549Z" fill="#469A9A"/>
<path d="M136.324 161.822C136.203 161.822 136.103 161.726 136.099 161.604L134.975 128.232C134.973 128.16 135.005 128.092 135.061 128.047C135.117 128.003 135.191 127.988 135.26 128.007C140.781 129.554 142.395 125.491 142.411 125.449C142.449 125.349 142.553 125.29 142.659 125.307C142.764 125.325 142.842 125.415 142.846 125.522L143.97 158.894C143.974 159.019 143.877 159.122 143.753 159.126C143.639 159.134 143.525 159.033 143.521 158.908L142.424 126.348C141.639 127.521 139.613 129.57 135.434 128.519L136.547 161.588C136.551 161.713 136.454 161.816 136.33 161.82C136.328 161.82 136.325 161.82 136.322 161.82L136.324 161.822Z" fill="black"/>
<path d="M206.205 114.113C202.238 111.034 188.65 106.255 187.051 109.493C185.618 112.391 191.937 114.933 196.13 116.228C191.914 114.922 186.618 113.399 185.84 116.056C184.802 119.596 194.747 121.668 194.747 121.668C194.747 121.668 187.008 118.991 185.97 121.97C184.932 124.948 192.425 126.156 194.833 127.28C196.765 128.182 200.475 130.194 200.864 131.36L200.165 168.288C200.165 168.288 211.695 173.475 213.251 148.607C214.808 123.74 213.284 119.609 206.203 114.113H206.205Z" fill="white"/>
<path d="M202.613 168.968C201.16 168.968 200.146 168.525 200.075 168.493C199.961 168.442 199.911 168.309 199.962 168.196C200.013 168.083 200.147 168.033 200.26 168.083C200.288 168.095 203.122 169.325 206.082 167.538C208.813 165.889 212.238 161.263 213.03 148.593C214.586 123.74 212.998 119.668 206.069 114.289C204.979 113.442 203.137 112.451 200.884 111.497C200.769 111.449 200.716 111.317 200.764 111.202C200.813 111.088 200.945 111.035 201.06 111.083C203.348 112.052 205.225 113.064 206.345 113.934C213.424 119.428 215.048 123.553 213.48 148.62C212.833 158.955 210.419 165.451 206.306 167.927C204.971 168.73 203.676 168.966 202.614 168.966L202.613 168.968Z" fill="black"/>
<path d="M64.0752 150.631C68.042 147.552 81.6301 142.774 83.2299 146.011C84.6622 148.909 78.3437 151.451 74.1501 152.746C78.3662 151.441 83.6621 149.917 84.4405 152.574C85.4784 156.115 75.5333 158.186 75.5333 158.186C75.5333 158.186 83.2728 155.51 84.3108 158.488C85.3487 161.467 77.8554 162.674 75.4475 163.799C73.5157 164.7 69.8053 166.713 69.4161 167.879L74.4535 205.158C74.4535 205.158 58.5852 209.993 57.0283 185.125C55.4714 160.258 56.9956 156.127 64.0762 150.631H64.0752Z" fill="white"/>
<path d="M71.3928 205.752C69.4539 205.752 66.8734 205.337 64.4277 203.645C59.9429 200.541 57.3777 194.315 56.8036 185.139C55.2344 160.071 56.8598 155.946 63.9383 150.452C64.6085 149.932 65.5821 149.342 66.7528 148.746C66.8631 148.689 66.999 148.734 67.0552 148.844C67.1114 148.954 67.0675 149.09 66.9571 149.146C65.8109 149.729 64.8629 150.303 64.2142 150.806C57.2858 156.184 55.6972 160.256 57.2531 185.11C57.818 194.138 60.3168 200.248 64.679 203.271C69.2588 206.444 74.337 204.956 74.3881 204.941C74.5066 204.905 74.6323 204.971 74.6691 205.091C74.7048 205.209 74.6384 205.334 74.5199 205.371C74.4944 205.379 73.2317 205.751 71.3939 205.751L71.3928 205.752Z" fill="black"/>
<path d="M100.895 242.685L86.7319 200.343L173.942 152.75L193.132 186.787L100.895 242.685Z" fill="white"/>
<path d="M191.89 237.908L186.352 233.027L148.352 153.956C144.868 146.727 137.545 142.131 129.51 142.131C121.475 142.131 114.378 146.844 110.965 153.367L79.8301 209.991C72.5442 223.242 82.0388 239.465 97.1776 239.632L110.735 239.782L127.437 206.855L140.792 234.566C143.983 241.187 150.69 245.396 158.049 245.396H189.054C193.002 245.396 194.85 240.517 191.89 237.908Z" fill="white"/>
<path d="M189.054 245.62H158.049C150.65 245.62 143.798 241.318 140.589 234.662L127.432 207.362L110.935 239.883C110.898 239.958 110.82 240.006 110.735 240.006H110.733L97.1757 239.856C89.9857 239.777 83.5283 236.029 79.9007 229.832C76.273 223.634 76.1739 216.176 79.634 209.883L82.5741 204.536C82.6344 204.426 82.7703 204.387 82.8796 204.447C82.9889 204.506 83.0288 204.643 82.9685 204.752L80.0284 210.099C76.6449 216.252 76.7429 223.544 80.2899 229.605C83.8368 235.666 90.1512 239.33 97.1808 239.408L110.598 239.556L127.237 206.754C127.276 206.678 127.347 206.622 127.44 206.631C127.526 206.631 127.604 206.681 127.64 206.758L140.995 234.469C144.129 240.97 150.823 245.172 158.05 245.172H189.055C190.785 245.172 192.241 244.168 192.853 242.551C193.465 240.936 193.04 239.221 191.742 238.077L186.204 233.197C186.181 233.177 186.163 233.153 186.15 233.125L153.1 164.355C153.046 164.243 153.094 164.11 153.205 164.055C153.318 164.001 153.452 164.049 153.506 164.161L186.535 232.89L192.039 237.741C193.48 239.011 193.953 240.915 193.273 242.71C192.593 244.506 190.977 245.622 189.054 245.622V245.62Z" fill="black"/>
<path d="M132.061 216.674C131.977 216.674 131.896 216.627 131.857 216.547L110.465 172.16C110.411 172.048 110.458 171.914 110.571 171.86C110.682 171.806 110.817 171.853 110.871 171.965L132.263 216.352C132.317 216.464 132.27 216.598 132.158 216.652C132.126 216.667 132.093 216.674 132.061 216.674Z" fill="black"/>
<path d="M95.7107 245.401H138.05C143.063 245.401 147.84 243.274 151.188 239.547L201.241 183.853C211.321 172.22 205.767 154.066 190.897 150.042C183.142 147.944 174.612 150.674 169.613 156.534L100.458 232.947L93.3785 237.531C89.7968 239.849 91.4415 245.4 95.7107 245.4V245.401Z" fill="white"/>
<path d="M138.05 245.626H95.7108C93.6635 245.626 91.9656 244.36 91.3854 242.399C90.8051 240.44 91.5386 238.455 93.2569 237.343L100.312 232.775L166.079 160.106C166.161 160.014 166.304 160.007 166.396 160.09C166.488 160.172 166.495 160.315 166.413 160.407L100.627 233.098C100.613 233.112 100.598 233.125 100.582 233.135L93.5021 237.719C91.9554 238.721 91.2944 240.507 91.8175 242.272C92.3405 244.037 93.8688 245.176 95.7118 245.176H138.051C142.994 245.176 147.722 243.07 151.022 239.396L201.076 183.702C208.163 175.523 207.806 163.501 200.242 155.742C200.156 155.653 200.158 155.511 200.246 155.425C200.335 155.338 200.477 155.34 200.564 155.429C204.17 159.129 206.297 164.03 206.552 169.23C206.815 174.624 204.991 179.869 201.412 183.999L151.355 239.696C147.969 243.464 143.119 245.625 138.05 245.625V245.626Z" fill="black"/>
<path d="M179.218 208.492C179.218 208.492 179.213 208.492 179.21 208.492C167.605 208.089 157.215 203.364 150.543 199.471C143.318 195.255 138.769 191.076 138.725 191.034C138.634 190.95 138.628 190.808 138.712 190.717C138.797 190.626 138.939 190.621 139.03 190.705C139.075 190.747 143.593 194.897 150.78 199.09C157.405 202.954 167.718 207.645 179.226 208.044C179.35 208.048 179.447 208.152 179.443 208.276C179.439 208.397 179.339 208.493 179.218 208.493V208.492Z" fill="black"/>
<path d="M165.545 223.81C165.482 223.81 165.42 223.784 165.375 223.732L161.425 219.146L155.905 221.638C155.802 221.684 155.683 221.648 155.623 221.554L152.356 216.461L146.522 218.099C146.414 218.129 146.3 218.076 146.256 217.973L143.844 212.425L137.816 213.053C137.706 213.065 137.6 212.991 137.574 212.881L136.202 206.989L130.165 206.429C130.048 206.418 129.959 206.32 129.96 206.202L130.037 200.081C130.039 199.958 130.139 199.86 130.262 199.86H130.265C130.388 199.861 130.489 199.963 130.487 200.087L130.413 206L136.406 206.556C136.502 206.566 136.582 206.635 136.604 206.729L137.968 212.586L143.961 211.961C144.057 211.95 144.152 212.004 144.191 212.094L146.591 217.614L152.395 215.984C152.492 215.957 152.593 215.996 152.646 216.078L155.897 221.148L161.395 218.667C161.486 218.626 161.593 218.65 161.658 218.725L165.717 223.439C165.798 223.533 165.787 223.675 165.693 223.755C165.651 223.792 165.598 223.809 165.546 223.809L165.545 223.81Z" fill="black"/>
<path d="M231.048 101.385C229.991 97.5512 227.801 94.1239 224.812 91.4127C227.801 88.7014 229.991 85.2741 231.048 81.4408C232.105 85.2741 234.296 88.7014 237.284 91.4127C234.296 94.1239 232.105 97.5512 231.048 101.385Z" fill="white"/>
<path d="M231.048 101.609C230.947 101.609 230.858 101.542 230.832 101.444C229.805 97.7206 227.672 94.3096 224.661 91.5789C224.614 91.5361 224.588 91.4759 224.588 91.4127C224.588 91.3494 224.614 91.2892 224.661 91.2464C227.671 88.5158 229.805 85.1037 230.832 81.3816C230.858 81.2847 230.947 81.2164 231.048 81.2164C231.149 81.2164 231.238 81.2837 231.265 81.3816C232.291 85.1047 234.424 88.5158 237.435 91.2464C237.482 91.2892 237.509 91.3494 237.509 91.4127C237.509 91.4759 237.482 91.5361 237.435 91.5789C234.426 94.3106 232.291 97.7216 231.265 101.444C231.238 101.541 231.149 101.609 231.048 101.609ZM225.145 91.4127C227.927 93.9913 229.955 97.1483 231.048 100.593C232.141 97.1473 234.169 93.9913 236.951 91.4127C234.169 88.834 232.141 85.677 231.048 82.2323C229.955 85.677 227.927 88.834 225.145 91.4127Z" fill="black"/>
<path d="M218.885 86.6705C218.761 86.6705 218.66 86.5695 218.66 86.4461V83.1126C218.66 82.9881 218.761 82.8882 218.885 82.8882C219.01 82.8882 219.11 82.9892 219.11 83.1126V86.4461C219.11 86.5705 219.01 86.6705 218.885 86.6705Z" fill="black"/>
<path d="M219.919 85.0037H217.85C217.726 85.0037 217.625 84.9028 217.625 84.7793C217.625 84.6559 217.726 84.5549 217.85 84.5549H219.919C220.044 84.5549 220.144 84.6559 220.144 84.7793C220.144 84.9028 220.044 85.0037 219.919 85.0037Z" fill="black"/>
<path d="M215.897 94.4534C215.772 94.4534 215.672 94.3524 215.672 94.229V87.9323C215.672 87.8079 215.772 87.7079 215.897 87.7079C216.022 87.7079 216.122 87.8089 216.122 87.9323V94.229C216.122 94.3534 216.022 94.4534 215.897 94.4534Z" fill="black"/>
<path d="M217.85 91.3045H213.943C213.818 91.3045 213.718 91.2035 213.718 91.0801C213.718 90.9567 213.818 90.8557 213.943 90.8557H217.85C217.975 90.8557 218.075 90.9567 218.075 91.0801C218.075 91.2035 217.975 91.3045 217.85 91.3045Z" fill="black"/>
<path d="M235.629 106.426C235.504 106.426 235.404 106.325 235.404 106.201V100.824C235.404 100.699 235.504 100.599 235.629 100.599C235.754 100.599 235.854 100.7 235.854 100.824V106.201C235.854 106.326 235.754 106.426 235.629 106.426Z" fill="black"/>
<path d="M237.297 103.737H233.96C233.835 103.737 233.735 103.636 233.735 103.512C233.735 103.389 233.835 103.288 233.96 103.288H237.297C237.422 103.288 237.522 103.389 237.522 103.512C237.522 103.636 237.422 103.737 237.297 103.737Z" fill="black"/>
<path d="M210.839 108.262C210.156 105.784 208.74 103.568 206.809 101.816C208.741 100.064 210.157 97.848 210.839 95.3704C211.523 97.848 212.938 100.064 214.869 101.816C212.937 103.568 211.522 105.784 210.839 108.262Z" fill="white"/>
<path d="M210.839 108.486C210.738 108.486 210.649 108.419 210.623 108.321C209.964 105.929 208.592 103.737 206.658 101.981C206.611 101.938 206.584 101.878 206.584 101.815C206.584 101.752 206.611 101.692 206.658 101.649C208.593 99.8932 209.964 97.7012 210.623 95.3102C210.649 95.2133 210.738 95.145 210.839 95.145C210.94 95.145 211.029 95.2123 211.056 95.3102C211.716 97.7022 213.087 99.8942 215.02 101.649C215.067 101.692 215.094 101.752 215.094 101.815C215.094 101.878 215.067 101.938 215.02 101.981C213.086 103.737 211.715 105.929 211.056 108.321C211.029 108.418 210.94 108.486 210.839 108.486ZM207.14 101.816C208.854 103.424 210.121 105.371 210.839 107.495C211.557 105.37 212.824 103.423 214.538 101.816C212.824 100.208 211.557 98.2612 210.839 96.1375C210.121 98.2622 208.854 100.209 207.14 101.816Z" fill="black"/>
<path d="M223.323 112.943C222.639 110.465 221.224 108.249 219.293 106.497C221.225 104.745 222.64 102.529 223.323 100.051C224.006 102.529 225.422 104.745 227.353 106.497C225.421 108.249 224.005 110.465 223.323 112.943Z" fill="white"/>
<path d="M223.323 113.167C223.222 113.167 223.133 113.1 223.106 113.002C222.446 110.61 221.075 108.418 219.142 106.662C219.095 106.619 219.068 106.559 219.068 106.496C219.068 106.433 219.095 106.373 219.142 106.33C221.076 104.574 222.447 102.382 223.106 99.9901C223.133 99.8932 223.222 99.8249 223.323 99.8249C223.424 99.8249 223.513 99.8922 223.539 99.9901C224.199 102.382 225.57 104.574 227.504 106.33C227.551 106.373 227.578 106.433 227.578 106.496C227.578 106.559 227.551 106.619 227.504 106.662C225.569 108.418 224.198 110.61 223.539 113.002C223.513 113.099 223.424 113.167 223.323 113.167ZM219.624 106.497C221.338 108.105 222.605 110.052 223.323 112.175C224.041 110.051 225.308 108.104 227.022 106.497C225.308 104.889 224.041 102.942 223.323 100.818C222.605 102.943 221.338 104.89 219.624 106.497Z" fill="black"/>
</g>
<defs>
<clipPath id="clip0_410002_5703">
<rect width="280" height="186.667" fill="white" transform="translate(28 59)"/>
</clipPath>
</defs>
</svg>
