<svg width="336" height="304" viewBox="0 0 336 304" fill="none" xmlns="http://www.w3.org/2000/svg">
<g clip-path="url(#clip0_410025_328)">
<path d="M300.006 194.341H28.2242C28.2242 188.139 33.2515 183.112 39.453 183.112H300.006V194.341Z" fill="white"/>
<path d="M300.005 194.565H28.2242C28.0999 194.565 28 194.464 28 194.341C28 188.025 33.1374 182.888 39.453 182.888H300.005C300.13 182.888 300.23 182.989 300.23 183.112V194.341C300.23 194.465 300.129 194.565 300.005 194.565ZM28.4516 194.116H299.781V183.337H39.453C33.4605 183.337 28.5718 188.152 28.4516 194.116Z" fill="black"/>
<path d="M28.2242 245.535C28.0999 245.535 28 245.434 28 245.311V194.341C28 194.216 28.1009 194.116 28.2242 194.116C28.3476 194.116 28.4485 194.217 28.4485 194.341V245.311C28.4485 245.435 28.3476 245.535 28.2242 245.535Z" fill="black"/>
<path d="M300.005 245.535C299.881 245.535 299.781 245.434 299.781 245.311V194.341C299.781 194.216 299.882 194.116 300.005 194.116C300.129 194.116 300.23 194.217 300.23 194.341V245.311C300.23 245.435 300.129 245.535 300.005 245.535Z" fill="black"/>
<path d="M76.7549 144.221C76.7549 144.221 93.7 116.832 113.756 118.293C133.812 119.753 118.536 172.626 118.536 172.626L69.4169 162.065L76.7549 144.221Z" fill="white"/>
<path d="M118.536 172.851C118.52 172.851 118.504 172.849 118.488 172.846L69.3689 162.285C69.3037 162.271 69.2487 162.229 69.2171 162.17C69.1865 162.111 69.1824 162.042 69.2079 161.98L76.5459 144.136C76.551 144.125 76.5561 144.114 76.5623 144.104C76.6051 144.035 80.8903 137.157 87.575 130.551C93.7602 124.437 103.325 117.309 113.77 118.07C116.766 118.289 119.162 119.657 120.889 122.138C124.552 127.396 125.303 137.508 123.122 152.191C121.502 163.1 118.775 172.596 118.748 172.69C118.719 172.788 118.63 172.852 118.533 172.852L118.536 172.851ZM69.7267 161.902L118.377 172.362C119.216 169.365 128.784 134.252 120.523 122.393C118.876 120.028 116.594 118.724 113.74 118.516C103.467 117.768 94.0119 124.82 87.892 130.868C81.3969 137.287 77.184 143.956 76.9547 144.323L69.7257 161.901L69.7267 161.902Z" fill="black"/>
<path d="M97.5958 164.546C97.4919 164.546 97.3991 164.474 97.3767 164.369C94.6164 151.593 101.9 134.271 101.974 134.098C102.023 133.984 102.154 133.931 102.268 133.98C102.383 134.029 102.436 134.16 102.387 134.274C102.313 134.447 95.0853 151.638 97.815 164.274C97.8415 164.395 97.764 164.514 97.6427 164.541C97.6264 164.544 97.6111 164.546 97.5948 164.546H97.5958Z" fill="black"/>
<path d="M40.2848 151.827C40.2848 151.827 39.8964 153.557 39.3378 156.352C39.2104 156.988 39.1115 157.629 39.0392 158.272C37.3807 172.901 49.0723 185.638 63.8034 185.66C77.0923 185.681 94.6795 185.691 103.213 185.626L119.446 228.482C121.844 234.136 126.93 238.203 132.975 239.301L158.316 243.906C162.26 244.623 165.356 240.57 163.622 236.957C157.486 224.168 145.802 200.046 137.466 184.23C132.156 174.153 123.055 166.594 112.162 163.251C96.5724 158.466 83.3407 154.566 75.7733 153.58L40.2837 151.827H40.2848Z" fill="white"/>
<path d="M159.237 244.215C158.921 244.215 158.6 244.186 158.277 244.127L132.935 239.522C126.795 238.406 121.675 234.312 119.24 228.569L103.059 185.851C94.4563 185.914 76.9863 185.904 63.8045 185.884C56.6112 185.873 49.7389 182.788 44.9512 177.418C40.2664 172.164 38.0311 165.176 38.817 158.246C38.8914 157.587 38.9933 156.935 39.1187 156.307C39.6711 153.542 40.0626 151.794 40.0666 151.777C40.0901 151.67 40.1869 151.598 40.297 151.602L75.7865 153.355C83.6526 154.378 97.5122 158.518 112.229 163.034C117.675 164.706 122.663 167.4 127.053 171.041C131.437 174.678 135.009 179.079 137.667 184.124C145.987 199.908 157.627 223.94 163.827 236.859C164.678 238.632 164.473 240.625 163.281 242.188C162.286 243.493 160.821 244.214 159.238 244.214L159.237 244.215ZM103.213 185.401C103.307 185.401 103.391 185.459 103.423 185.546L119.656 228.402C122.029 233.997 127.024 237.992 133.015 239.079L158.356 243.685C160.126 244.006 161.832 243.345 162.921 241.916C164.008 240.489 164.195 238.672 163.419 237.054C157.222 224.137 145.583 200.112 137.268 184.334C132.015 174.369 122.84 166.762 112.096 163.465C97.397 158.953 83.5578 154.82 75.7447 153.802L40.4632 152.06C40.349 152.577 40.0075 154.149 39.559 156.395C39.4357 157.011 39.3358 157.65 39.2634 158.297C38.4918 165.101 40.6874 171.961 45.2866 177.119C49.9897 182.393 56.7386 185.425 63.8045 185.435C77.0658 185.455 94.6673 185.466 103.211 185.4H103.213V185.401Z" fill="black"/>
<path d="M124.601 229.592C123.704 229.592 122.807 229.572 121.908 229.535C121.783 229.53 121.687 229.425 121.692 229.301C121.698 229.177 121.805 229.081 121.926 229.086C133.296 229.57 144.592 226.956 154.591 221.523C154.7 221.464 154.837 221.504 154.896 221.613C154.955 221.722 154.915 221.858 154.806 221.917C145.526 226.959 135.135 229.592 124.601 229.592Z" fill="black"/>
<path d="M120.262 223.53C119.454 223.53 118.645 223.517 117.837 223.49C117.713 223.486 117.616 223.382 117.62 223.259C117.624 223.134 117.72 223.038 117.852 223.042C129.425 223.419 141.109 221.071 151.639 216.254C151.752 216.203 151.886 216.252 151.937 216.365C151.989 216.478 151.939 216.611 151.825 216.663C141.969 221.173 131.106 223.531 120.261 223.531L120.262 223.53Z" fill="black"/>
<path d="M104.5 185.771C104.385 185.771 104.288 185.685 104.276 185.569C104.264 185.446 104.354 185.336 104.477 185.324L109.97 184.776C110.096 184.764 110.204 184.854 110.216 184.977C110.228 185.101 110.138 185.211 110.015 185.223L104.522 185.77C104.515 185.77 104.507 185.771 104.5 185.771Z" fill="black"/>
<path d="M77.4501 90.4948C74.9558 87.8436 70.8887 87.1433 67.3303 87.9149C63.7719 88.6865 60.6242 90.715 57.6967 92.879C54.7703 95.043 51.9437 97.4007 48.6717 98.9949C45.7534 100.417 42.5691 101.186 39.5009 102.248C36.4328 103.309 33.3769 104.734 31.2108 107.15C28.1447 110.573 27.3334 115.743 28.8695 120.072C30.4066 124.402 34.1128 127.818 38.4439 129.358C42.775 130.898 47.6483 130.64 51.9458 129.008C55.4012 127.696 58.5683 125.47 60.6344 122.407C62.3825 119.816 63.2775 116.763 64.4935 113.885C65.7096 111.007 67.3996 108.134 70.1314 106.614C71.3821 105.919 72.8193 105.526 73.9039 104.593C74.2086 104.331 74.4706 103.999 74.6704 103.636C76.9547 102.654 78.765 100.598 79.401 98.1907C80.1064 95.519 79.3419 92.508 77.448 90.4948H77.4501Z" fill="black"/>
<path d="M61.9034 79.5616C61.4478 78.9317 60.8586 78.3466 60.1063 78.1499C58.7496 77.7952 57.3705 78.8501 56.761 80.1121C56.1596 81.3566 56.0821 82.8448 56.552 84.1455C57.0219 85.4461 58.032 86.5419 59.2899 87.1158C59.9096 87.3981 60.6028 87.5582 61.2745 87.4501C61.9462 87.3421 62.5904 86.9343 62.8738 86.3156C62.9115 86.2341 62.94 86.1505 62.9645 86.0669C63.1989 85.6541 63.3233 85.1383 63.3569 84.6664C63.4844 82.8652 62.9594 81.0254 61.9024 79.5616H61.9034Z" fill="black"/>
<path d="M81.7353 124.09C78.1779 118.222 72.0558 114.376 65.2417 113.542C65.2417 113.542 55.9333 111.845 51.0182 112.752C38.3878 115.496 36.4511 128.496 38.8516 136.121C39.3022 137.554 39.8506 139.263 40.4897 141.107L38.5458 150.747C38.1575 152.674 39.6365 154.472 41.6048 154.464L46.3813 154.444C48.421 157.809 50.7562 160.392 53.3351 161.075C59.031 162.584 67.63 155.769 70.1874 153.582L74.8794 153.57C76.5388 153.566 77.815 152.103 77.5938 150.46L76.7559 144.223L87.365 140.006C87.365 140.006 86.2519 131.541 81.7363 124.091L81.7353 124.09Z" fill="white"/>
<path d="M55.0832 161.514C54.4584 161.514 53.8539 161.443 53.277 161.29C50.9213 160.667 48.5585 158.438 46.2549 154.667L41.6058 154.687C40.6069 154.687 39.6569 154.249 39.0178 153.472C38.3797 152.697 38.1279 151.686 38.3256 150.702L40.2572 141.122C39.6008 139.225 39.0473 137.491 38.6375 136.189C37.3838 132.207 37.0566 125.6 40.2583 120.086C42.5293 116.173 46.2335 113.562 50.9713 112.532C55.8772 111.628 64.9002 113.251 65.2825 113.321C72.169 114.165 78.396 118.149 81.9279 123.975C86.4159 131.38 87.5759 139.892 87.5871 139.976C87.6004 140.078 87.5433 140.176 87.4475 140.214L77.0015 144.366L77.816 150.429C77.9301 151.276 77.6733 152.131 77.1106 152.775C76.5479 153.42 75.7345 153.791 74.8793 153.793L70.27 153.806C67.9256 155.802 60.721 161.514 55.0842 161.514H55.0832ZM46.3803 154.217C46.4588 154.217 46.5311 154.258 46.5719 154.325C48.8348 158.06 51.1293 160.257 53.3911 160.856C59.0178 162.346 67.5566 155.533 70.0396 153.41C70.0804 153.375 70.1314 153.356 70.1854 153.356L74.8773 153.344C75.6041 153.342 76.2941 153.027 76.7712 152.479C77.2482 151.933 77.4664 151.206 77.3695 150.488L76.5316 144.25C76.5184 144.149 76.5755 144.05 76.6713 144.012L87.1152 139.861C86.9266 138.621 85.628 130.946 81.5426 124.207C78.082 118.497 71.9773 114.593 65.2142 113.764C65.1082 113.744 55.8762 112.084 51.0589 112.972C46.3894 113.987 42.883 116.456 40.6466 120.31C37.5183 125.698 37.8404 132.158 39.0657 136.053C39.4785 137.366 40.0381 139.118 40.7017 141.033C40.7149 141.07 40.718 141.111 40.7098 141.151L38.766 150.79C38.5947 151.643 38.8129 152.516 39.3643 153.187C39.9137 153.856 40.7251 154.239 41.5905 154.239C41.5946 154.239 41.5987 154.239 41.6027 154.239L46.3793 154.218L46.3803 154.217Z" fill="black"/>
<path d="M70.5534 140.552C70.4555 140.552 70.3648 140.487 70.3373 140.388C70.3036 140.269 70.374 140.145 70.4932 140.112C72.8886 139.445 74.8467 137.462 75.4818 135.059C76.1168 132.657 75.3941 129.966 73.6399 128.204C73.5522 128.117 73.5532 127.974 73.6399 127.886C73.7275 127.799 73.8702 127.799 73.9579 127.886C75.8222 129.759 76.5898 132.619 75.915 135.173C75.2402 137.727 73.1587 139.836 70.6135 140.544C70.5931 140.549 70.5727 140.552 70.5534 140.552Z" fill="black"/>
<path d="M58.4041 144.664C58.3235 144.664 58.245 144.621 58.2053 144.544L52.8406 134.271C52.5501 133.716 52.1893 133.025 52.1903 132.287C52.1903 131.535 52.6745 130.697 53.4828 130.597C53.6072 130.581 53.7183 130.669 53.7336 130.792C53.7488 130.916 53.6612 131.028 53.5389 131.043C52.9844 131.112 52.6408 131.742 52.6408 132.288C52.6408 132.916 52.9589 133.525 53.2402 134.064L58.6049 144.337C58.6619 144.447 58.6202 144.583 58.5101 144.64C58.4764 144.657 58.4418 144.665 58.4061 144.665L58.4041 144.664Z" fill="black"/>
<path d="M51.9569 148.808C51.8733 148.808 51.7938 148.761 51.755 148.681C51.701 148.57 51.7469 148.436 51.859 148.382L64.1285 142.414C64.2396 142.36 64.3742 142.406 64.4292 142.518C64.4833 142.629 64.4374 142.763 64.3253 142.817L52.0557 148.785C52.0241 148.801 51.9905 148.808 51.9579 148.808H51.9569Z" fill="black"/>
<path d="M46.7686 155.17C46.6911 155.17 46.6147 155.13 46.5739 155.057C43.8656 150.335 41.5058 145.087 40.0992 140.66C40.0615 140.542 40.1267 140.416 40.245 140.378C40.3622 140.34 40.4896 140.406 40.5273 140.524C41.9238 144.921 44.2702 150.137 46.9633 154.833C47.0244 154.941 46.9877 155.078 46.8797 155.14C46.844 155.16 46.8063 155.169 46.7686 155.169V155.17Z" fill="black"/>
<path d="M96.97 144.318H79.5549C78.2033 144.318 77.291 142.94 77.818 141.696L89.2751 116.796C89.7512 115.676 90.85 114.949 92.0671 114.949H111.079C111.881 114.949 112.421 115.766 112.108 116.503L100.366 142.07C99.7873 143.433 98.45 144.318 96.9689 144.318H96.97Z" fill="#469A9A"/>
<path d="M70.1864 153.581L65.1866 142.381C65.1866 142.381 78.9015 134.555 81.0727 134.499L79.6609 137.897C79.6609 137.897 90.5554 137.032 90.8265 138.093C90.9713 138.659 88.8134 139.672 88.8134 139.672C88.8134 139.672 89.319 140.763 87.6514 141.899C87.6514 141.899 88.5259 143.246 86.3609 144.04C86.3609 144.04 86.2824 145.176 81.9656 146.506C77.6488 147.836 75.9078 147.154 75.9078 147.154L70.1854 153.581H70.1864Z" fill="white"/>
<path d="M70.1864 153.806C70.1752 153.806 70.164 153.806 70.1518 153.803C70.0763 153.791 70.0121 153.741 69.9815 153.672L64.9818 142.472C64.9349 142.367 64.9757 142.242 65.0756 142.185C65.6372 141.864 78.8649 134.331 81.0666 134.273C81.1859 134.269 81.2939 134.368 81.297 134.493C81.3 134.617 81.2022 134.72 81.0778 134.723C79.4255 134.766 70.2537 139.753 65.4741 142.475L70.2496 153.172L75.7407 147.004C75.8029 146.933 75.9027 146.91 75.9904 146.944C76.0067 146.95 77.7385 147.572 81.9004 146.291C85.89 145.062 86.1367 144.033 86.1377 144.024C86.1469 143.901 86.2529 143.807 86.3772 143.815C86.5006 143.823 86.5944 143.931 86.5862 144.055C86.577 144.187 86.3721 145.384 82.0329 146.72C78.3471 147.856 76.5001 147.547 75.9812 147.409L70.3546 153.729C70.3118 153.777 70.2506 153.805 70.1864 153.805V153.806Z" fill="black"/>
<path d="M83.2021 141.014C82.3928 141.014 81.5814 140.944 80.7772 140.803C80.6549 140.782 80.5733 140.666 80.5947 140.543C80.6161 140.421 80.7313 140.339 80.8547 140.361C83.2827 140.788 85.782 140.544 88.0826 139.656C88.1978 139.612 88.3283 139.67 88.3731 139.785C88.418 139.901 88.3599 140.031 88.2447 140.075C86.6301 140.698 84.9197 141.014 83.2021 141.014Z" fill="black"/>
<path d="M82.1349 143.457C82.0167 143.457 81.9178 143.366 81.9107 143.245C81.9035 143.122 81.9983 143.015 82.1217 143.008C83.7199 142.915 85.2805 142.558 86.7585 141.946C86.8737 141.898 87.0042 141.953 87.0521 142.067C87.1 142.181 87.045 142.313 86.9308 142.361C85.4059 142.993 83.7964 143.362 82.1471 143.456C82.1431 143.456 82.138 143.456 82.1339 143.456L82.1349 143.457Z" fill="black"/>
<path d="M81.4958 145.488C81.3857 145.488 81.2899 145.407 81.2736 145.295C81.2563 145.173 81.3419 145.059 81.4642 145.041C82.9616 144.829 84.4335 144.439 85.8381 143.882C85.9543 143.836 86.0837 143.892 86.1296 144.008C86.1755 144.123 86.1184 144.254 86.0032 144.299C84.565 144.87 83.0584 145.269 81.5264 145.487C81.5152 145.489 81.505 145.489 81.4948 145.489L81.4958 145.488Z" fill="black"/>
<path d="M63.2001 103.207L57.4654 112.119L51.853 112.902C51.853 112.902 61.7424 122.034 66.0776 121.964C70.4127 121.894 69.4169 114.455 69.4169 114.455L66.3661 113.482L68.7941 109.001L63.2001 103.207Z" fill="white"/>
<path d="M66.0287 122.188C61.6303 122.188 52.1059 113.441 51.7012 113.067C51.637 113.007 51.6135 112.918 51.639 112.834C51.6645 112.752 51.7358 112.69 51.8225 112.679L57.3319 111.91L63.0105 103.084C63.0472 103.026 63.1094 102.99 63.1777 102.982C63.246 102.975 63.3132 103.001 63.3611 103.05L68.9552 108.844C69.0234 108.914 69.0377 109.02 68.9908 109.107L66.6923 113.35L69.4852 114.24C69.5678 114.266 69.6279 114.338 69.6391 114.424C69.6646 114.611 70.2313 119.026 68.4302 121.119C67.8329 121.812 67.0429 122.172 66.0817 122.188C66.0644 122.188 66.046 122.188 66.0287 122.188ZM52.3607 113.057C54.1537 114.664 62.2654 121.739 66.0267 121.739C66.043 121.739 66.0583 121.739 66.0746 121.739C66.9022 121.726 67.5801 121.419 68.0908 120.826C69.5922 119.082 69.2915 115.389 69.211 114.624L66.2988 113.696C66.2356 113.676 66.1836 113.628 66.1592 113.566C66.1337 113.504 66.1378 113.434 66.1704 113.375L68.5199 109.038L63.2368 103.567L57.656 112.24C57.6204 112.295 57.5633 112.332 57.498 112.341L52.3617 113.057H52.3607Z" fill="black"/>
<path d="M65.6149 115.173C65.5823 115.173 65.5486 115.166 65.517 115.151C65.4059 115.097 65.3591 114.962 65.4131 114.851L65.9187 113.811C65.9727 113.699 66.1072 113.653 66.2183 113.707C66.3294 113.761 66.3763 113.895 66.3223 114.006L65.8167 115.047C65.778 115.127 65.6975 115.173 65.6149 115.173Z" fill="black"/>
<path d="M65.2337 99.8654C64.8698 99.371 64.3265 98.9827 63.7159 98.9184C62.77 98.8196 61.877 99.5412 61.5315 100.427C61.1859 101.313 61.292 102.313 61.5458 103.229C61.7119 103.828 61.9545 104.434 62.4173 104.85C62.8801 105.266 63.6099 105.437 64.1369 105.106C64.5344 106.485 64.9615 107.889 65.8055 109.05C66.6505 110.211 68.0042 111.101 69.4373 111.013C70.633 110.939 71.6971 110.207 72.5167 109.335C73.8724 107.89 74.7174 106.028 75.2209 104.113C75.7245 102.198 75.9069 100.215 76.0883 98.2426C75.7826 98.8175 75.0038 99.0448 74.3932 98.8175C73.7827 98.5902 73.3596 97.9878 73.2394 97.3487C73.1068 98.3527 72.3933 99.2579 71.4484 99.6218C70.5035 99.9857 69.366 99.793 68.5933 99.1376C68.6178 99.7227 68.6025 100.323 68.3946 100.87C68.0775 101.702 67.1031 102.458 66.2203 101.892C65.9217 101.7 65.8952 101.496 65.8167 101.175C65.7015 100.701 65.5262 100.263 65.2347 99.8654H65.2337Z" fill="white"/>
<path d="M69.2466 111.244C67.9307 111.244 66.5587 110.469 65.623 109.183C64.835 108.1 64.4079 106.838 63.9941 105.424C63.3927 105.639 62.6996 105.406 62.2664 105.017C61.719 104.525 61.4693 103.795 61.3286 103.289C61.0106 102.142 61.0075 101.151 61.3215 100.345C61.6752 99.4373 62.618 98.579 63.7382 98.6952C64.3672 98.7604 64.9777 99.1386 65.414 99.7319C65.6974 100.118 65.9002 100.573 66.0327 101.121L66.0501 101.195C66.1133 101.463 66.1398 101.574 66.3385 101.702C66.6015 101.871 66.8849 101.907 67.1795 101.81C67.5984 101.672 68.0021 101.262 68.1815 100.79C68.3823 100.263 68.3874 99.6636 68.3659 99.1468C68.3619 99.0581 68.4118 98.9745 68.4913 98.9358C68.5708 98.897 68.6666 98.9082 68.7349 98.9663C69.4423 99.5667 70.4984 99.7451 71.3638 99.4118C72.2292 99.0785 72.8917 98.2375 73.013 97.3181C73.0273 97.209 73.119 97.1265 73.2291 97.1234C73.3371 97.1204 73.436 97.1978 73.4564 97.3059C73.5706 97.9093 73.9671 98.42 74.4676 98.6065C74.9966 98.8033 75.6449 98.5882 75.8854 98.1366C75.9354 98.0418 76.0455 97.996 76.1484 98.0265C76.2514 98.0571 76.3176 98.156 76.3074 98.262C76.1291 100.213 75.9435 102.231 75.4339 104.169C74.857 106.365 73.9284 108.153 72.6756 109.488C71.9713 110.238 70.8398 111.15 69.4464 111.236C69.3791 111.24 69.3108 111.242 69.2426 111.242L69.2466 111.244ZM64.1358 104.881C64.1623 104.881 64.1898 104.887 64.2153 104.896C64.2815 104.921 64.3315 104.975 64.3509 105.044C64.7769 106.519 65.1938 107.83 65.9858 108.918C66.6871 109.881 67.9582 110.879 69.422 110.788C70.6676 110.712 71.7022 109.872 72.3515 109.181C73.5522 107.902 74.4441 106.178 75.0027 104.056C75.4482 102.364 75.6418 100.594 75.8039 98.8624C75.3819 99.1345 74.8152 99.214 74.3137 99.0285C73.8815 98.8675 73.5104 98.527 73.2699 98.0918C72.9529 98.8726 72.3107 99.53 71.5268 99.8317C70.6574 100.166 69.6238 100.06 68.8246 99.58C68.8206 100.026 68.7727 100.502 68.6024 100.951C68.3731 101.551 67.8706 102.057 67.3211 102.238C66.8981 102.378 66.4751 102.324 66.0969 102.081C65.7453 101.856 65.6841 101.598 65.6138 101.3L65.5965 101.228C65.4762 100.731 65.3029 100.34 65.0521 99.9989C64.6903 99.5066 64.1949 99.1947 63.6924 99.1427C62.8056 99.0499 62.0258 99.7777 61.7404 100.509C61.4621 101.221 61.4693 102.117 61.7618 103.169C61.9636 103.897 62.2113 104.364 62.5671 104.683C62.9299 105.01 63.5609 105.203 64.0165 104.916C64.0532 104.894 64.094 104.881 64.1358 104.881Z" fill="black"/>
<path d="M64.6903 104.018C64.5823 104.018 64.4875 103.941 64.4691 103.831C64.3488 103.111 63.8779 102.444 63.2388 102.091C63.1307 102.03 63.091 101.894 63.1511 101.786C63.2113 101.678 63.3479 101.638 63.4559 101.698C64.2224 102.123 64.7667 102.893 64.9115 103.757C64.9319 103.879 64.8493 103.996 64.727 104.016C64.7148 104.018 64.7015 104.019 64.6893 104.019L64.6903 104.018Z" fill="black"/>
<path d="M195.472 183.112H296.47V59.2243L195.472 59.2243V183.112Z" fill="white"/>
<path d="M296.471 183.336H195.472C195.347 183.336 195.247 183.235 195.247 183.112V59.2793C195.247 59.1549 195.348 59.055 195.472 59.055L244.968 59.0499C245.092 59.0499 245.192 59.1509 245.192 59.2742C245.192 59.3975 245.091 59.4984 244.968 59.4984L195.696 59.5035V182.888H296.245V60.3445C296.245 60.2201 296.346 60.1202 296.469 60.1202C296.593 60.1202 296.694 60.2211 296.694 60.3445V183.112C296.694 183.236 296.593 183.336 296.469 183.336H296.471Z" fill="black"/>
<path d="M296.47 101.496H195.472C195.347 101.496 195.247 101.395 195.247 101.272C195.247 101.149 195.348 101.048 195.472 101.048H296.47C296.595 101.048 296.695 101.149 296.695 101.272C296.695 101.395 296.594 101.496 296.47 101.496Z" fill="black"/>
<path d="M296.47 142.517H195.472C195.347 142.517 195.247 142.416 195.247 142.292C195.247 142.169 195.348 142.068 195.472 142.068H296.47C296.595 142.068 296.695 142.169 296.695 142.292C296.695 142.416 296.594 142.517 296.47 142.517Z" fill="black"/>
<path d="M228.806 183.336C228.682 183.336 228.582 183.235 228.582 183.112V59.3506C228.582 59.2263 228.683 59.1264 228.806 59.1264C228.93 59.1264 229.031 59.2273 229.031 59.3506V183.112C229.031 183.236 228.93 183.336 228.806 183.336Z" fill="black"/>
<path d="M264.223 183.336C264.099 183.336 263.999 183.235 263.999 183.112V59.2242C263.999 59.0999 264.1 59 264.223 59C264.347 59 264.448 59.1009 264.448 59.2242V183.112C264.448 183.236 264.347 183.336 264.223 183.336Z" fill="black"/>
<path d="M244.432 59.0815C244.432 59.0815 249.034 125.969 292.63 147.415L278.091 185.937H307.664L307.662 59.0285L244.432 59.0815Z" fill="#C6D7DC"/>
<path d="M299.667 149.335C297.393 149.335 294.825 148.956 292.214 147.83C292.043 147.757 291.964 147.558 292.038 147.388C292.111 147.217 292.31 147.138 292.48 147.212C300.162 150.523 307.445 147.145 307.518 147.111C307.686 147.031 307.887 147.103 307.966 147.271C308.046 147.439 307.975 147.64 307.806 147.719C307.755 147.744 304.325 149.335 299.666 149.335H299.667Z" fill="white"/>
<path d="M292.347 139.488C292.301 139.488 292.253 139.478 292.207 139.458C283.396 135.412 276.215 127.655 271.742 121.86C266.902 115.59 264.1 110.197 264.073 110.144C263.987 109.979 264.052 109.775 264.217 109.691C264.382 109.605 264.585 109.67 264.671 109.835C264.781 110.048 275.855 131.208 292.487 138.846C292.656 138.924 292.731 139.123 292.652 139.293C292.595 139.416 292.474 139.489 292.345 139.489L292.347 139.488Z" fill="white"/>
<path d="M285.034 120.378C284.922 120.378 284.813 120.322 284.748 120.22C276.756 107.501 274.024 94.038 273.139 84.9834C272.181 75.1725 273.126 68.2676 273.136 68.1983C273.162 68.0138 273.333 67.8854 273.517 67.9119C273.701 67.9373 273.829 68.1086 273.803 68.2921C273.794 68.3604 272.859 75.201 273.812 84.9375C274.691 93.9146 277.4 107.261 285.318 119.86C285.417 120.018 285.37 120.226 285.212 120.325C285.156 120.36 285.094 120.377 285.033 120.377L285.034 120.378Z" fill="white"/>
<path d="M303.231 140.411C303.108 140.411 302.989 140.343 302.93 140.226C296.949 128.457 293.641 114.636 291.92 105.114C289.9 93.9391 289.304 84.4513 289.757 80.8562C289.781 80.6717 289.949 80.5412 290.133 80.5646C290.318 80.5881 290.448 80.7563 290.425 80.9408C289.562 87.7743 292.728 118.667 303.53 139.921C303.615 140.088 303.549 140.29 303.382 140.374C303.334 140.398 303.282 140.411 303.23 140.411H303.231Z" fill="white"/>
<path d="M100.713 109.948C100.589 109.948 100.489 109.848 100.489 109.724V68.2462C100.489 68.1219 100.59 68.022 100.713 68.022H179.44C179.564 68.022 179.664 68.1229 179.664 68.2462V70.7232C179.664 70.8475 179.563 70.9474 179.44 70.9474C179.316 70.9474 179.216 70.8465 179.216 70.7232V68.4705H100.938V109.724C100.938 109.849 100.837 109.948 100.714 109.948H100.713Z" fill="black"/>
<path d="M243.872 75.2153H159.811C156.103 75.2153 153.097 78.2213 153.097 81.9295V200.346C153.097 204.054 156.103 207.06 159.811 207.06H243.872C247.58 207.06 250.586 204.054 250.586 200.346V81.9295C250.586 78.2213 247.58 75.2153 243.872 75.2153Z" fill="black"/>
<path d="M243.872 207.284H159.811C155.984 207.284 152.872 204.171 152.872 200.346V81.9295C152.872 78.103 155.985 74.991 159.811 74.991H243.872C247.698 74.991 250.81 78.104 250.81 81.9295V200.346C250.81 204.172 247.697 207.284 243.872 207.284ZM159.811 75.4395C156.232 75.4395 153.321 78.3507 153.321 81.9295V200.346C153.321 203.924 156.232 206.835 159.811 206.835H243.872C247.451 206.835 250.362 203.924 250.362 200.346V81.9295C250.362 78.3507 247.451 75.4395 243.872 75.4395H159.811Z" fill="black"/>
<path d="M240.522 75.2153H156.461C152.753 75.2153 149.747 78.2213 149.747 81.9295V200.346C149.747 204.054 152.753 207.06 156.461 207.06H240.522C244.23 207.06 247.237 204.054 247.237 200.346V81.9295C247.237 78.2213 244.23 75.2153 240.522 75.2153Z" fill="white"/>
<path d="M240.522 207.284H156.461C152.635 207.284 149.523 204.171 149.523 200.346V81.9295C149.523 78.103 152.636 74.991 156.461 74.991H240.522C244.349 74.991 247.461 78.104 247.461 81.9295V200.346C247.461 204.172 244.348 207.284 240.522 207.284ZM156.461 75.4395C152.882 75.4395 149.971 78.3507 149.971 81.9295V200.346C149.971 203.924 152.882 206.835 156.461 206.835H240.522C244.101 206.835 247.012 203.924 247.012 200.346V81.9295C247.012 78.3507 244.101 75.4395 240.522 75.4395H156.461Z" fill="black"/>
<path d="M238.933 79.0367H158.049C155.424 79.0367 153.296 81.1647 153.296 83.7898V198.121C153.296 200.746 155.424 202.874 158.049 202.874H238.933C241.558 202.874 243.686 200.746 243.686 198.121V83.7898C243.686 81.1647 241.558 79.0367 238.933 79.0367Z" fill="white"/>
<path d="M238.933 203.099H158.05C155.305 203.099 153.072 200.865 153.072 198.12V83.7898C153.072 81.0447 155.305 78.8114 158.05 78.8114H238.933C241.678 78.8114 243.912 81.0447 243.912 83.7898V198.12C243.912 200.865 241.678 203.099 238.933 203.099ZM158.05 79.2609C155.553 79.2609 153.522 81.2924 153.522 83.7898V198.12C153.522 200.618 155.553 202.649 158.05 202.649H238.933C241.431 202.649 243.462 200.618 243.462 198.12V83.7898C243.462 81.2924 241.431 79.2609 238.933 79.2609H158.05Z" fill="black"/>
<path d="M206.093 82.9916H191.71C191.586 82.9916 191.486 82.8907 191.486 82.7674C191.486 82.644 191.587 82.5431 191.71 82.5431H206.093C206.217 82.5431 206.317 82.644 206.317 82.7674C206.317 82.8907 206.216 82.9916 206.093 82.9916Z" fill="black"/>
<path d="M195.528 100.052H166.164C164.55 100.052 163.229 98.7309 163.229 97.1163C163.229 95.5017 164.55 94.1807 166.164 94.1807H195.528C197.142 94.1807 198.463 95.5017 198.463 97.1163C198.463 98.7309 197.142 100.052 195.528 100.052Z" fill="#C6D7DC"/>
<path d="M211.914 111.09H165.906C164.292 111.09 162.971 109.769 162.971 108.154C162.971 106.54 164.292 105.219 165.906 105.219H211.914C213.529 105.219 214.85 106.54 214.85 108.154C214.85 109.769 213.529 111.09 211.914 111.09Z" fill="#C6D7DC"/>
<path d="M234.833 156.268H212.473C212.348 156.268 212.249 156.167 212.249 156.044C212.249 155.921 212.349 155.82 212.473 155.82H234.833C234.957 155.82 235.057 155.921 235.057 156.044C235.057 156.167 234.956 156.268 234.833 156.268Z" fill="black"/>
<path d="M208.165 156.268H186.647C186.523 156.268 186.423 156.167 186.423 156.044C186.423 155.921 186.524 155.82 186.647 155.82H208.165C208.29 155.82 208.389 155.921 208.389 156.044C208.389 156.167 208.289 156.268 208.165 156.268Z" fill="black"/>
<path d="M182.34 156.268H167.278C167.154 156.268 167.054 156.167 167.054 156.044C167.054 155.921 167.155 155.82 167.278 155.82H182.34C182.464 155.82 182.564 155.921 182.564 156.044C182.564 156.167 182.463 156.268 182.34 156.268Z" fill="black"/>
<path d="M230.524 162.701H222.017C221.892 162.701 221.792 162.6 221.792 162.477C221.792 162.354 221.893 162.253 222.017 162.253H230.524C230.648 162.253 230.748 162.354 230.748 162.477C230.748 162.6 230.647 162.701 230.524 162.701Z" fill="black"/>
<path d="M217.709 162.701H180.847C180.722 162.701 180.622 162.6 180.622 162.477C180.622 162.354 180.723 162.253 180.847 162.253H217.709C217.833 162.253 217.933 162.354 217.933 162.477C217.933 162.6 217.832 162.701 217.709 162.701Z" fill="black"/>
<path d="M176.538 162.701H162.97C162.845 162.701 162.745 162.6 162.745 162.477C162.745 162.354 162.846 162.253 162.97 162.253H176.538C176.662 162.253 176.762 162.354 176.762 162.477C176.762 162.6 176.661 162.701 176.538 162.701Z" fill="black"/>
<path d="M234.833 169.134H199C198.875 169.134 198.775 169.033 198.775 168.91C198.775 168.786 198.876 168.686 199 168.686H234.833C234.957 168.686 235.057 168.786 235.057 168.91C235.057 169.033 234.956 169.134 234.833 169.134Z" fill="black"/>
<path d="M194.691 169.134H162.971C162.846 169.134 162.747 169.033 162.747 168.91C162.747 168.786 162.847 168.686 162.971 168.686H194.691C194.815 168.686 194.915 168.786 194.915 168.91C194.915 169.033 194.814 169.134 194.691 169.134Z" fill="black"/>
<path d="M234.833 175.567H206.11C205.986 175.567 205.886 175.466 205.886 175.343C205.886 175.219 205.987 175.118 206.11 175.118H234.833C234.957 175.118 235.057 175.219 235.057 175.343C235.057 175.466 234.956 175.567 234.833 175.567Z" fill="black"/>
<path d="M201.802 175.567H182.53C182.406 175.567 182.306 175.466 182.306 175.343C182.306 175.219 182.407 175.118 182.53 175.118H201.802C201.926 175.118 202.026 175.219 202.026 175.343C202.026 175.466 201.925 175.567 201.802 175.567Z" fill="black"/>
<path d="M178.223 175.567H162.971C162.846 175.567 162.747 175.466 162.747 175.343C162.747 175.219 162.847 175.118 162.971 175.118H178.223C178.347 175.118 178.447 175.219 178.447 175.343C178.447 175.466 178.346 175.567 178.223 175.567Z" fill="black"/>
<path d="M234.833 119.816H212.473C212.348 119.816 212.249 119.716 212.249 119.592C212.249 119.469 212.349 119.368 212.473 119.368H234.833C234.957 119.368 235.057 119.469 235.057 119.592C235.057 119.716 234.956 119.816 234.833 119.816Z" fill="black"/>
<path d="M208.165 119.816H186.647C186.523 119.816 186.423 119.716 186.423 119.592C186.423 119.469 186.524 119.368 186.647 119.368H208.165C208.29 119.368 208.389 119.469 208.389 119.592C208.389 119.716 208.289 119.816 208.165 119.816Z" fill="black"/>
<path d="M182.34 119.816H167.278C167.154 119.816 167.054 119.716 167.054 119.592C167.054 119.469 167.155 119.368 167.278 119.368H182.34C182.464 119.368 182.564 119.469 182.564 119.592C182.564 119.716 182.463 119.816 182.34 119.816Z" fill="black"/>
<path d="M234.833 126.249H222.018C221.893 126.249 221.793 126.148 221.793 126.025C221.793 125.902 221.894 125.801 222.018 125.801H234.833C234.957 125.801 235.057 125.902 235.057 126.025C235.057 126.148 234.956 126.249 234.833 126.249Z" fill="black"/>
<path d="M217.709 126.249H180.847C180.722 126.249 180.622 126.148 180.622 126.025C180.622 125.902 180.723 125.801 180.847 125.801H217.709C217.833 125.801 217.933 125.902 217.933 126.025C217.933 126.148 217.832 126.249 217.709 126.249Z" fill="black"/>
<path d="M176.538 126.249H162.97C162.845 126.249 162.745 126.148 162.745 126.025C162.745 125.902 162.846 125.801 162.97 125.801H176.538C176.662 125.801 176.762 125.902 176.762 126.025C176.762 126.148 176.661 126.249 176.538 126.249Z" fill="black"/>
<path d="M234.833 132.681H199C198.875 132.681 198.775 132.58 198.775 132.457C198.775 132.334 198.876 132.233 199 132.233H234.833C234.957 132.233 235.057 132.334 235.057 132.457C235.057 132.58 234.956 132.681 234.833 132.681Z" fill="black"/>
<path d="M194.691 132.681H162.971C162.846 132.681 162.747 132.58 162.747 132.457C162.747 132.334 162.847 132.233 162.971 132.233H194.691C194.815 132.233 194.915 132.334 194.915 132.457C194.915 132.58 194.814 132.681 194.691 132.681Z" fill="black"/>
<path d="M234.833 139.114H206.11C205.986 139.114 205.886 139.013 205.886 138.89C205.886 138.767 205.987 138.666 206.11 138.666H234.833C234.957 138.666 235.057 138.767 235.057 138.89C235.057 139.013 234.956 139.114 234.833 139.114Z" fill="black"/>
<path d="M201.802 139.114H182.53C182.406 139.114 182.306 139.013 182.306 138.89C182.306 138.767 182.407 138.666 182.53 138.666H201.802C201.926 138.666 202.026 138.767 202.026 138.89C202.026 139.013 201.925 139.114 201.802 139.114Z" fill="black"/>
<path d="M178.223 139.114H162.971C162.846 139.114 162.747 139.013 162.747 138.89C162.747 138.767 162.847 138.666 162.971 138.666H178.223C178.347 138.666 178.447 138.767 178.447 138.89C178.447 139.013 178.346 139.114 178.223 139.114Z" fill="black"/>
<path d="M208.984 145.547H192.262C192.137 145.547 192.038 145.446 192.038 145.323C192.038 145.199 192.139 145.099 192.262 145.099H208.984C209.108 145.099 209.208 145.199 209.208 145.323C209.208 145.446 209.107 145.547 208.984 145.547Z" fill="black"/>
<path d="M187.953 145.547H162.97C162.845 145.547 162.745 145.446 162.745 145.323C162.745 145.199 162.846 145.099 162.97 145.099H187.953C188.078 145.099 188.177 145.199 188.177 145.323C188.177 145.446 188.076 145.547 187.953 145.547Z" fill="black"/>
<path d="M234.292 193.596H223.74C223.616 193.596 223.516 193.495 223.516 193.371C223.516 193.248 223.617 193.147 223.74 193.147H234.292C234.417 193.147 234.516 193.248 234.516 193.371C234.516 193.495 234.416 193.596 234.292 193.596Z" fill="black"/>
<path d="M231.222 195.526C231.156 195.422 231.186 195.283 231.291 195.216L234.189 193.37L231.291 191.524C231.186 191.458 231.156 191.318 231.222 191.214C231.288 191.11 231.429 191.08 231.533 191.145L234.728 193.181C234.793 193.222 234.832 193.294 234.832 193.37C234.832 193.447 234.793 193.518 234.728 193.56L231.533 195.595C231.495 195.619 231.453 195.63 231.413 195.63C231.338 195.63 231.266 195.593 231.223 195.526H231.222Z" fill="black"/>
</g>
<defs>
<clipPath id="clip0_410025_328">
<rect width="280" height="186.535" fill="white" transform="translate(28 59)"/>
</clipPath>
</defs>
</svg>
